# MagicaVoxel @ Ephtracy

# group
o 

# material
mtllib Enemy1-6.mtl
usemtl palette

# normals
vn 0 0 1
vn 0 0 -1
vn 1 0 0
vn -1 0 0
vn 0 -1 0
vn 0 1 0

# texcoords
vt 0.166016 0.5
vt 0.169922 0.5

# verts
v 0.7 0.8 -0.8
v 0.5 0.8 -0.8
v 0.7 1 -0.8
v 0.5 1 -0.8
v 0.8 0.6 -0.9
v 0.7 0.6 -0.9
v 0.7 0.7 -0.9
v 0.6 0.7 -0.9
v 0.7 0.8 -0.9
v 0.6 0.8 -0.9
v 0.8 0.9 -0.9
v 0.7 0.9 -0.9
v 0.9 0.4 -1
v 0.8 0.4 -1
v 0.8 0.5 -1
v 0.7 0.5 -1
v 0.8 0.6 -1
v 0.7 0.6 -1
v 0.6 0.6 -1
v 0.9 0.7 -1
v 0.8 0.7 -1
v 0.7 0.7 -1
v 0.6 0.7 -1
v 1 0.2 -1.1
v 0.9 0.2 -1.1
v 0.9 0.3 -1.1
v 0.8 0.3 -1.1
v 0.9 0.4 -1.1
v 0.8 0.4 -1.1
v 0.7 0.4 -1.1
v 1 0.5 -1.1
v 0.9 0.5 -1.1
v 0.8 0.5 -1.1
v 0.7 0.5 -1.1
v 1 0 -1.2
v 0.9 0 -1.2
v 1 0.2 -1.2
v 0.9 0.2 -1.2
v 0.8 0.2 -1.2
v 0.9 0.3 -1.2
v 0.8 0.3 -1.2
v 0.6 0.8 -1
v 0.5 0.8 -1
v 0.7 0.9 -1
v 0.6 0.9 -1
v 0.7 1 -1
v 0.5 1 -1
v 0.9 0.6 -1.1
v 0.8 0.6 -1.1
v 0.7 0.6 -1.1
v 0.6 0.6 -1.1
v 0.9 0.7 -1.1
v 0.8 0.7 -1.1
v 0.7 0.7 -1.1
v 0.8 0.9 -1.1
v 0.6 0.9 -1.1
v 1 0.3 -1.2
v 0.9 0.3 -1.2
v 0.8 0.4 -1.2
v 0.7 0.4 -1.2
v 1 0.5 -1.2
v 0.9 0.5 -1.2
v 0.8 0.5 -1.2
v 0.9 0.6 -1.2
v 0.8 0.6 -1.2
v 0.8 0.7 -1.2
v 0.7 0.7 -1.2
v 1 0 -1.3
v 0.9 0 -1.3
v 0.9 0.2 -1.3
v 0.8 0.2 -1.3
v 1 0.3 -1.3
v 0.9 0.3 -1.3
v 0.9 0.5 -1.3
v 0.8 0.5 -1.3
v 1 0.2 -1.1
v 1 0.5 -1.1
v 1 0 -1.2
v 1 0.2 -1.2
v 1 0.3 -1.2
v 1 0.5 -1.2
v 1 0 -1.3
v 1 0.3 -1.3
v 0.9 0.4 -1
v 0.9 0.7 -1
v 0.9 0.4 -1.1
v 0.9 0.5 -1.1
v 0.9 0.6 -1.1
v 0.9 0.7 -1.1
v 0.9 0.3 -1.2
v 0.9 0.5 -1.2
v 0.9 0.6 -1.2
v 0.9 0.3 -1.3
v 0.9 0.5 -1.3
v 0.8 0.6 -0.9
v 0.8 0.9 -0.9
v 0.8 0.6 -1
v 0.8 0.7 -1
v 0.8 0.6 -1.1
v 0.8 0.7 -1.1
v 0.8 0.9 -1.1
v 0.8 0.6 -1.2
v 0.8 0.7 -1.2
v 0.7 0.8 -0.8
v 0.7 1 -0.8
v 0.7 0.8 -0.9
v 0.7 0.9 -0.9
v 0.7 0.9 -1
v 0.7 1 -1
v 0.9 0.2 -1.1
v 0.9 0.3 -1.1
v 0.9 0 -1.2
v 0.9 0.2 -1.2
v 0.9 0.3 -1.2
v 0.9 0 -1.3
v 0.9 0.2 -1.3
v 0.8 0.4 -1
v 0.8 0.5 -1
v 0.8 0.3 -1.1
v 0.8 0.4 -1.1
v 0.8 0.5 -1.1
v 0.8 0.2 -1.2
v 0.8 0.3 -1.2
v 0.8 0.4 -1.2
v 0.8 0.5 -1.2
v 0.8 0.2 -1.3
v 0.8 0.5 -1.3
v 0.7 0.6 -0.9
v 0.7 0.7 -0.9
v 0.7 0.5 -1
v 0.7 0.6 -1
v 0.7 0.7 -1
v 0.7 0.4 -1.1
v 0.7 0.5 -1.1
v 0.7 0.6 -1.1
v 0.7 0.7 -1.1
v 0.7 0.4 -1.2
v 0.7 0.7 -1.2
v 0.6 0.7 -0.9
v 0.6 0.8 -0.9
v 0.6 0.6 -1
v 0.6 0.7 -1
v 0.6 0.8 -1
v 0.6 0.9 -1
v 0.6 0.6 -1.1
v 0.6 0.9 -1.1
v 0.5 0.8 -0.8
v 0.5 1 -0.8
v 0.5 0.8 -1
v 0.5 1 -1
v 1 0 -1.2
v 1 0 -1.3
v 0.9 0 -1.2
v 0.9 0 -1.3
v 1 0.2 -1.1
v 1 0.2 -1.2
v 0.9 0.2 -1.1
v 0.9 0.2 -1.2
v 0.9 0.2 -1.3
v 0.8 0.2 -1.2
v 0.8 0.2 -1.3
v 0.9 0.3 -1.1
v 0.9 0.3 -1.2
v 0.8 0.3 -1.1
v 0.8 0.3 -1.2
v 0.9 0.4 -1
v 0.9 0.4 -1.1
v 0.8 0.4 -1
v 0.8 0.4 -1.1
v 0.8 0.4 -1.2
v 0.7 0.4 -1.1
v 0.7 0.4 -1.2
v 0.8 0.5 -1
v 0.8 0.5 -1.1
v 0.7 0.5 -1
v 0.7 0.5 -1.1
v 0.8 0.6 -0.9
v 0.8 0.6 -1
v 0.7 0.6 -0.9
v 0.7 0.6 -1
v 0.7 0.6 -1.1
v 0.6 0.6 -1
v 0.6 0.6 -1.1
v 0.7 0.7 -0.9
v 0.7 0.7 -1
v 0.6 0.7 -0.9
v 0.6 0.7 -1
v 0.7 0.8 -0.8
v 0.7 0.8 -0.9
v 0.6 0.8 -0.9
v 0.6 0.8 -1
v 0.5 0.8 -0.8
v 0.5 0.8 -1
v 1 0.3 -1.2
v 1 0.3 -1.3
v 0.9 0.3 -1.2
v 0.9 0.3 -1.3
v 1 0.5 -1.1
v 1 0.5 -1.2
v 0.9 0.5 -1.1
v 0.9 0.5 -1.2
v 0.9 0.5 -1.3
v 0.8 0.5 -1.2
v 0.8 0.5 -1.3
v 0.9 0.6 -1.1
v 0.9 0.6 -1.2
v 0.8 0.6 -1.1
v 0.8 0.6 -1.2
v 0.9 0.7 -1
v 0.9 0.7 -1.1
v 0.8 0.7 -1
v 0.8 0.7 -1.1
v 0.8 0.7 -1.2
v 0.7 0.7 -1.1
v 0.7 0.7 -1.2
v 0.8 0.9 -0.9
v 0.8 0.9 -1.1
v 0.7 0.9 -0.9
v 0.7 0.9 -1
v 0.6 0.9 -1
v 0.6 0.9 -1.1
v 0.7 1 -0.8
v 0.7 1 -1
v 0.5 1 -0.8
v 0.5 1 -1

# faces
f 3/1/1 2/1/1 1/1/1
f 4/1/1 2/1/1 3/1/1
f 7/1/1 6/1/1 5/1/1
f 9/1/1 7/1/1 5/1/1
f 9/1/1 8/1/1 7/1/1
f 10/1/1 8/1/1 9/1/1
f 11/1/1 9/1/1 5/1/1
f 12/1/1 9/1/1 11/1/1
f 15/2/1 14/2/1 13/2/1
f 17/2/1 15/2/1 13/2/1
f 17/2/1 16/2/1 15/2/1
f 18/2/1 16/2/1 17/2/1
f 20/2/1 17/2/1 13/2/1
f 21/2/1 17/2/1 20/2/1
f 22/1/1 19/1/1 18/1/1
f 23/1/1 19/1/1 22/1/1
f 26/2/1 25/2/1 24/2/1
f 28/2/1 26/2/1 24/2/1
f 28/2/1 27/2/1 26/2/1
f 29/2/1 27/2/1 28/2/1
f 31/2/1 28/2/1 24/2/1
f 32/2/1 28/2/1 31/2/1
f 33/2/1 30/2/1 29/2/1
f 34/2/1 30/2/1 33/2/1
f 37/2/1 36/2/1 35/2/1
f 38/2/1 36/2/1 37/2/1
f 40/2/1 39/2/1 38/2/1
f 41/2/1 39/2/1 40/2/1
f 42/1/2 43/1/2 45/1/2
f 44/1/2 45/1/2 46/1/2
f 45/1/2 43/1/2 47/1/2
f 46/1/2 45/1/2 47/1/2
f 48/2/2 49/2/2 52/2/2
f 52/2/2 49/2/2 53/2/2
f 50/1/2 51/1/2 54/1/2
f 53/1/2 54/1/2 55/1/2
f 54/1/2 51/1/2 56/1/2
f 55/1/2 54/1/2 56/1/2
f 57/2/2 58/2/2 61/2/2
f 61/2/2 58/2/2 62/2/2
f 59/2/2 60/2/2 63/2/2
f 62/2/2 63/2/2 64/2/2
f 63/2/2 60/2/2 65/2/2
f 64/2/2 63/2/2 65/2/2
f 65/2/2 60/2/2 66/2/2
f 66/2/2 60/2/2 67/2/2
f 68/2/2 69/2/2 70/2/2
f 68/2/2 70/2/2 72/2/2
f 70/2/2 71/2/2 72/2/2
f 72/2/2 71/2/2 73/2/2
f 73/2/2 71/2/2 74/2/2
f 74/2/2 71/2/2 75/2/2
f 79/2/3 77/2/3 76/2/3
f 80/2/3 77/2/3 79/2/3
f 81/2/3 77/2/3 80/2/3
f 82/2/3 79/2/3 78/2/3
f 82/2/3 80/2/3 79/2/3
f 83/2/3 80/2/3 82/2/3
f 86/2/3 85/2/3 84/2/3
f 87/2/3 85/2/3 86/2/3
f 88/2/3 85/2/3 87/2/3
f 89/2/3 85/2/3 88/2/3
f 91/2/3 88/2/3 87/2/3
f 92/2/3 88/2/3 91/2/3
f 93/2/3 91/2/3 90/2/3
f 94/2/3 91/2/3 93/2/3
f 97/1/3 96/1/3 95/1/3
f 98/1/3 96/1/3 97/1/3
f 100/1/3 96/1/3 98/1/3
f 101/1/3 96/1/3 100/1/3
f 102/2/3 100/2/3 99/2/3
f 103/2/3 100/2/3 102/2/3
f 106/1/3 105/1/3 104/1/3
f 107/1/3 105/1/3 106/1/3
f 108/1/3 105/1/3 107/1/3
f 109/1/3 105/1/3 108/1/3
f 110/2/4 111/2/4 113/2/4
f 113/2/4 111/2/4 114/2/4
f 112/2/4 113/2/4 115/2/4
f 115/2/4 113/2/4 116/2/4
f 117/2/4 118/2/4 120/2/4
f 120/2/4 118/2/4 121/2/4
f 119/2/4 120/2/4 123/2/4
f 123/2/4 120/2/4 124/2/4
f 122/2/4 123/2/4 126/2/4
f 124/2/4 125/2/4 126/2/4
f 123/2/4 124/2/4 126/2/4
f 126/2/4 125/2/4 127/2/4
f 128/1/4 129/1/4 131/1/4
f 131/1/4 129/1/4 132/1/4
f 130/2/4 131/2/4 134/2/4
f 134/2/4 131/2/4 135/2/4
f 133/2/4 134/2/4 137/2/4
f 135/2/4 136/2/4 137/2/4
f 134/2/4 135/2/4 137/2/4
f 137/2/4 136/2/4 138/2/4
f 139/1/4 140/1/4 142/1/4
f 142/1/4 140/1/4 143/1/4
f 141/1/4 142/1/4 145/1/4
f 143/1/4 144/1/4 145/1/4
f 142/1/4 143/1/4 145/1/4
f 145/1/4 144/1/4 146/1/4
f 147/1/4 148/1/4 149/1/4
f 149/1/4 148/1/4 150/1/4
f 153/2/5 152/2/5 151/2/5
f 154/2/5 152/2/5 153/2/5
f 157/2/5 156/2/5 155/2/5
f 158/2/5 156/2/5 157/2/5
f 160/2/5 159/2/5 158/2/5
f 161/2/5 159/2/5 160/2/5
f 164/2/5 163/2/5 162/2/5
f 165/2/5 163/2/5 164/2/5
f 168/2/5 167/2/5 166/2/5
f 169/2/5 167/2/5 168/2/5
f 171/2/5 170/2/5 169/2/5
f 172/2/5 170/2/5 171/2/5
f 175/2/5 174/2/5 173/2/5
f 176/2/5 174/2/5 175/2/5
f 179/1/5 178/1/5 177/1/5
f 180/1/5 178/1/5 179/1/5
f 182/1/5 181/1/5 180/1/5
f 183/1/5 181/1/5 182/1/5
f 186/1/5 185/1/5 184/1/5
f 187/1/5 185/1/5 186/1/5
f 190/1/5 189/1/5 188/1/5
f 192/1/5 190/1/5 188/1/5
f 192/1/5 191/1/5 190/1/5
f 193/1/5 191/1/5 192/1/5
f 194/2/6 195/2/6 196/2/6
f 196/2/6 195/2/6 197/2/6
f 198/2/6 199/2/6 200/2/6
f 200/2/6 199/2/6 201/2/6
f 201/2/6 202/2/6 203/2/6
f 203/2/6 202/2/6 204/2/6
f 205/2/6 206/2/6 207/2/6
f 207/2/6 206/2/6 208/2/6
f 209/2/6 210/2/6 211/2/6
f 211/2/6 210/2/6 212/2/6
f 212/2/6 213/2/6 214/2/6
f 214/2/6 213/2/6 215/2/6
f 216/1/6 217/1/6 218/1/6
f 218/1/6 217/1/6 219/1/6
f 219/1/6 217/1/6 220/1/6
f 220/1/6 217/1/6 221/1/6
f 222/1/6 223/1/6 224/1/6
f 224/1/6 223/1/6 225/1/6
