# MagicaVoxel @ Ephtracy

# group
o 

# material
mtllib Enemy1-13.mtl
usemtl palette

# normals
vn -1 0 0
vn 1 0 0
vn 0 0 1
vn 0 0 -1
vn 0 -1 0
vn 0 1 0

# texcoords
vt 0.173828 0.5
vt 0.177734 0.5

# verts
v 0.1 0.8 0.3
v 0.1 0.8 0.2
v 0.1 0.9 0.3
v 0.1 0.9 0.2
v 0.2 0.7 0.4
v 0.2 0.7 0.2
v 0.2 0.8 0.4
v 0.2 0.8 0.3
v 0.2 0.8 0.2
v 0.2 0.8 0.1
v 0.2 0.9 0.2
v 0.2 0.9 0.1
v 0.4 0.7 0.2
v 0.4 0.7 0.1
v 0.4 0.8 0.2
v 0.4 0.8 0.1
v 0.4 0.7 0.4
v 0.4 0.7 0.3
v 0.4 0.8 0.4
v 0.4 0.8 0.3
v 0.5 0.8 0.3
v 0.5 0.8 0.2
v 0.5 0.8 0.1
v 0.5 0.9 0.3
v 0.5 0.9 0.2
v 0.5 0.9 0.1
v 0.6 0.7 0.3
v 0.6 0.7 0.2
v 0.6 0.8 0.3
v 0.6 0.8 0.2
v 0.7 0.7 0.2
v 0.7 0.7 0.1
v 0.7 0.8 0.2
v 0.7 0.8 0.1
v 0.2 0.7 0.4
v 0.2 0.8 0.4
v 0.4 0.7 0.4
v 0.4 0.8 0.4
v 0.1 0.8 0.3
v 0.1 0.9 0.3
v 0.2 0.8 0.3
v 0.4 0.7 0.3
v 0.4 0.8 0.3
v 0.5 0.8 0.3
v 0.5 0.9 0.3
v 0.6 0.7 0.3
v 0.6 0.8 0.3
v 0.6 0.7 0.2
v 0.6 0.8 0.2
v 0.7 0.7 0.2
v 0.7 0.8 0.2
v 0.1 0.8 0.2
v 0.1 0.9 0.2
v 0.2 0.7 0.2
v 0.2 0.8 0.2
v 0.2 0.9 0.2
v 0.3 0.8 0.2
v 0.4 0.7 0.2
v 0.4 0.8 0.2
v 0.2 0.8 0.1
v 0.2 0.9 0.1
v 0.3 0.8 0.1
v 0.3 0.9 0.1
v 0.4 0.7 0.1
v 0.4 0.8 0.1
v 0.5 0.8 0.1
v 0.5 0.9 0.1
v 0.7 0.7 0.1
v 0.7 0.8 0.1
v 0.2 0.7 0.4
v 0.4 0.7 0.4
v 0.4 0.7 0.3
v 0.6 0.7 0.3
v 0.2 0.7 0.2
v 0.4 0.7 0.2
v 0.6 0.7 0.2
v 0.7 0.7 0.2
v 0.4 0.7 0.1
v 0.7 0.7 0.1
v 0.1 0.8 0.3
v 0.2 0.8 0.3
v 0.1 0.8 0.2
v 0.2 0.8 0.2
v 0.3 0.8 0.2
v 0.4 0.8 0.2
v 0.2 0.8 0.1
v 0.3 0.8 0.1
v 0.4 0.8 0.1
v 0.2 0.8 0.4
v 0.4 0.8 0.4
v 0.2 0.8 0.3
v 0.4 0.8 0.3
v 0.5 0.8 0.3
v 0.6 0.8 0.3
v 0.5 0.8 0.2
v 0.6 0.8 0.2
v 0.7 0.8 0.2
v 0.5 0.8 0.1
v 0.7 0.8 0.1
v 0.1 0.9 0.3
v 0.5 0.9 0.3
v 0.1 0.9 0.2
v 0.2 0.9 0.2
v 0.3 0.9 0.2
v 0.5 0.9 0.2
v 0.2 0.9 0.1
v 0.3 0.9 0.1
v 0.5 0.9 0.1

# faces
f 3/1/1 2/1/1 1/1/1
f 4/1/1 2/1/1 3/1/1
f 7/1/1 6/1/1 5/1/1
f 8/1/1 6/1/1 7/1/1
f 9/1/1 6/1/1 8/1/1
f 11/1/1 10/1/1 9/1/1
f 12/1/1 10/1/1 11/1/1
f 15/2/1 14/2/1 13/2/1
f 16/2/1 14/2/1 15/2/1
f 17/1/2 18/1/2 19/1/2
f 19/1/2 18/1/2 20/1/2
f 21/1/2 22/1/2 24/1/2
f 22/2/2 23/2/2 25/2/2
f 24/1/2 22/1/2 25/1/2
f 25/2/2 23/2/2 26/2/2
f 27/1/2 28/1/2 29/1/2
f 29/1/2 28/1/2 30/1/2
f 31/2/2 32/2/2 33/2/2
f 33/2/2 32/2/2 34/2/2
f 37/1/3 36/1/3 35/1/3
f 38/1/3 36/1/3 37/1/3
f 41/1/3 40/1/3 39/1/3
f 43/1/3 40/1/3 41/1/3
f 44/1/3 40/1/3 43/1/3
f 44/1/3 43/1/3 42/1/3
f 45/1/3 40/1/3 44/1/3
f 46/1/3 44/1/3 42/1/3
f 47/1/3 44/1/3 46/1/3
f 50/2/3 49/2/3 48/2/3
f 51/2/3 49/2/3 50/2/3
f 52/1/4 53/1/4 55/1/4
f 55/1/4 53/1/4 56/1/4
f 54/1/4 55/1/4 57/1/4
f 54/1/4 57/1/4 58/1/4
f 58/1/4 57/1/4 59/1/4
f 60/1/4 61/1/4 62/1/4
f 62/1/4 61/1/4 63/1/4
f 62/2/4 63/2/4 65/2/4
f 65/2/4 63/2/4 66/2/4
f 64/2/4 65/2/4 66/2/4
f 66/2/4 63/2/4 67/2/4
f 64/2/4 66/2/4 68/2/4
f 68/2/4 66/2/4 69/2/4
f 72/1/5 71/1/5 70/1/5
f 74/1/5 72/1/5 70/1/5
f 74/1/5 73/1/5 72/1/5
f 75/1/5 73/1/5 74/1/5
f 76/1/5 73/1/5 75/1/5
f 78/2/5 77/2/5 76/2/5
f 78/2/5 76/2/5 75/2/5
f 79/2/5 77/2/5 78/2/5
f 82/1/5 81/1/5 80/1/5
f 83/1/5 81/1/5 82/1/5
f 86/1/5 84/1/5 83/1/5
f 87/2/5 85/2/5 84/2/5
f 87/1/5 84/1/5 86/1/5
f 88/2/5 85/2/5 87/2/5
f 89/1/6 90/1/6 91/1/6
f 91/1/6 90/1/6 92/1/6
f 93/1/6 94/1/6 95/1/6
f 95/1/6 94/1/6 96/1/6
f 95/2/6 96/2/6 98/2/6
f 96/2/6 97/2/6 98/2/6
f 98/2/6 97/2/6 99/2/6
f 100/1/6 101/1/6 102/1/6
f 102/1/6 101/1/6 103/1/6
f 103/1/6 101/1/6 104/1/6
f 104/1/6 101/1/6 105/1/6
f 103/1/6 104/1/6 106/1/6
f 104/2/6 105/2/6 107/2/6
f 106/1/6 104/1/6 107/1/6
f 107/2/6 105/2/6 108/2/6
