# MagicaVoxel @ Ephtracy

# group
o 

# material
mtllib Enemy1-14.mtl
usemtl palette

# normals
vn -1 0 0
vn 1 0 0
vn 0 0 1
vn 0 0 -1
vn 0 -1 0
vn 0 1 0

# texcoords
vt 0.166016 0.5
vt 0.169922 0.5
vt 0.173828 0.5
vt 0.177734 0.5

# verts
v -0.9 0.8 0.2
v -0.9 0.8 -0.1
v -0.9 0.9 0.4
v -0.9 0.9 0.3
v -0.9 0.9 0.2
v -0.9 0.9 -0.1
v -0.9 0.9 -0.2
v -0.9 0.9 -0.3
v -0.9 1 0.4
v -0.9 1 0.3
v -0.9 1 0.2
v -0.9 1 0.1
v -0.9 1 0
v -0.9 1 -0.1
v -0.9 1 -0.2
v -0.9 1 -0.3
v -0.9 1.1 0.3
v -0.9 1.1 0.1
v -0.9 1.1 0
v -0.9 1.1 -0.2
v -0.8 0.7 0.4
v -0.8 0.7 -0.3
v -0.8 0.8 0.4
v -0.8 0.8 0.3
v -0.8 0.8 0.2
v -0.8 0.8 -0.1
v -0.8 0.8 -0.2
v -0.8 0.8 -0.3
v -0.8 0.9 0.4
v -0.8 0.9 0.3
v -0.8 0.9 0.2
v -0.8 0.9 -0.1
v -0.8 0.9 -0.2
v -0.8 0.9 -0.3
v -0.8 1 0.5
v -0.8 1 0.4
v -0.8 1 0.3
v -0.8 1 -0.2
v -0.8 1 -0.3
v -0.8 1 -0.4
v -0.8 1.1 0.5
v -0.8 1.1 0.4
v -0.8 1.1 0.3
v -0.8 1.1 0.1
v -0.8 1.1 0
v -0.8 1.1 -0.2
v -0.8 1.1 -0.3
v -0.8 1.1 -0.4
v -0.8 1.2 0.4
v -0.8 1.2 0.1
v -0.8 1.2 0
v -0.8 1.2 -0.3
v -0.7 0.9 0.5
v -0.7 0.9 0.4
v -0.7 0.9 -0.3
v -0.7 0.9 -0.4
v -0.7 1 0.5
v -0.7 1 0.4
v -0.7 1 -0.3
v -0.7 1 -0.4
v -0.7 1.1 0.5
v -0.7 1.1 0.4
v -0.7 1.1 -0.3
v -0.7 1.1 -0.4
v -0.7 1.2 0.5
v -0.7 1.2 0.4
v -0.7 1.2 -0.3
v -0.7 1.2 -0.4
v -0.6 0.6 0.2
v -0.6 0.6 -0.1
v -0.6 0.7 0.2
v -0.6 0.7 -0.1
v -0.6 0.8 0.5
v -0.6 0.8 0.4
v -0.6 0.8 -0.3
v -0.6 0.8 -0.4
v -0.6 0.9 0.5
v -0.6 0.9 0.4
v -0.6 0.9 -0.3
v -0.6 0.9 -0.4
v -0.5 0.6 0.3
v -0.5 0.6 0.2
v -0.5 0.6 -0.1
v -0.5 0.6 -0.2
v -0.5 0.7 0.5
v -0.5 0.7 0.4
v -0.5 0.7 0.3
v -0.5 0.7 0.2
v -0.5 0.7 -0.1
v -0.5 0.7 -0.2
v -0.5 0.7 -0.3
v -0.5 0.7 -0.4
v -0.5 0.8 0.5
v -0.5 0.8 0.4
v -0.5 0.8 -0.3
v -0.5 0.8 -0.4
v -0.2 0.6 0.4
v -0.2 0.6 0.3
v -0.2 0.6 -0.2
v -0.2 0.6 -0.3
v -0.2 0.7 0.4
v -0.2 0.7 0.3
v -0.2 0.7 -0.2
v -0.2 0.7 -0.3
v -0.1 0.7 0.5
v -0.1 0.7 0.4
v -0.1 0.7 -0.3
v -0.1 0.7 -0.4
v -0.1 0.8 0.5
v -0.1 0.8 0.4
v -0.1 0.8 -0.3
v -0.1 0.8 -0.4
v -0.4 0.7 0.5
v -0.4 0.7 0.4
v -0.4 0.7 -0.3
v -0.4 0.7 -0.4
v -0.4 0.8 0.5
v -0.4 0.8 0.4
v -0.4 0.8 -0.3
v -0.4 0.8 -0.4
v -0.4 1.1 0.5
v -0.4 1.1 0.4
v -0.4 1.1 0.1
v -0.4 1.1 0
v -0.4 1.1 -0.3
v -0.4 1.1 -0.4
v -0.4 1.2 0.5
v -0.4 1.2 0.4
v -0.4 1.2 0.1
v -0.4 1.2 0
v -0.4 1.2 -0.3
v -0.4 1.2 -0.4
v -0.3 1.1 0.4
v -0.3 1.1 0.3
v -0.3 1.1 0.1
v -0.3 1.1 0
v -0.3 1.1 -0.2
v -0.3 1.1 -0.3
v -0.3 1.2 0.4
v -0.3 1.2 0.1
v -0.3 1.2 0
v -0.3 1.2 -0.3
v 0.1 0.6 0.4
v 0.1 0.6 0.3
v 0.1 0.6 -0.2
v 0.1 0.6 -0.3
v 0.1 0.7 0.5
v 0.1 0.7 0.4
v 0.1 0.7 0.3
v 0.1 0.7 -0.2
v 0.1 0.7 -0.3
v 0.1 0.7 -0.4
v 0.1 0.8 0.5
v 0.1 0.8 0.4
v 0.1 0.8 -0.3
v 0.1 0.8 -0.4
v 0.1 1 0.5
v 0.1 1 0.4
v 0.1 1 0.2
v 0.1 1 -0.1
v 0.1 1 -0.3
v 0.1 1 -0.4
v 0.1 1.1 0.5
v 0.1 1.1 0.2
v 0.1 1.1 -0.1
v 0.1 1.1 -0.4
v 0.2 0.6 0.3
v 0.2 0.6 0.2
v 0.2 0.6 -0.1
v 0.2 0.6 -0.2
v 0.2 0.7 0.4
v 0.2 0.7 0.3
v 0.2 0.7 0.2
v 0.2 0.7 -0.1
v 0.2 0.7 -0.2
v 0.2 0.7 -0.3
v 0.2 0.8 0.5
v 0.2 0.8 0.4
v 0.2 0.8 0.3
v 0.2 0.8 -0.2
v 0.2 0.8 -0.3
v 0.2 0.8 -0.4
v 0.2 0.9 0.5
v 0.2 0.9 0.4
v 0.2 0.9 0.3
v 0.2 0.9 0.2
v 0.2 0.9 -0.1
v 0.2 0.9 -0.2
v 0.2 0.9 -0.3
v 0.2 0.9 -0.4
v 0.2 1 0.4
v 0.2 1 0.2
v 0.2 1 -0.1
v 0.2 1 -0.3
v 0.2 1.1 0.2
v 0.2 1.1 -0.1
v 0.3 0.7 0.3
v 0.3 0.7 0.2
v 0.3 0.7 -0.1
v 0.3 0.7 -0.2
v 0.3 0.8 0.4
v 0.3 0.8 0.3
v 0.3 0.8 0.2
v 0.3 0.8 -0.1
v 0.3 0.8 -0.2
v 0.3 0.8 -0.3
v 0.3 0.9 0.5
v 0.3 0.9 0.4
v 0.3 0.9 0.3
v 0.3 0.9 0.2
v 0.3 0.9 -0.1
v 0.3 0.9 -0.2
v 0.3 0.9 -0.3
v 0.3 0.9 -0.4
v 0.3 1 0.5
v 0.3 1 0.4
v 0.3 1 0.2
v 0.3 1 -0.1
v 0.3 1 -0.3
v 0.3 1 -0.4
v -0.8 1 0.5
v -0.8 1.1 0.5
v -0.7 0.9 0.5
v -0.7 1 0.5
v -0.7 1.1 0.5
v -0.7 1.2 0.5
v -0.6 0.8 0.5
v -0.6 0.9 0.5
v -0.5 0.7 0.5
v -0.5 0.8 0.5
v -0.5 1 0.5
v -0.5 1.1 0.5
v -0.4 0.7 0.5
v -0.4 0.8 0.5
v -0.4 0.9 0.5
v -0.4 1 0.5
v -0.4 1.1 0.5
v -0.4 1.2 0.5
v -0.1 0.7 0.5
v -0.1 0.8 0.5
v -0.1 0.9 0.5
v -0.1 1 0.5
v 0 0.7 0.5
v 0 0.9 0.5
v 0 1 0.5
v 0.1 0.7 0.5
v 0.1 0.8 0.5
v 0.1 1 0.5
v 0.1 1.1 0.5
v 0.2 0.8 0.5
v 0.2 0.9 0.5
v 0.3 0.9 0.5
v 0.3 1 0.5
v -0.9 0.9 0.4
v -0.9 1 0.4
v -0.8 0.7 0.4
v -0.8 0.8 0.4
v -0.8 0.9 0.4
v -0.8 1 0.4
v -0.8 1.1 0.4
v -0.8 1.2 0.4
v -0.7 0.7 0.4
v -0.7 0.8 0.4
v -0.7 0.9 0.4
v -0.7 1 0.4
v -0.7 1.1 0.4
v -0.7 1.2 0.4
v -0.6 0.7 0.4
v -0.6 0.8 0.4
v -0.6 0.9 0.4
v -0.5 0.7 0.4
v -0.5 0.8 0.4
v -0.4 0.7 0.4
v -0.4 0.8 0.4
v -0.4 1.1 0.4
v -0.4 1.2 0.4
v -0.3 1.1 0.4
v -0.3 1.2 0.4
v -0.2 0.6 0.4
v -0.2 0.7 0.4
v -0.1 0.7 0.4
v -0.1 0.8 0.4
v 0 0.7 0.4
v 0.1 0.6 0.4
v 0.1 0.7 0.4
v 0.1 0.8 0.4
v 0.2 0.7 0.4
v 0.2 0.8 0.4
v 0.2 0.9 0.4
v 0.3 0.8 0.4
v 0.3 0.9 0.4
v -0.9 1 0.3
v -0.9 1.1 0.3
v -0.8 1 0.3
v -0.8 1.1 0.3
v -0.5 0.6 0.3
v -0.5 0.7 0.3
v -0.4 0.7 0.3
v -0.2 0.6 0.3
v -0.2 0.7 0.3
v 0.1 0.6 0.3
v 0.1 0.7 0.3
v 0.2 0.6 0.3
v 0.2 0.7 0.3
v 0.2 0.8 0.3
v 0.3 0.7 0.3
v 0.3 0.8 0.3
v -0.9 0.8 0.2
v -0.9 0.9 0.2
v -0.8 0.8 0.2
v -0.8 0.9 0.2
v -0.6 0.6 0.2
v -0.6 0.7 0.2
v -0.5 0.6 0.2
v -0.5 0.7 0.2
v 0.1 1 0.2
v 0.1 1.1 0.2
v 0.2 0.9 0.2
v 0.2 1 0.2
v 0.2 1.1 0.2
v 0.3 0.9 0.2
v 0.3 1 0.2
v -0.4 1.1 0
v -0.4 1.2 0
v -0.3 1.1 0
v -0.3 1.2 0
v 0.2 0.9 -0.3
v 0.2 1 -0.3
v 0.3 0.9 -0.3
v 0.3 1 -0.3
v 0.2 0.9 0.4
v 0.2 1 0.4
v 0.3 0.9 0.4
v 0.3 1 0.4
v -0.4 1.1 0.1
v -0.4 1.2 0.1
v -0.3 1.1 0.1
v -0.3 1.2 0.1
v -0.9 0.8 -0.1
v -0.9 0.9 -0.1
v -0.8 0.8 -0.1
v -0.8 0.9 -0.1
v -0.6 0.6 -0.1
v -0.6 0.7 -0.1
v -0.5 0.6 -0.1
v -0.5 0.7 -0.1
v 0.1 1 -0.1
v 0.1 1.1 -0.1
v 0.2 0.9 -0.1
v 0.2 1 -0.1
v 0.2 1.1 -0.1
v 0.3 0.9 -0.1
v 0.3 1 -0.1
v -0.9 1 -0.2
v -0.9 1.1 -0.2
v -0.8 1 -0.2
v -0.8 1.1 -0.2
v -0.5 0.6 -0.2
v -0.5 0.7 -0.2
v -0.4 0.7 -0.2
v -0.2 0.6 -0.2
v -0.2 0.7 -0.2
v 0.1 0.6 -0.2
v 0.1 0.7 -0.2
v 0.2 0.6 -0.2
v 0.2 0.7 -0.2
v 0.2 0.8 -0.2
v 0.3 0.7 -0.2
v 0.3 0.8 -0.2
v -0.9 0.9 -0.3
v -0.9 1 -0.3
v -0.8 0.7 -0.3
v -0.8 0.8 -0.3
v -0.8 0.9 -0.3
v -0.8 1 -0.3
v -0.8 1.1 -0.3
v -0.8 1.2 -0.3
v -0.7 0.7 -0.3
v -0.7 0.8 -0.3
v -0.7 0.9 -0.3
v -0.7 1 -0.3
v -0.7 1.1 -0.3
v -0.7 1.2 -0.3
v -0.6 0.7 -0.3
v -0.6 0.8 -0.3
v -0.6 0.9 -0.3
v -0.5 0.7 -0.3
v -0.5 0.8 -0.3
v -0.4 0.7 -0.3
v -0.4 0.8 -0.3
v -0.4 1.1 -0.3
v -0.4 1.2 -0.3
v -0.3 1.1 -0.3
v -0.3 1.2 -0.3
v -0.2 0.6 -0.3
v -0.2 0.7 -0.3
v -0.1 0.7 -0.3
v -0.1 0.8 -0.3
v 0 0.7 -0.3
v 0.1 0.6 -0.3
v 0.1 0.7 -0.3
v 0.1 0.8 -0.3
v 0.2 0.7 -0.3
v 0.2 0.8 -0.3
v 0.2 0.9 -0.3
v 0.3 0.8 -0.3
v 0.3 0.9 -0.3
v -0.8 1 -0.4
v -0.8 1.1 -0.4
v -0.7 0.9 -0.4
v -0.7 1 -0.4
v -0.7 1.1 -0.4
v -0.7 1.2 -0.4
v -0.6 0.8 -0.4
v -0.6 0.9 -0.4
v -0.5 0.7 -0.4
v -0.5 0.8 -0.4
v -0.5 1 -0.4
v -0.5 1.1 -0.4
v -0.4 0.7 -0.4
v -0.4 0.8 -0.4
v -0.4 0.9 -0.4
v -0.4 1 -0.4
v -0.4 1.1 -0.4
v -0.4 1.2 -0.4
v -0.1 0.7 -0.4
v -0.1 0.8 -0.4
v -0.1 0.9 -0.4
v -0.1 1 -0.4
v 0 0.7 -0.4
v 0 0.9 -0.4
v 0 1 -0.4
v 0.1 0.7 -0.4
v 0.1 0.8 -0.4
v 0.1 1 -0.4
v 0.1 1.1 -0.4
v 0.2 0.8 -0.4
v 0.2 0.9 -0.4
v 0.3 0.9 -0.4
v 0.3 1 -0.4
v -0.2 0.6 0.4
v 0.1 0.6 0.4
v -0.5 0.6 0.3
v -0.2 0.6 0.3
v 0.1 0.6 0.3
v 0.2 0.6 0.3
v -0.6 0.6 0.2
v -0.5 0.6 0.2
v -0.3 0.6 0.2
v 0.2 0.6 0.2
v -0.4 0.6 0.1
v -0.3 0.6 0.1
v -0.4 0.6 0
v -0.3 0.6 0
v -0.6 0.6 -0.1
v -0.5 0.6 -0.1
v -0.3 0.6 -0.1
v 0.2 0.6 -0.1
v -0.5 0.6 -0.2
v -0.2 0.6 -0.2
v 0.1 0.6 -0.2
v 0.2 0.6 -0.2
v -0.2 0.6 -0.3
v 0.1 0.6 -0.3
v -0.5 0.7 0.5
v -0.4 0.7 0.5
v -0.1 0.7 0.5
v 0 0.7 0.5
v 0.1 0.7 0.5
v -0.8 0.7 0.4
v -0.7 0.7 0.4
v -0.6 0.7 0.4
v -0.5 0.7 0.4
v -0.4 0.7 0.4
v -0.2 0.7 0.4
v -0.1 0.7 0.4
v 0 0.7 0.4
v 0.1 0.7 0.4
v 0.2 0.7 0.4
v -0.7 0.7 0.3
v -0.6 0.7 0.3
v -0.5 0.7 0.3
v -0.4 0.7 0.3
v -0.2 0.7 0.3
v 0.1 0.7 0.3
v 0.2 0.7 0.3
v 0.3 0.7 0.3
v -0.6 0.7 0.2
v -0.5 0.7 0.2
v 0.2 0.7 0.2
v 0.3 0.7 0.2
v -0.6 0.7 -0.1
v -0.5 0.7 -0.1
v 0.2 0.7 -0.1
v 0.3 0.7 -0.1
v -0.7 0.7 -0.2
v -0.6 0.7 -0.2
v -0.5 0.7 -0.2
v -0.4 0.7 -0.2
v -0.2 0.7 -0.2
v 0.1 0.7 -0.2
v 0.2 0.7 -0.2
v 0.3 0.7 -0.2
v -0.8 0.7 -0.3
v -0.7 0.7 -0.3
v -0.6 0.7 -0.3
v -0.5 0.7 -0.3
v -0.4 0.7 -0.3
v -0.2 0.7 -0.3
v -0.1 0.7 -0.3
v 0 0.7 -0.3
v 0.1 0.7 -0.3
v 0.2 0.7 -0.3
v -0.5 0.7 -0.4
v -0.4 0.7 -0.4
v -0.1 0.7 -0.4
v 0 0.7 -0.4
v 0.1 0.7 -0.4
v -0.6 0.8 0.5
v -0.5 0.8 0.5
v -0.4 0.8 0.5
v -0.1 0.8 0.5
v 0.1 0.8 0.5
v 0.2 0.8 0.5
v -0.6 0.8 0.4
v -0.5 0.8 0.4
v -0.4 0.8 0.4
v -0.1 0.8 0.4
v 0.1 0.8 0.4
v 0.2 0.8 0.4
v 0.3 0.8 0.4
v 0.2 0.8 0.3
v 0.3 0.8 0.3
v -0.9 0.8 0.2
v -0.8 0.8 0.2
v -0.9 0.8 -0.1
v -0.8 0.8 -0.1
v 0.2 0.8 -0.2
v 0.3 0.8 -0.2
v -0.6 0.8 -0.3
v -0.5 0.8 -0.3
v -0.4 0.8 -0.3
v -0.1 0.8 -0.3
v 0.1 0.8 -0.3
v 0.2 0.8 -0.3
v 0.3 0.8 -0.3
v -0.6 0.8 -0.4
v -0.5 0.8 -0.4
v -0.4 0.8 -0.4
v -0.1 0.8 -0.4
v 0.1 0.8 -0.4
v 0.2 0.8 -0.4
v -0.7 0.9 0.5
v -0.6 0.9 0.5
v 0.2 0.9 0.5
v 0.3 0.9 0.5
v -0.9 0.9 0.4
v -0.8 0.9 0.4
v -0.7 0.9 0.4
v -0.6 0.9 0.4
v 0.2 0.9 0.4
v 0.3 0.9 0.4
v -0.9 0.9 0.3
v -0.8 0.9 0.3
v -0.9 0.9 0.2
v -0.8 0.9 0.2
v -0.9 0.9 -0.1
v -0.8 0.9 -0.1
v -0.9 0.9 -0.2
v -0.8 0.9 -0.2
v -0.9 0.9 -0.3
v -0.8 0.9 -0.3
v -0.7 0.9 -0.3
v -0.6 0.9 -0.3
v 0.2 0.9 -0.3
v 0.3 0.9 -0.3
v -0.7 0.9 -0.4
v -0.6 0.9 -0.4
v 0.2 0.9 -0.4
v 0.3 0.9 -0.4
v -0.8 1 0.5
v -0.7 1 0.5
v -0.8 1 0.4
v -0.7 1 0.4
v -0.8 1 -0.3
v -0.7 1 -0.3
v -0.8 1 -0.4
v -0.7 1 -0.4
v 0.2 0.9 0.4
v 0.3 0.9 0.4
v 0.2 0.9 0.3
v 0.3 0.9 0.3
v 0.2 0.9 0.2
v 0.3 0.9 0.2
v 0.2 0.9 -0.1
v 0.3 0.9 -0.1
v 0.2 0.9 -0.2
v 0.3 0.9 -0.2
v 0.2 0.9 -0.3
v 0.3 0.9 -0.3
v 0.1 1 0.5
v 0.3 1 0.5
v -0.9 1 0.4
v -0.8 1 0.4
v 0.1 1 0.4
v 0.2 1 0.4
v 0.3 1 0.4
v -0.9 1 0.3
v -0.8 1 0.3
v 0.1 1 0.2
v 0.2 1 0.2
v 0.3 1 0.2
v 0.1 1 -0.1
v 0.2 1 -0.1
v 0.3 1 -0.1
v -0.9 1 -0.2
v -0.8 1 -0.2
v -0.9 1 -0.3
v -0.8 1 -0.3
v 0.1 1 -0.3
v 0.2 1 -0.3
v 0.3 1 -0.3
v 0.1 1 -0.4
v 0.3 1 -0.4
v -0.8 1.1 0.5
v -0.7 1.1 0.5
v -0.4 1.1 0.5
v 0.1 1.1 0.5
v -0.8 1.1 0.4
v -0.7 1.1 0.4
v -0.4 1.1 0.4
v -0.3 1.1 0.4
v -0.2 1.1 0.4
v -0.1 1.1 0.4
v -0.9 1.1 0.3
v -0.8 1.1 0.3
v -0.3 1.1 0.3
v -0.2 1.1 0.3
v -0.1 1.1 0.3
v 0 1.1 0.3
v 0.1 1.1 0.2
v 0.2 1.1 0.2
v -0.9 1.1 0.1
v -0.8 1.1 0.1
v -0.4 1.1 0.1
v -0.3 1.1 0.1
v -0.9 1.1 0
v -0.8 1.1 0
v -0.4 1.1 0
v -0.3 1.1 0
v 0.1 1.1 -0.1
v 0.2 1.1 -0.1
v -0.9 1.1 -0.2
v -0.8 1.1 -0.2
v -0.3 1.1 -0.2
v -0.2 1.1 -0.2
v -0.1 1.1 -0.2
v 0 1.1 -0.2
v -0.8 1.1 -0.3
v -0.7 1.1 -0.3
v -0.4 1.1 -0.3
v -0.3 1.1 -0.3
v -0.2 1.1 -0.3
v -0.1 1.1 -0.3
v -0.8 1.1 -0.4
v -0.7 1.1 -0.4
v -0.4 1.1 -0.4
v 0.1 1.1 -0.4
v -0.7 1.2 0.5
v -0.4 1.2 0.5
v -0.8 1.2 0.4
v -0.7 1.2 0.4
v -0.5 1.2 0.4
v -0.4 1.2 0.4
v -0.3 1.2 0.4
v -0.5 1.2 0.3
v -0.4 1.2 0.3
v -0.7 1.2 0.2
v -0.4 1.2 0.2
v -0.8 1.2 0.1
v -0.7 1.2 0.1
v -0.4 1.2 0.1
v -0.3 1.2 0.1
v -0.8 1.2 0
v -0.7 1.2 0
v -0.4 1.2 0
v -0.3 1.2 0
v -0.7 1.2 -0.1
v -0.4 1.2 -0.1
v -0.5 1.2 -0.2
v -0.4 1.2 -0.2
v -0.8 1.2 -0.3
v -0.7 1.2 -0.3
v -0.5 1.2 -0.3
v -0.4 1.2 -0.3
v -0.3 1.2 -0.3
v -0.7 1.2 -0.4
v -0.4 1.2 -0.4

# faces
f 5/3/1 2/3/1 1/3/1
f 6/3/1 2/3/1 5/3/1
f 9/3/1 4/3/1 3/3/1
f 10/4/1 5/4/1 4/4/1
f 10/3/1 4/3/1 9/3/1
f 11/3/1 6/3/1 5/3/1
f 11/4/1 5/4/1 10/4/1
f 12/3/1 6/3/1 11/3/1
f 13/3/1 6/3/1 12/3/1
f 14/4/1 7/4/1 6/4/1
f 14/3/1 6/3/1 13/3/1
f 15/3/1 8/3/1 7/3/1
f 15/4/1 7/4/1 14/4/1
f 16/3/1 8/3/1 15/3/1
f 17/4/1 11/4/1 10/4/1
f 17/4/1 12/4/1 11/4/1
f 18/3/1 13/3/1 12/3/1
f 18/4/1 12/4/1 17/4/1
f 19/4/1 14/4/1 13/4/1
f 19/3/1 13/3/1 18/3/1
f 19/4/1 15/4/1 14/4/1
f 20/4/1 15/4/1 19/4/1
f 23/3/1 22/3/1 21/3/1
f 24/3/1 22/3/1 23/3/1
f 25/3/1 22/3/1 24/3/1
f 26/3/1 22/3/1 25/3/1
f 27/3/1 22/3/1 26/3/1
f 28/3/1 22/3/1 27/3/1
f 29/1/1 24/1/1 23/1/1
f 30/3/1 25/3/1 24/3/1
f 30/1/1 24/1/1 29/1/1
f 31/3/1 25/3/1 30/3/1
f 32/3/1 27/3/1 26/3/1
f 33/1/1 28/1/1 27/1/1
f 33/3/1 27/3/1 32/3/1
f 34/1/1 28/1/1 33/1/1
f 41/2/1 36/2/1 35/2/1
f 42/4/1 37/4/1 36/4/1
f 42/2/1 36/2/1 41/2/1
f 43/4/1 37/4/1 42/4/1
f 46/4/1 39/4/1 38/4/1
f 47/2/1 40/2/1 39/2/1
f 47/4/1 39/4/1 46/4/1
f 48/2/1 40/2/1 47/2/1
f 49/4/1 43/4/1 42/4/1
f 49/4/1 44/4/1 43/4/1
f 50/3/1 45/3/1 44/3/1
f 50/4/1 44/4/1 49/4/1
f 51/4/1 46/4/1 45/4/1
f 51/3/1 45/3/1 50/3/1
f 51/4/1 47/4/1 46/4/1
f 52/4/1 47/4/1 51/4/1
f 57/1/1 54/1/1 53/1/1
f 58/1/1 54/1/1 57/1/1
f 59/1/1 56/1/1 55/1/1
f 60/1/1 56/1/1 59/1/1
f 65/3/1 62/3/1 61/3/1
f 66/3/1 62/3/1 65/3/1
f 67/3/1 64/3/1 63/3/1
f 68/3/1 64/3/1 67/3/1
f 71/3/1 70/3/1 69/3/1
f 72/3/1 70/3/1 71/3/1
f 77/1/1 74/1/1 73/1/1
f 78/1/1 74/1/1 77/1/1
f 79/1/1 76/1/1 75/1/1
f 80/1/1 76/1/1 79/1/1
f 87/3/1 82/3/1 81/3/1
f 88/3/1 82/3/1 87/3/1
f 89/3/1 84/3/1 83/3/1
f 90/3/1 84/3/1 89/3/1
f 93/3/1 86/3/1 85/3/1
f 94/3/1 86/3/1 93/3/1
f 95/3/1 92/3/1 91/3/1
f 96/3/1 92/3/1 95/3/1
f 101/3/1 98/3/1 97/3/1
f 102/3/1 98/3/1 101/3/1
f 103/3/1 100/3/1 99/3/1
f 104/3/1 100/3/1 103/3/1
f 109/3/1 106/3/1 105/3/1
f 110/3/1 106/3/1 109/3/1
f 111/3/1 108/3/1 107/3/1
f 112/3/1 108/3/1 111/3/1
f 113/3/2 114/3/2 117/3/2
f 117/3/2 114/3/2 118/3/2
f 115/3/2 116/3/2 119/3/2
f 119/3/2 116/3/2 120/3/2
f 121/3/2 122/3/2 127/3/2
f 127/3/2 122/3/2 128/3/2
f 123/3/2 124/3/2 129/3/2
f 129/3/2 124/3/2 130/3/2
f 125/3/2 126/3/2 131/3/2
f 131/3/2 126/3/2 132/3/2
f 133/3/2 134/3/2 139/3/2
f 134/3/2 135/3/2 139/3/2
f 139/3/2 135/3/2 140/3/2
f 137/3/2 138/3/2 141/3/2
f 136/3/2 137/3/2 141/3/2
f 141/3/2 138/3/2 142/3/2
f 143/3/2 144/3/2 148/3/2
f 148/3/2 144/3/2 149/3/2
f 145/3/2 146/3/2 150/3/2
f 150/3/2 146/3/2 151/3/2
f 147/1/2 148/1/2 153/1/2
f 153/1/2 148/1/2 154/1/2
f 151/1/2 152/1/2 155/1/2
f 155/1/2 152/1/2 156/1/2
f 157/3/2 158/3/2 163/3/2
f 158/3/2 159/3/2 163/3/2
f 163/3/2 159/3/2 164/3/2
f 161/3/2 162/3/2 165/3/2
f 160/3/2 161/3/2 165/3/2
f 165/3/2 162/3/2 166/3/2
f 167/3/2 168/3/2 172/3/2
f 168/4/2 169/4/2 173/4/2
f 172/3/2 168/3/2 173/3/2
f 169/3/2 170/3/2 174/3/2
f 173/4/2 169/4/2 174/4/2
f 174/3/2 170/3/2 175/3/2
f 171/1/2 172/1/2 178/1/2
f 178/1/2 172/1/2 179/1/2
f 175/1/2 176/1/2 180/1/2
f 180/1/2 176/1/2 181/1/2
f 177/1/2 178/1/2 183/1/2
f 183/1/2 178/1/2 184/1/2
f 181/1/2 182/1/2 189/1/2
f 189/1/2 182/1/2 190/1/2
f 184/1/2 185/1/2 191/1/2
f 185/1/2 186/1/2 191/1/2
f 191/1/2 186/1/2 192/1/2
f 187/1/2 188/1/2 193/1/2
f 188/1/2 189/1/2 193/1/2
f 193/1/2 189/1/2 194/1/2
f 192/3/2 193/3/2 195/3/2
f 195/3/2 193/3/2 196/3/2
f 197/3/2 198/3/2 202/3/2
f 198/4/2 199/4/2 203/4/2
f 202/3/2 198/3/2 203/3/2
f 199/3/2 200/3/2 204/3/2
f 203/4/2 199/4/2 204/4/2
f 204/3/2 200/3/2 205/3/2
f 201/2/2 202/2/2 208/2/2
f 202/3/2 203/3/2 209/3/2
f 203/3/2 204/3/2 209/3/2
f 208/2/2 202/2/2 209/2/2
f 204/3/2 205/3/2 209/3/2
f 209/3/2 205/3/2 210/3/2
f 210/3/2 205/3/2 211/3/2
f 205/2/2 206/2/2 212/2/2
f 211/3/2 205/3/2 212/3/2
f 212/2/2 206/2/2 213/2/2
f 207/2/2 208/2/2 215/2/2
f 215/2/2 208/2/2 216/2/2
f 210/3/2 211/3/2 217/3/2
f 217/3/2 211/3/2 218/3/2
f 213/2/2 214/2/2 219/2/2
f 219/2/2 214/2/2 220/2/2
f 224/2/3 222/2/3 221/2/3
f 225/2/3 222/2/3 224/2/3
f 228/1/3 224/1/3 223/1/3
f 230/1/3 228/1/3 227/1/3
f 231/2/3 225/2/3 224/2/3
f 231/1/3 224/1/3 228/1/3
f 231/1/3 228/1/3 230/1/3
f 232/3/3 226/3/3 225/3/3
f 232/2/3 225/2/3 231/2/3
f 233/3/3 231/3/3 230/3/3
f 233/3/3 230/3/3 229/3/3
f 233/3/3 232/3/3 231/3/3
f 234/3/3 232/3/3 233/3/3
f 235/3/3 232/3/3 234/3/3
f 236/3/3 232/3/3 235/3/3
f 237/3/3 226/3/3 232/3/3
f 237/3/3 232/3/3 236/3/3
f 238/3/3 226/3/3 237/3/3
f 240/1/3 235/1/3 234/1/3
f 241/2/3 236/2/3 235/2/3
f 241/1/3 235/1/3 240/1/3
f 242/3/3 237/3/3 236/3/3
f 242/2/3 236/2/3 241/2/3
f 243/3/3 240/3/3 239/3/3
f 243/3/3 241/3/3 240/3/3
f 243/3/3 242/3/3 241/3/3
f 244/3/3 242/3/3 243/3/3
f 245/3/3 237/3/3 242/3/3
f 245/3/3 242/3/3 244/3/3
f 246/1/3 244/1/3 243/1/3
f 247/1/3 244/1/3 246/1/3
f 248/3/3 237/3/3 245/3/3
f 248/2/3 245/2/3 244/2/3
f 249/3/3 237/3/3 248/3/3
f 250/1/3 244/1/3 247/1/3
f 251/2/3 248/2/3 244/2/3
f 251/1/3 244/1/3 250/1/3
f 252/2/3 248/2/3 251/2/3
f 253/2/3 248/2/3 252/2/3
f 258/3/3 255/3/3 254/3/3
f 259/3/3 255/3/3 258/3/3
f 262/3/3 257/3/3 256/3/3
f 263/1/3 258/1/3 257/1/3
f 263/3/3 257/3/3 262/3/3
f 264/2/3 259/2/3 258/2/3
f 264/1/3 258/1/3 263/1/3
f 265/2/3 259/2/3 264/2/3
f 266/4/3 261/4/3 260/4/3
f 267/4/3 261/4/3 266/4/3
f 268/1/3 263/1/3 262/1/3
f 268/1/3 264/1/3 263/1/3
f 269/1/3 264/1/3 268/1/3
f 270/1/3 264/1/3 269/1/3
f 271/3/3 269/3/3 268/3/3
f 272/3/3 269/3/3 271/3/3
f 277/3/3 276/3/3 275/3/3
f 278/3/3 276/3/3 277/3/3
f 280/1/3 274/1/3 273/1/3
f 281/1/3 274/1/3 280/1/3
f 281/3/3 280/3/3 279/3/3
f 282/1/3 274/1/3 281/1/3
f 283/3/3 281/3/3 279/3/3
f 284/3/3 283/3/3 279/3/3
f 285/3/3 283/3/3 284/3/3
f 287/1/3 286/1/3 285/1/3
f 288/1/3 286/1/3 287/1/3
f 290/2/3 289/2/3 288/2/3
f 291/2/3 289/2/3 290/2/3
f 294/4/3 293/4/3 292/4/3
f 295/4/3 293/4/3 294/4/3
f 298/3/3 297/3/3 296/3/3
f 299/3/3 298/3/3 296/3/3
f 300/3/3 298/3/3 299/3/3
f 303/3/3 302/3/3 301/3/3
f 304/3/3 302/3/3 303/3/3
f 306/3/3 305/3/3 304/3/3
f 307/3/3 305/3/3 306/3/3
f 310/3/3 309/3/3 308/3/3
f 311/3/3 309/3/3 310/3/3
f 314/3/3 313/3/3 312/3/3
f 315/3/3 313/3/3 314/3/3
f 319/3/3 317/3/3 316/3/3
f 320/3/3 317/3/3 319/3/3
f 321/3/3 319/3/3 318/3/3
f 322/3/3 319/3/3 321/3/3
f 325/3/3 324/3/3 323/3/3
f 326/3/3 324/3/3 325/3/3
f 329/2/3 328/2/3 327/2/3
f 330/2/3 328/2/3 329/2/3
f 331/2/4 332/2/4 333/2/4
f 333/2/4 332/2/4 334/2/4
f 335/3/4 336/3/4 337/3/4
f 337/3/4 336/3/4 338/3/4
f 339/3/4 340/3/4 341/3/4
f 341/3/4 340/3/4 342/3/4
f 343/3/4 344/3/4 345/3/4
f 345/3/4 344/3/4 346/3/4
f 347/3/4 348/3/4 350/3/4
f 350/3/4 348/3/4 351/3/4
f 349/3/4 350/3/4 352/3/4
f 352/3/4 350/3/4 353/3/4
f 354/4/4 355/4/4 356/4/4
f 356/4/4 355/4/4 357/4/4
f 358/3/4 359/3/4 360/3/4
f 358/3/4 360/3/4 361/3/4
f 361/3/4 360/3/4 362/3/4
f 363/3/4 364/3/4 365/3/4
f 365/3/4 364/3/4 366/3/4
f 366/3/4 367/3/4 368/3/4
f 368/3/4 367/3/4 369/3/4
f 370/3/4 371/3/4 374/3/4
f 374/3/4 371/3/4 375/3/4
f 372/3/4 373/3/4 378/3/4
f 373/1/4 374/1/4 379/1/4
f 378/3/4 373/3/4 379/3/4
f 374/2/4 375/2/4 380/2/4
f 379/1/4 374/1/4 380/1/4
f 380/2/4 375/2/4 381/2/4
f 376/4/4 377/4/4 382/4/4
f 382/4/4 377/4/4 383/4/4
f 378/1/4 379/1/4 384/1/4
f 379/1/4 380/1/4 384/1/4
f 384/1/4 380/1/4 385/1/4
f 385/1/4 380/1/4 386/1/4
f 384/3/4 385/3/4 387/3/4
f 387/3/4 385/3/4 388/3/4
f 391/3/4 392/3/4 393/3/4
f 393/3/4 392/3/4 394/3/4
f 389/1/4 390/1/4 396/1/4
f 396/1/4 390/1/4 397/1/4
f 395/3/4 396/3/4 397/3/4
f 397/1/4 390/1/4 398/1/4
f 395/3/4 397/3/4 399/3/4
f 395/3/4 399/3/4 400/3/4
f 400/3/4 399/3/4 401/3/4
f 401/1/4 402/1/4 403/1/4
f 403/1/4 402/1/4 404/1/4
f 404/2/4 405/2/4 406/2/4
f 406/2/4 405/2/4 407/2/4
f 408/2/4 409/2/4 411/2/4
f 411/2/4 409/2/4 412/2/4
f 410/1/4 411/1/4 415/1/4
f 414/1/4 415/1/4 417/1/4
f 411/2/4 412/2/4 418/2/4
f 415/1/4 411/1/4 418/1/4
f 417/1/4 415/1/4 418/1/4
f 412/3/4 413/3/4 419/3/4
f 418/2/4 412/2/4 419/2/4
f 417/3/4 418/3/4 420/3/4
f 416/3/4 417/3/4 420/3/4
f 418/3/4 419/3/4 420/3/4
f 420/3/4 419/3/4 421/3/4
f 421/3/4 419/3/4 422/3/4
f 422/3/4 419/3/4 423/3/4
f 419/3/4 413/3/4 424/3/4
f 423/3/4 419/3/4 424/3/4
f 424/3/4 413/3/4 425/3/4
f 421/1/4 422/1/4 427/1/4
f 422/2/4 423/2/4 428/2/4
f 427/1/4 422/1/4 428/1/4
f 423/3/4 424/3/4 429/3/4
f 428/2/4 423/2/4 429/2/4
f 426/3/4 427/3/4 430/3/4
f 427/3/4 428/3/4 430/3/4
f 428/3/4 429/3/4 430/3/4
f 430/3/4 429/3/4 431/3/4
f 429/3/4 424/3/4 432/3/4
f 431/3/4 429/3/4 432/3/4
f 430/1/4 431/1/4 433/1/4
f 433/1/4 431/1/4 434/1/4
f 432/3/4 424/3/4 435/3/4
f 431/2/4 432/2/4 435/2/4
f 435/3/4 424/3/4 436/3/4
f 434/1/4 431/1/4 437/1/4
f 431/2/4 435/2/4 438/2/4
f 437/1/4 431/1/4 438/1/4
f 438/2/4 435/2/4 439/2/4
f 439/2/4 435/2/4 440/2/4
f 444/3/5 442/3/5 441/3/5
f 445/3/5 442/3/5 444/3/5
f 448/3/5 444/3/5 443/3/5
f 448/3/5 446/3/5 445/3/5
f 448/3/5 445/3/5 444/3/5
f 449/3/5 446/3/5 448/3/5
f 450/3/5 446/3/5 449/3/5
f 451/3/5 448/3/5 447/3/5
f 451/3/5 449/3/5 448/3/5
f 452/4/5 450/4/5 449/4/5
f 452/3/5 449/3/5 451/3/5
f 453/3/5 451/3/5 447/3/5
f 453/4/5 452/4/5 451/4/5
f 454/4/5 450/4/5 452/4/5
f 454/4/5 452/4/5 453/4/5
f 455/3/5 453/3/5 447/3/5
f 455/3/5 454/3/5 453/3/5
f 456/3/5 454/3/5 455/3/5
f 457/4/5 450/4/5 454/4/5
f 457/3/5 454/3/5 456/3/5
f 458/4/5 450/4/5 457/4/5
f 459/3/5 457/3/5 456/3/5
f 459/3/5 458/3/5 457/3/5
f 460/3/5 458/3/5 459/3/5
f 461/3/5 458/3/5 460/3/5
f 462/3/5 458/3/5 461/3/5
f 463/3/5 461/3/5 460/3/5
f 464/3/5 461/3/5 463/3/5
f 473/3/5 466/3/5 465/3/5
f 474/3/5 466/3/5 473/3/5
f 476/3/5 468/3/5 467/3/5
f 477/1/5 469/1/5 468/1/5
f 477/3/5 468/3/5 476/3/5
f 478/1/5 469/1/5 477/1/5
f 480/1/5 472/1/5 471/1/5
f 480/3/5 471/3/5 470/3/5
f 481/3/5 474/3/5 473/3/5
f 481/1/5 472/1/5 480/1/5
f 481/3/5 473/3/5 472/3/5
f 482/3/5 474/3/5 481/3/5
f 483/1/5 475/1/5 474/1/5
f 483/3/5 474/3/5 482/3/5
f 484/1/5 475/1/5 483/1/5
f 485/1/5 479/1/5 478/1/5
f 486/1/5 479/1/5 485/1/5
f 488/3/5 482/3/5 481/3/5
f 488/3/5 481/3/5 480/3/5
f 489/3/5 482/3/5 488/3/5
f 490/3/5 487/3/5 486/3/5
f 491/3/5 487/3/5 490/3/5
f 492/3/5 488/3/5 480/3/5
f 494/4/5 491/4/5 490/4/5
f 495/4/5 491/4/5 494/4/5
f 496/3/5 480/3/5 470/3/5
f 496/3/5 493/3/5 492/3/5
f 496/3/5 492/3/5 480/3/5
f 497/3/5 493/3/5 496/3/5
f 498/3/5 493/3/5 497/3/5
f 502/3/5 495/3/5 494/3/5
f 503/3/5 495/3/5 502/3/5
f 504/3/5 496/3/5 470/3/5
f 505/1/5 497/1/5 496/1/5
f 505/3/5 496/3/5 504/3/5
f 506/3/5 498/3/5 497/3/5
f 506/1/5 497/1/5 505/1/5
f 506/3/5 499/3/5 498/3/5
f 507/3/5 499/3/5 506/3/5
f 508/1/5 500/1/5 499/1/5
f 508/3/5 499/3/5 507/3/5
f 509/1/5 500/1/5 508/1/5
f 512/1/5 502/1/5 501/1/5
f 513/1/5 502/1/5 512/1/5
f 514/3/5 508/3/5 507/3/5
f 515/3/5 508/3/5 514/3/5
f 516/3/5 511/3/5 510/3/5
f 517/1/5 512/1/5 511/1/5
f 517/3/5 511/3/5 516/3/5
f 518/1/5 512/1/5 517/1/5
f 525/1/5 520/1/5 519/1/5
f 526/1/5 520/1/5 525/1/5
f 527/1/5 522/1/5 521/1/5
f 528/1/5 522/1/5 527/1/5
f 529/1/5 524/1/5 523/1/5
f 530/1/5 524/1/5 529/1/5
f 532/2/5 531/2/5 530/2/5
f 533/2/5 531/2/5 532/2/5
f 536/3/5 535/3/5 534/3/5
f 537/3/5 535/3/5 536/3/5
f 545/2/5 539/2/5 538/2/5
f 546/2/5 539/2/5 545/2/5
f 547/1/5 541/1/5 540/1/5
f 548/1/5 541/1/5 547/1/5
f 549/1/5 543/1/5 542/1/5
f 550/1/5 543/1/5 549/1/5
f 551/1/5 545/1/5 544/1/5
f 552/1/5 545/1/5 551/1/5
f 559/1/5 554/1/5 553/1/5
f 560/1/5 554/1/5 559/1/5
f 561/2/5 556/2/5 555/2/5
f 562/2/5 556/2/5 561/2/5
f 563/3/5 558/3/5 557/3/5
f 564/3/5 558/3/5 563/3/5
f 565/4/5 564/4/5 563/4/5
f 566/4/5 564/4/5 565/4/5
f 569/4/5 568/4/5 567/4/5
f 570/4/5 568/4/5 569/4/5
f 571/3/5 570/3/5 569/3/5
f 572/3/5 570/3/5 571/3/5
f 577/1/5 574/1/5 573/1/5
f 578/1/5 574/1/5 577/1/5
f 579/2/5 576/2/5 575/2/5
f 580/2/5 576/2/5 579/2/5
f 583/2/5 582/2/5 581/2/5
f 584/2/5 582/2/5 583/2/5
f 587/2/5 586/2/5 585/2/5
f 588/2/5 586/2/5 587/2/5
f 589/2/6 590/2/6 591/2/6
f 591/2/6 590/2/6 592/2/6
f 591/3/6 592/3/6 593/3/6
f 593/3/6 592/3/6 594/3/6
f 595/3/6 596/3/6 597/3/6
f 597/3/6 596/3/6 598/3/6
f 597/2/6 598/2/6 599/2/6
f 599/2/6 598/2/6 600/2/6
f 601/2/6 602/2/6 605/2/6
f 605/2/6 602/2/6 606/2/6
f 606/2/6 602/2/6 607/2/6
f 603/3/6 604/3/6 608/3/6
f 608/3/6 604/3/6 609/3/6
f 605/1/6 606/1/6 610/1/6
f 610/1/6 606/1/6 611/1/6
f 611/3/6 612/3/6 614/3/6
f 614/3/6 612/3/6 615/3/6
f 616/3/6 617/3/6 618/3/6
f 618/3/6 617/3/6 619/3/6
f 613/1/6 614/1/6 620/1/6
f 620/1/6 614/1/6 621/1/6
f 621/2/6 622/2/6 623/2/6
f 620/2/6 621/2/6 623/2/6
f 623/2/6 622/2/6 624/2/6
f 625/2/6 626/2/6 629/2/6
f 629/2/6 626/2/6 630/2/6
f 627/3/6 628/3/6 631/3/6
f 631/3/6 628/3/6 632/3/6
f 632/3/6 628/3/6 633/3/6
f 633/3/6 628/3/6 634/3/6
f 632/3/6 633/3/6 637/3/6
f 633/4/6 634/4/6 638/4/6
f 637/3/6 633/3/6 638/3/6
f 634/3/6 628/3/6 639/3/6
f 638/4/6 634/4/6 639/4/6
f 639/3/6 628/3/6 640/3/6
f 640/3/6 628/3/6 641/3/6
f 635/4/6 636/4/6 643/4/6
f 643/4/6 636/4/6 644/4/6
f 637/4/6 638/4/6 646/4/6
f 638/4/6 639/4/6 646/4/6
f 639/4/6 640/4/6 646/4/6
f 643/3/6 644/3/6 647/3/6
f 647/3/6 644/3/6 648/3/6
f 645/3/6 646/3/6 649/3/6
f 646/4/6 640/4/6 650/4/6
f 649/3/6 646/3/6 650/3/6
f 641/3/6 642/3/6 651/3/6
f 640/3/6 641/3/6 651/3/6
f 651/3/6 642/3/6 652/3/6
f 647/4/6 648/4/6 653/4/6
f 653/4/6 648/4/6 654/4/6
f 650/4/6 640/4/6 655/4/6
f 655/4/6 640/4/6 656/4/6
f 656/4/6 640/4/6 657/4/6
f 640/3/6 651/3/6 658/3/6
f 657/4/6 640/4/6 658/4/6
f 655/3/6 656/3/6 662/3/6
f 656/4/6 657/4/6 663/4/6
f 662/3/6 656/3/6 663/3/6
f 657/3/6 658/3/6 664/3/6
f 663/4/6 657/4/6 664/4/6
f 659/2/6 660/2/6 665/2/6
f 665/2/6 660/2/6 666/2/6
f 661/3/6 662/3/6 667/3/6
f 662/3/6 663/3/6 667/3/6
f 663/3/6 664/3/6 667/3/6
f 658/3/6 651/3/6 668/3/6
f 667/3/6 664/3/6 668/3/6
f 664/3/6 658/3/6 668/3/6
f 669/3/6 670/3/6 672/3/6
f 672/3/6 670/3/6 673/3/6
f 673/3/6 670/3/6 674/3/6
f 671/4/6 672/4/6 676/4/6
f 674/3/6 675/3/6 676/3/6
f 673/3/6 674/3/6 676/3/6
f 672/4/6 673/4/6 676/4/6
f 676/3/6 675/3/6 677/3/6
f 671/4/6 676/4/6 678/4/6
f 676/4/6 677/4/6 678/4/6
f 677/3/6 675/3/6 679/3/6
f 678/4/6 677/4/6 679/4/6
f 671/4/6 678/4/6 680/4/6
f 678/3/6 679/3/6 681/3/6
f 680/4/6 678/4/6 681/4/6
f 679/3/6 675/3/6 682/3/6
f 681/3/6 679/3/6 682/3/6
f 682/3/6 675/3/6 683/3/6
f 680/3/6 681/3/6 684/3/6
f 681/3/6 682/3/6 684/3/6
f 684/3/6 682/3/6 685/3/6
f 685/3/6 682/3/6 686/3/6
f 684/4/6 685/4/6 688/4/6
f 686/3/6 687/3/6 688/3/6
f 685/3/6 686/3/6 688/3/6
f 688/3/6 687/3/6 689/3/6
f 688/4/6 689/4/6 690/4/6
f 689/3/6 687/3/6 691/3/6
f 690/4/6 689/4/6 691/4/6
f 684/4/6 688/4/6 692/4/6
f 688/4/6 690/4/6 692/4/6
f 692/4/6 690/4/6 693/4/6
f 690/3/6 691/3/6 694/3/6
f 693/4/6 690/4/6 694/4/6
f 691/3/6 687/3/6 695/3/6
f 694/3/6 691/3/6 695/3/6
f 695/3/6 687/3/6 696/3/6
f 693/3/6 694/3/6 697/3/6
f 694/3/6 695/3/6 697/3/6
f 697/3/6 695/3/6 698/3/6
