# MagicaVoxel @ Ephtracy

# group
o 

# material
mtllib Enemy1-7.mtl
usemtl palette

# normals
vn -1 0 0
vn 1 0 0
vn 0 0 1
vn 0 0 -1
vn 0 -1 0
vn 0 1 0

# texcoords
vt 0.166016 0.5
vt 0.169922 0.5

# verts
v -0.4 0.1 2.1
v -0.4 0.1 2
v -0.4 0.2 2
v -0.4 0.2 1.9
v -0.4 0.3 2.1
v -0.4 0.3 2
v -0.4 0.4 1.9
v -0.4 0.4 1.8
v -0.4 0.5 2
v -0.4 0.5 1.9
v -0.4 0.6 1.8
v -0.4 0.6 1.7
v -0.4 0.7 1.9
v -0.4 0.7 1.8
v -0.4 0.8 1.7
v -0.4 0.8 1.6
v -0.4 0.9 1.8
v -0.4 0.9 1.7
v -0.4 1 1.6
v -0.4 1 1.5
v -0.4 1.1 1.7
v -0.4 1.1 1.5
v -0.3 0 2.2
v -0.3 0 2
v -0.3 0.1 2.1
v -0.3 0.1 2
v -0.3 0.1 1.9
v -0.3 0.2 2.2
v -0.3 0.2 2.1
v -0.3 0.2 2
v -0.3 0.2 1.9
v -0.3 0.3 2.1
v -0.3 0.3 2
v -0.3 0.3 1.9
v -0.3 0.3 1.8
v -0.3 0.4 2.1
v -0.3 0.4 2
v -0.3 0.4 1.9
v -0.3 0.4 1.8
v -0.3 0.5 2
v -0.3 0.5 1.9
v -0.3 0.5 1.8
v -0.3 0.5 1.7
v -0.3 0.6 2
v -0.3 0.6 1.9
v -0.3 0.6 1.8
v -0.3 0.6 1.7
v -0.3 0.7 1.9
v -0.3 0.7 1.8
v -0.3 0.7 1.7
v -0.3 0.7 1.6
v -0.3 0.8 1.9
v -0.3 0.8 1.8
v -0.3 0.8 1.7
v -0.3 0.8 1.6
v -0.3 0.9 1.8
v -0.3 0.9 1.7
v -0.3 0.9 1.6
v -0.3 0.9 1.5
v -0.3 1 1.8
v -0.3 1 1.7
v -0.3 1 1.6
v -0.3 1 1.5
v -0.3 1 1.4
v -0.3 1.1 1.6
v -0.3 1.1 1.5
v -0.3 1.2 1.6
v -0.3 1.2 1.4
v -0.2 0 2.2
v -0.2 0 2
v -0.2 0.1 2.1
v -0.2 0.1 2
v -0.2 0.1 1.9
v -0.2 0.2 2.2
v -0.2 0.2 2.1
v -0.2 0.2 2
v -0.2 0.2 1.9
v -0.2 0.3 2.1
v -0.2 0.3 2
v -0.2 0.3 1.9
v -0.2 0.3 1.8
v -0.2 0.4 2.1
v -0.2 0.4 2
v -0.2 0.4 1.9
v -0.2 0.4 1.8
v -0.2 0.5 2
v -0.2 0.5 1.9
v -0.2 0.5 1.8
v -0.2 0.5 1.7
v -0.2 0.6 2
v -0.2 0.6 1.9
v -0.2 0.6 1.8
v -0.2 0.6 1.7
v -0.2 0.7 1.9
v -0.2 0.7 1.8
v -0.2 0.7 1.7
v -0.2 0.7 1.6
v -0.2 0.8 1.9
v -0.2 0.8 1.8
v -0.2 0.8 1.7
v -0.2 0.8 1.6
v -0.2 0.9 1.8
v -0.2 0.9 1.7
v -0.2 0.9 1.6
v -0.2 0.9 1.5
v -0.2 1 1.8
v -0.2 1 1.7
v -0.2 1 1.6
v -0.2 1 1.5
v -0.2 1 1.4
v -0.2 1.1 1.6
v -0.2 1.1 1.5
v -0.2 1.2 1.6
v -0.2 1.2 1.4
v -0.1 0.1 2.1
v -0.1 0.1 2
v -0.1 0.2 2
v -0.1 0.2 1.9
v -0.1 0.3 2.1
v -0.1 0.3 2
v -0.1 0.4 1.9
v -0.1 0.4 1.8
v -0.1 0.5 2
v -0.1 0.5 1.9
v -0.1 0.6 1.8
v -0.1 0.6 1.7
v -0.1 0.7 1.9
v -0.1 0.7 1.8
v -0.1 0.8 1.7
v -0.1 0.8 1.6
v -0.1 0.9 1.8
v -0.1 0.9 1.7
v -0.1 1 1.6
v -0.1 1 1.5
v -0.1 1.1 1.7
v -0.1 1.1 1.5
v -0.3 0 2.2
v -0.3 0.2 2.2
v -0.2 0 2.2
v -0.2 0.2 2.2
v -0.4 0.1 2.1
v -0.4 0.3 2.1
v -0.3 0.1 2.1
v -0.3 0.2 2.1
v -0.3 0.3 2.1
v -0.3 0.4 2.1
v -0.2 0.1 2.1
v -0.2 0.2 2.1
v -0.2 0.3 2.1
v -0.2 0.4 2.1
v -0.1 0.1 2.1
v -0.1 0.3 2.1
v -0.4 0.3 2
v -0.4 0.5 2
v -0.3 0.3 2
v -0.3 0.4 2
v -0.3 0.5 2
v -0.3 0.6 2
v -0.2 0.3 2
v -0.2 0.4 2
v -0.2 0.5 2
v -0.2 0.6 2
v -0.1 0.3 2
v -0.1 0.5 2
v -0.4 0.5 1.9
v -0.4 0.7 1.9
v -0.3 0.5 1.9
v -0.3 0.6 1.9
v -0.3 0.7 1.9
v -0.3 0.8 1.9
v -0.2 0.5 1.9
v -0.2 0.6 1.9
v -0.2 0.7 1.9
v -0.2 0.8 1.9
v -0.1 0.5 1.9
v -0.1 0.7 1.9
v -0.4 0.7 1.8
v -0.4 0.9 1.8
v -0.3 0.7 1.8
v -0.3 0.8 1.8
v -0.3 0.9 1.8
v -0.3 1 1.8
v -0.2 0.7 1.8
v -0.2 0.8 1.8
v -0.2 0.9 1.8
v -0.2 1 1.8
v -0.1 0.7 1.8
v -0.1 0.9 1.8
v -0.4 0.9 1.7
v -0.4 1.1 1.7
v -0.3 0.9 1.7
v -0.3 1 1.7
v -0.2 0.9 1.7
v -0.2 1 1.7
v -0.1 0.9 1.7
v -0.1 1.1 1.7
v -0.3 1.1 1.6
v -0.3 1.2 1.6
v -0.2 1.1 1.6
v -0.2 1.2 1.6
v -0.4 0.1 2
v -0.4 0.2 2
v -0.3 0 2
v -0.3 0.1 2
v -0.3 0.2 2
v -0.2 0 2
v -0.2 0.1 2
v -0.2 0.2 2
v -0.1 0.1 2
v -0.1 0.2 2
v -0.4 0.2 1.9
v -0.4 0.4 1.9
v -0.3 0.1 1.9
v -0.3 0.2 1.9
v -0.3 0.3 1.9
v -0.3 0.4 1.9
v -0.2 0.1 1.9
v -0.2 0.2 1.9
v -0.2 0.3 1.9
v -0.2 0.4 1.9
v -0.1 0.2 1.9
v -0.1 0.4 1.9
v -0.4 0.4 1.8
v -0.4 0.6 1.8
v -0.3 0.3 1.8
v -0.3 0.4 1.8
v -0.3 0.5 1.8
v -0.3 0.6 1.8
v -0.2 0.3 1.8
v -0.2 0.4 1.8
v -0.2 0.5 1.8
v -0.2 0.6 1.8
v -0.1 0.4 1.8
v -0.1 0.6 1.8
v -0.4 0.6 1.7
v -0.4 0.8 1.7
v -0.3 0.5 1.7
v -0.3 0.6 1.7
v -0.3 0.7 1.7
v -0.3 0.8 1.7
v -0.2 0.5 1.7
v -0.2 0.6 1.7
v -0.2 0.7 1.7
v -0.2 0.8 1.7
v -0.1 0.6 1.7
v -0.1 0.8 1.7
v -0.4 0.8 1.6
v -0.4 1 1.6
v -0.3 0.7 1.6
v -0.3 0.8 1.6
v -0.3 0.9 1.6
v -0.3 1 1.6
v -0.2 0.7 1.6
v -0.2 0.8 1.6
v -0.2 0.9 1.6
v -0.2 1 1.6
v -0.1 0.8 1.6
v -0.1 1 1.6
v -0.4 1 1.5
v -0.4 1.1 1.5
v -0.3 0.9 1.5
v -0.3 1 1.5
v -0.3 1.1 1.5
v -0.2 0.9 1.5
v -0.2 1 1.5
v -0.2 1.1 1.5
v -0.1 1 1.5
v -0.1 1.1 1.5
v -0.3 1 1.4
v -0.3 1.2 1.4
v -0.2 1 1.4
v -0.2 1.2 1.4
v -0.3 0 2.2
v -0.2 0 2.2
v -0.3 0 2
v -0.2 0 2
v -0.4 0.1 2.1
v -0.3 0.1 2.1
v -0.2 0.1 2.1
v -0.1 0.1 2.1
v -0.4 0.1 2
v -0.3 0.1 2
v -0.2 0.1 2
v -0.1 0.1 2
v -0.3 0.1 1.9
v -0.2 0.1 1.9
v -0.4 0.2 2
v -0.3 0.2 2
v -0.2 0.2 2
v -0.1 0.2 2
v -0.4 0.2 1.9
v -0.3 0.2 1.9
v -0.2 0.2 1.9
v -0.1 0.2 1.9
v -0.3 0.3 1.9
v -0.2 0.3 1.9
v -0.3 0.3 1.8
v -0.2 0.3 1.8
v -0.4 0.4 1.9
v -0.3 0.4 1.9
v -0.2 0.4 1.9
v -0.1 0.4 1.9
v -0.4 0.4 1.8
v -0.3 0.4 1.8
v -0.2 0.4 1.8
v -0.1 0.4 1.8
v -0.3 0.5 1.8
v -0.2 0.5 1.8
v -0.3 0.5 1.7
v -0.2 0.5 1.7
v -0.4 0.6 1.8
v -0.3 0.6 1.8
v -0.2 0.6 1.8
v -0.1 0.6 1.8
v -0.4 0.6 1.7
v -0.3 0.6 1.7
v -0.2 0.6 1.7
v -0.1 0.6 1.7
v -0.3 0.7 1.7
v -0.2 0.7 1.7
v -0.3 0.7 1.6
v -0.2 0.7 1.6
v -0.4 0.8 1.7
v -0.3 0.8 1.7
v -0.2 0.8 1.7
v -0.1 0.8 1.7
v -0.4 0.8 1.6
v -0.3 0.8 1.6
v -0.2 0.8 1.6
v -0.1 0.8 1.6
v -0.3 0.9 1.6
v -0.2 0.9 1.6
v -0.3 0.9 1.5
v -0.2 0.9 1.5
v -0.4 1 1.6
v -0.3 1 1.6
v -0.2 1 1.6
v -0.1 1 1.6
v -0.4 1 1.5
v -0.3 1 1.5
v -0.2 1 1.5
v -0.1 1 1.5
v -0.3 1 1.4
v -0.2 1 1.4
v -0.3 0.2 2.2
v -0.2 0.2 2.2
v -0.3 0.2 2.1
v -0.2 0.2 2.1
v -0.4 0.3 2.1
v -0.3 0.3 2.1
v -0.2 0.3 2.1
v -0.1 0.3 2.1
v -0.4 0.3 2
v -0.3 0.3 2
v -0.2 0.3 2
v -0.1 0.3 2
v -0.3 0.4 2.1
v -0.2 0.4 2.1
v -0.3 0.4 2
v -0.2 0.4 2
v -0.4 0.5 2
v -0.3 0.5 2
v -0.2 0.5 2
v -0.1 0.5 2
v -0.4 0.5 1.9
v -0.3 0.5 1.9
v -0.2 0.5 1.9
v -0.1 0.5 1.9
v -0.3 0.6 2
v -0.2 0.6 2
v -0.3 0.6 1.9
v -0.2 0.6 1.9
v -0.4 0.7 1.9
v -0.3 0.7 1.9
v -0.2 0.7 1.9
v -0.1 0.7 1.9
v -0.4 0.7 1.8
v -0.3 0.7 1.8
v -0.2 0.7 1.8
v -0.1 0.7 1.8
v -0.3 0.8 1.9
v -0.2 0.8 1.9
v -0.3 0.8 1.8
v -0.2 0.8 1.8
v -0.4 0.9 1.8
v -0.3 0.9 1.8
v -0.2 0.9 1.8
v -0.1 0.9 1.8
v -0.4 0.9 1.7
v -0.3 0.9 1.7
v -0.2 0.9 1.7
v -0.1 0.9 1.7
v -0.3 1 1.8
v -0.2 1 1.8
v -0.3 1 1.7
v -0.2 1 1.7
v -0.4 1.1 1.7
v -0.1 1.1 1.7
v -0.3 1.1 1.6
v -0.2 1.1 1.6
v -0.4 1.1 1.5
v -0.3 1.1 1.5
v -0.2 1.1 1.5
v -0.1 1.1 1.5
v -0.3 1.2 1.6
v -0.2 1.2 1.6
v -0.3 1.2 1.4
v -0.2 1.2 1.4

# faces
f 3/2/1 2/2/1 1/2/1
f 5/2/1 3/2/1 1/2/1
f 5/2/1 4/2/1 3/2/1
f 6/2/1 4/2/1 5/2/1
f 7/2/1 4/2/1 6/2/1
f 9/2/1 7/2/1 6/2/1
f 9/2/1 8/2/1 7/2/1
f 10/2/1 8/2/1 9/2/1
f 11/2/1 8/2/1 10/2/1
f 13/2/1 11/2/1 10/2/1
f 13/2/1 12/2/1 11/2/1
f 14/2/1 12/2/1 13/2/1
f 15/2/1 12/2/1 14/2/1
f 17/2/1 15/2/1 14/2/1
f 18/1/1 16/1/1 15/1/1
f 18/2/1 15/2/1 17/2/1
f 19/1/1 16/1/1 18/1/1
f 21/1/1 19/1/1 18/1/1
f 21/1/1 20/1/1 19/1/1
f 22/1/1 20/1/1 21/1/1
f 25/2/1 24/2/1 23/2/1
f 26/2/1 24/2/1 25/2/1
f 28/2/1 25/2/1 23/2/1
f 29/2/1 25/2/1 28/2/1
f 30/2/1 27/2/1 26/2/1
f 31/2/1 27/2/1 30/2/1
f 36/2/1 33/2/1 32/2/1
f 37/2/1 33/2/1 36/2/1
f 38/2/1 35/2/1 34/2/1
f 39/2/1 35/2/1 38/2/1
f 44/2/1 41/2/1 40/2/1
f 45/2/1 41/2/1 44/2/1
f 46/2/1 43/2/1 42/2/1
f 47/2/1 43/2/1 46/2/1
f 52/2/1 49/2/1 48/2/1
f 53/2/1 49/2/1 52/2/1
f 54/2/1 51/2/1 50/2/1
f 55/2/1 51/2/1 54/2/1
f 60/1/1 57/1/1 56/1/1
f 61/1/1 57/1/1 60/1/1
f 62/1/1 59/1/1 58/1/1
f 63/1/1 59/1/1 62/1/1
f 66/1/1 64/1/1 63/1/1
f 67/1/1 66/1/1 65/1/1
f 68/1/1 64/1/1 66/1/1
f 68/1/1 66/1/1 67/1/1
f 69/2/2 70/2/2 71/2/2
f 71/2/2 70/2/2 72/2/2
f 69/2/2 71/2/2 74/2/2
f 74/2/2 71/2/2 75/2/2
f 72/2/2 73/2/2 76/2/2
f 76/2/2 73/2/2 77/2/2
f 78/2/2 79/2/2 82/2/2
f 82/2/2 79/2/2 83/2/2
f 80/2/2 81/2/2 84/2/2
f 84/2/2 81/2/2 85/2/2
f 86/2/2 87/2/2 90/2/2
f 90/2/2 87/2/2 91/2/2
f 88/2/2 89/2/2 92/2/2
f 92/2/2 89/2/2 93/2/2
f 94/2/2 95/2/2 98/2/2
f 98/2/2 95/2/2 99/2/2
f 96/2/2 97/2/2 100/2/2
f 100/2/2 97/2/2 101/2/2
f 102/1/2 103/1/2 106/1/2
f 106/1/2 103/1/2 107/1/2
f 104/1/2 105/1/2 108/1/2
f 108/1/2 105/1/2 109/1/2
f 109/1/2 110/1/2 112/1/2
f 111/1/2 112/1/2 113/1/2
f 112/1/2 110/1/2 114/1/2
f 113/1/2 112/1/2 114/1/2
f 115/2/2 116/2/2 117/2/2
f 115/2/2 117/2/2 119/2/2
f 117/2/2 118/2/2 119/2/2
f 119/2/2 118/2/2 120/2/2
f 120/2/2 118/2/2 121/2/2
f 120/2/2 121/2/2 123/2/2
f 121/2/2 122/2/2 123/2/2
f 123/2/2 122/2/2 124/2/2
f 124/2/2 122/2/2 125/2/2
f 124/2/2 125/2/2 127/2/2
f 125/2/2 126/2/2 127/2/2
f 127/2/2 126/2/2 128/2/2
f 128/2/2 126/2/2 129/2/2
f 128/2/2 129/2/2 131/2/2
f 129/1/2 130/1/2 132/1/2
f 131/2/2 129/2/2 132/2/2
f 132/1/2 130/1/2 133/1/2
f 132/1/2 133/1/2 135/1/2
f 133/1/2 134/1/2 135/1/2
f 135/1/2 134/1/2 136/1/2
f 139/2/3 138/2/3 137/2/3
f 140/2/3 138/2/3 139/2/3
f 143/2/3 142/2/3 141/2/3
f 144/2/3 142/2/3 143/2/3
f 145/2/3 142/2/3 144/2/3
f 148/2/3 146/2/3 145/2/3
f 148/2/3 145/2/3 144/2/3
f 149/2/3 146/2/3 148/2/3
f 150/2/3 146/2/3 149/2/3
f 151/2/3 148/2/3 147/2/3
f 151/2/3 149/2/3 148/2/3
f 152/2/3 149/2/3 151/2/3
f 155/2/3 154/2/3 153/2/3
f 156/2/3 154/2/3 155/2/3
f 157/2/3 154/2/3 156/2/3
f 160/2/3 158/2/3 157/2/3
f 160/2/3 157/2/3 156/2/3
f 161/2/3 158/2/3 160/2/3
f 162/2/3 158/2/3 161/2/3
f 163/2/3 160/2/3 159/2/3
f 163/2/3 161/2/3 160/2/3
f 164/2/3 161/2/3 163/2/3
f 167/2/3 166/2/3 165/2/3
f 168/2/3 166/2/3 167/2/3
f 169/2/3 166/2/3 168/2/3
f 172/2/3 170/2/3 169/2/3
f 172/2/3 169/2/3 168/2/3
f 173/2/3 170/2/3 172/2/3
f 174/2/3 170/2/3 173/2/3
f 175/2/3 172/2/3 171/2/3
f 175/2/3 173/2/3 172/2/3
f 176/2/3 173/2/3 175/2/3
f 179/2/3 178/2/3 177/2/3
f 180/2/3 178/2/3 179/2/3
f 181/2/3 178/2/3 180/2/3
f 184/1/3 182/1/3 181/1/3
f 184/1/3 181/1/3 180/1/3
f 185/1/3 182/1/3 184/1/3
f 186/1/3 182/1/3 185/1/3
f 187/2/3 184/2/3 183/2/3
f 187/2/3 185/2/3 184/2/3
f 188/2/3 185/2/3 187/2/3
f 191/1/3 190/1/3 189/1/3
f 192/1/3 190/1/3 191/1/3
f 194/1/3 190/1/3 192/1/3
f 195/1/3 194/1/3 193/1/3
f 196/1/3 190/1/3 194/1/3
f 196/1/3 194/1/3 195/1/3
f 199/1/3 198/1/3 197/1/3
f 200/1/3 198/1/3 199/1/3
f 201/2/4 202/2/4 204/2/4
f 204/2/4 202/2/4 205/2/4
f 203/2/4 204/2/4 206/2/4
f 206/2/4 204/2/4 207/2/4
f 207/2/4 208/2/4 209/2/4
f 209/2/4 208/2/4 210/2/4
f 211/2/4 212/2/4 214/2/4
f 214/2/4 212/2/4 215/2/4
f 215/2/4 212/2/4 216/2/4
f 213/2/4 214/2/4 217/2/4
f 214/2/4 215/2/4 217/2/4
f 217/2/4 215/2/4 218/2/4
f 218/2/4 215/2/4 219/2/4
f 219/2/4 220/2/4 221/2/4
f 218/2/4 219/2/4 221/2/4
f 221/2/4 220/2/4 222/2/4
f 223/2/4 224/2/4 226/2/4
f 226/2/4 224/2/4 227/2/4
f 227/2/4 224/2/4 228/2/4
f 225/2/4 226/2/4 229/2/4
f 226/2/4 227/2/4 229/2/4
f 229/2/4 227/2/4 230/2/4
f 230/2/4 227/2/4 231/2/4
f 231/2/4 232/2/4 233/2/4
f 230/2/4 231/2/4 233/2/4
f 233/2/4 232/2/4 234/2/4
f 235/2/4 236/2/4 238/2/4
f 238/2/4 236/2/4 239/2/4
f 239/2/4 236/2/4 240/2/4
f 237/2/4 238/2/4 241/2/4
f 238/2/4 239/2/4 241/2/4
f 241/2/4 239/2/4 242/2/4
f 242/2/4 239/2/4 243/2/4
f 243/2/4 244/2/4 245/2/4
f 242/2/4 243/2/4 245/2/4
f 245/2/4 244/2/4 246/2/4
f 247/1/4 248/1/4 250/1/4
f 250/1/4 248/1/4 251/1/4
f 251/1/4 248/1/4 252/1/4
f 249/2/4 250/2/4 253/2/4
f 250/1/4 251/1/4 254/1/4
f 253/2/4 250/2/4 254/2/4
f 254/1/4 251/1/4 255/1/4
f 255/1/4 256/1/4 257/1/4
f 254/1/4 255/1/4 257/1/4
f 257/1/4 256/1/4 258/1/4
f 259/1/4 260/1/4 262/1/4
f 262/1/4 260/1/4 263/1/4
f 261/1/4 262/1/4 264/1/4
f 264/1/4 262/1/4 265/1/4
f 265/1/4 266/1/4 267/1/4
f 267/1/4 266/1/4 268/1/4
f 269/1/4 270/1/4 271/1/4
f 271/1/4 270/1/4 272/1/4
f 275/2/5 274/2/5 273/2/5
f 276/2/5 274/2/5 275/2/5
f 281/2/5 278/2/5 277/2/5
f 282/2/5 278/2/5 281/2/5
f 283/2/5 280/2/5 279/2/5
f 284/2/5 280/2/5 283/2/5
f 285/2/5 283/2/5 282/2/5
f 286/2/5 283/2/5 285/2/5
f 291/2/5 288/2/5 287/2/5
f 292/2/5 288/2/5 291/2/5
f 293/2/5 290/2/5 289/2/5
f 294/2/5 290/2/5 293/2/5
f 297/2/5 296/2/5 295/2/5
f 298/2/5 296/2/5 297/2/5
f 303/2/5 300/2/5 299/2/5
f 304/2/5 300/2/5 303/2/5
f 305/2/5 302/2/5 301/2/5
f 306/2/5 302/2/5 305/2/5
f 309/2/5 308/2/5 307/2/5
f 310/2/5 308/2/5 309/2/5
f 315/2/5 312/2/5 311/2/5
f 316/2/5 312/2/5 315/2/5
f 317/2/5 314/2/5 313/2/5
f 318/2/5 314/2/5 317/2/5
f 321/2/5 320/2/5 319/2/5
f 322/2/5 320/2/5 321/2/5
f 327/1/5 324/1/5 323/1/5
f 328/1/5 324/1/5 327/1/5
f 329/1/5 326/1/5 325/1/5
f 330/1/5 326/1/5 329/1/5
f 333/1/5 332/1/5 331/1/5
f 334/1/5 332/1/5 333/1/5
f 339/1/5 336/1/5 335/1/5
f 340/1/5 336/1/5 339/1/5
f 341/1/5 338/1/5 337/1/5
f 342/1/5 338/1/5 341/1/5
f 343/1/5 341/1/5 340/1/5
f 344/1/5 341/1/5 343/1/5
f 345/2/6 346/2/6 347/2/6
f 347/2/6 346/2/6 348/2/6
f 349/2/6 350/2/6 353/2/6
f 353/2/6 350/2/6 354/2/6
f 351/2/6 352/2/6 355/2/6
f 355/2/6 352/2/6 356/2/6
f 357/2/6 358/2/6 359/2/6
f 359/2/6 358/2/6 360/2/6
f 361/2/6 362/2/6 365/2/6
f 365/2/6 362/2/6 366/2/6
f 363/2/6 364/2/6 367/2/6
f 367/2/6 364/2/6 368/2/6
f 369/2/6 370/2/6 371/2/6
f 371/2/6 370/2/6 372/2/6
f 373/2/6 374/2/6 377/2/6
f 377/2/6 374/2/6 378/2/6
f 375/2/6 376/2/6 379/2/6
f 379/2/6 376/2/6 380/2/6
f 381/2/6 382/2/6 383/2/6
f 383/2/6 382/2/6 384/2/6
f 385/2/6 386/2/6 389/2/6
f 389/2/6 386/2/6 390/2/6
f 387/2/6 388/2/6 391/2/6
f 391/2/6 388/2/6 392/2/6
f 393/1/6 394/1/6 395/1/6
f 395/1/6 394/1/6 396/1/6
f 397/1/6 398/1/6 399/1/6
f 399/1/6 398/1/6 400/1/6
f 397/1/6 399/1/6 401/1/6
f 401/1/6 399/1/6 402/1/6
f 400/1/6 398/1/6 403/1/6
f 403/1/6 398/1/6 404/1/6
f 405/1/6 406/1/6 407/1/6
f 407/1/6 406/1/6 408/1/6
