# MagicaVoxel @ Ephtracy

# group
o 

# material
mtllib Enemy1-2.mtl
usemtl palette

# normals
vn -1 0 0
vn 1 0 0
vn 0 0 1
vn 0 0 -1
vn 0 -1 0
vn 0 1 0

# texcoords
vt 0.166016 0.5
vt 0.169922 0.5

# verts
v -2.8 0 1.6
v -2.8 0 1.4
v -2.8 0.1 1.7
v -2.8 0.1 1.6
v -2.8 0.2 1.7
v -2.8 0.2 1.6
v -2.8 0.3 1.6
v -2.8 0.3 1.4
v -2.7 0.2 1.7
v -2.7 0.2 1.6
v -2.7 0.2 1.4
v -2.7 0.2 1.3
v -2.7 0.3 1.7
v -2.7 0.3 1.6
v -2.7 0.3 1.4
v -2.7 0.4 1.6
v -2.7 0.4 1.3
v -2.6 0.4 1.5
v -2.6 0.4 1.3
v -2.6 0.5 1.5
v -2.6 0.5 1.3
v -2.5 0.4 1.6
v -2.5 0.4 1.5
v -2.5 0.5 1.6
v -2.5 0.5 1.5
v -2.5 0.5 1.3
v -2.5 0.5 1.2
v -2.5 0.7 1.5
v -2.5 0.7 1.2
v -2.4 0.7 1.4
v -2.4 0.7 1.2
v -2.4 0.8 1.4
v -2.4 0.8 1.2
v -2.3 0.7 1.5
v -2.3 0.7 1.4
v -2.3 0.8 1.5
v -2.3 0.8 1.4
v -2.3 0.8 1.2
v -2.3 0.8 1.1
v -2.3 0.9 1.4
v -2.3 0.9 1.2
v -2.3 1 1.4
v -2.3 1 1.1
v -2.2 1 1.3
v -2.2 1 1.1
v -2.2 1.1 1.3
v -2.2 1.1 1.1
v -2.1 1 1.4
v -2.1 1 1.3
v -2.1 1.1 1.4
v -2.1 1.1 1.3
v -2.1 1.1 1.1
v -2.1 1.1 1
v -2.1 1.3 1.3
v -2.1 1.3 1
v -2 1.3 1.2
v -2 1.3 1
v -2 1.4 1.2
v -2 1.4 1
v -1.9 1.3 1.3
v -1.9 1.3 1.2
v -1.9 1.3 1
v -1.9 1.3 0.9
v -1.9 1.4 1.3
v -1.9 1.4 1.2
v -1.9 1.4 1
v -1.9 1.4 0.9
v -1.9 1.5 1.2
v -1.9 1.5 1
v -1.8 1.4 1
v -1.8 1.4 0.9
v -1.8 1.5 1
v -1.8 1.5 0.9
v -2.6 0 1.6
v -2.6 0 1.4
v -2.6 0.1 1.7
v -2.6 0.1 1.6
v -2.6 0.1 1.5
v -2.6 0.2 1.5
v -2.6 0.2 1.4
v -2.6 0.3 1.7
v -2.6 0.3 1.6
v -2.5 0.1 1.6
v -2.5 0.1 1.5
v -2.5 0.2 1.6
v -2.5 0.2 1.5
v -2.5 0.2 1.3
v -2.5 0.3 1.5
v -2.5 0.3 1.3
v -2.4 0.2 1.6
v -2.4 0.2 1.5
v -2.4 0.3 1.5
v -2.4 0.3 1.3
v -2.4 0.4 1.5
v -2.4 0.4 1.3
v -2.4 0.5 1.6
v -2.4 0.5 1.5
v -2.3 0.4 1.5
v -2.3 0.4 1.3
v -2.3 0.5 1.5
v -2.3 0.5 1.3
v -2.3 0.5 1.2
v -2.3 0.6 1.3
v -2.3 0.6 1.2
v -2.2 0.5 1.5
v -2.2 0.5 1.3
v -2.2 0.6 1.3
v -2.2 0.6 1.2
v -2.2 0.7 1.4
v -2.2 0.7 1.2
v -2.2 0.8 1.5
v -2.2 0.8 1.4
v -2.1 0.7 1.4
v -2.1 0.7 1.2
v -2.1 0.8 1.4
v -2.1 0.8 1.2
v -2.1 0.8 1.1
v -2.1 0.9 1.2
v -2.1 0.9 1.1
v -2 0.8 1.4
v -2 0.8 1.2
v -2 0.9 1.2
v -2 0.9 1.1
v -2 1 1.3
v -2 1 1.1
v -2 1.1 1.4
v -2 1.1 1.3
v -1.9 1 1.3
v -1.9 1 1.1
v -1.9 1.1 1.3
v -1.9 1.1 1.1
v -1.9 1.1 1
v -1.9 1.2 1.1
v -1.9 1.2 1
v -1.8 1.1 1.3
v -1.8 1.1 1.1
v -1.8 1.2 1.1
v -1.8 1.2 1
v -1.8 1.3 1.2
v -1.8 1.3 1
v -1.8 1.3 0.9
v -1.8 1.4 1.3
v -1.8 1.4 1.2
v -1.8 1.4 1
v -1.8 1.4 0.9
v -1.7 1.3 1.1
v -1.7 1.3 1
v -1.7 1.4 1.2
v -1.7 1.4 1.1
v -1.7 1.4 1
v -1.7 1.5 1.2
v -1.7 1.5 1.1
v -1.6 1.3 1.2
v -1.6 1.3 1.1
v -1.6 1.4 1.2
v -1.6 1.4 1.1
v -1.6 1.4 0.9
v -1.6 1.5 1.1
v -1.6 1.5 0.9
v -2.8 0.1 1.7
v -2.8 0.2 1.7
v -2.7 0.2 1.7
v -2.7 0.3 1.7
v -2.6 0.1 1.7
v -2.6 0.3 1.7
v -2.8 0 1.6
v -2.8 0.1 1.6
v -2.8 0.2 1.6
v -2.8 0.3 1.6
v -2.7 0.2 1.6
v -2.7 0.3 1.6
v -2.7 0.4 1.6
v -2.6 0 1.6
v -2.6 0.1 1.6
v -2.6 0.3 1.6
v -2.5 0.1 1.6
v -2.5 0.2 1.6
v -2.5 0.4 1.6
v -2.5 0.5 1.6
v -2.4 0.2 1.6
v -2.4 0.5 1.6
v -2.6 0.4 1.5
v -2.6 0.5 1.5
v -2.5 0.4 1.5
v -2.5 0.5 1.5
v -2.5 0.7 1.5
v -2.4 0.4 1.5
v -2.4 0.5 1.5
v -2.3 0.4 1.5
v -2.3 0.5 1.5
v -2.3 0.7 1.5
v -2.3 0.8 1.5
v -2.2 0.5 1.5
v -2.2 0.8 1.5
v -2.4 0.7 1.4
v -2.4 0.8 1.4
v -2.3 0.7 1.4
v -2.3 0.8 1.4
v -2.3 0.9 1.4
v -2.3 1 1.4
v -2.2 0.7 1.4
v -2.2 0.8 1.4
v -2.2 0.9 1.4
v -2.1 0.7 1.4
v -2.1 0.8 1.4
v -2.1 1 1.4
v -2.1 1.1 1.4
v -2 0.8 1.4
v -2 1.1 1.4
v -2.2 1 1.3
v -2.2 1.1 1.3
v -2.1 1 1.3
v -2.1 1.1 1.3
v -2.1 1.3 1.3
v -2 1 1.3
v -2 1.1 1.3
v -1.9 1 1.3
v -1.9 1.1 1.3
v -1.9 1.3 1.3
v -1.9 1.4 1.3
v -1.8 1.1 1.3
v -1.8 1.4 1.3
v -2 1.3 1.2
v -2 1.4 1.2
v -1.9 1.3 1.2
v -1.9 1.4 1.2
v -1.9 1.5 1.2
v -1.8 1.3 1.2
v -1.8 1.4 1.2
v -1.7 1.4 1.2
v -1.7 1.5 1.2
v -1.6 1.3 1.2
v -1.6 1.4 1.2
v -1.7 1.4 1.1
v -1.7 1.5 1.1
v -1.6 1.4 1.1
v -1.6 1.5 1.1
v -2.6 0.1 1.5
v -2.6 0.2 1.5
v -2.5 0.1 1.5
v -2.5 0.2 1.5
v -2.5 0.3 1.5
v -2.4 0.2 1.5
v -2.4 0.3 1.5
v -2.8 0 1.4
v -2.8 0.3 1.4
v -2.7 0.2 1.4
v -2.7 0.3 1.4
v -2.6 0 1.4
v -2.6 0.2 1.4
v -2.7 0.2 1.3
v -2.7 0.4 1.3
v -2.6 0.4 1.3
v -2.6 0.5 1.3
v -2.5 0.2 1.3
v -2.5 0.3 1.3
v -2.5 0.5 1.3
v -2.4 0.3 1.3
v -2.4 0.4 1.3
v -2.3 0.4 1.3
v -2.3 0.5 1.3
v -2.3 0.6 1.3
v -2.2 0.5 1.3
v -2.2 0.6 1.3
v -2.5 0.5 1.2
v -2.5 0.7 1.2
v -2.4 0.7 1.2
v -2.4 0.8 1.2
v -2.3 0.5 1.2
v -2.3 0.6 1.2
v -2.3 0.8 1.2
v -2.2 0.6 1.2
v -2.2 0.7 1.2
v -2.2 0.8 1.2
v -2.1 0.7 1.2
v -2.1 0.8 1.2
v -2.1 0.9 1.2
v -2 0.8 1.2
v -2 0.9 1.2
v -2.3 0.8 1.1
v -2.3 1 1.1
v -2.2 1 1.1
v -2.2 1.1 1.1
v -2.1 0.8 1.1
v -2.1 0.9 1.1
v -2.1 1.1 1.1
v -2 0.9 1.1
v -2 1 1.1
v -1.9 1 1.1
v -1.9 1.1 1.1
v -1.9 1.2 1.1
v -1.8 1.1 1.1
v -1.8 1.2 1.1
v -1.7 1.3 1.1
v -1.7 1.4 1.1
v -1.6 1.3 1.1
v -1.6 1.4 1.1
v -2.1 1.1 1
v -2.1 1.3 1
v -2 1.3 1
v -2 1.4 1
v -1.9 1.1 1
v -1.9 1.2 1
v -1.9 1.3 1
v -1.9 1.4 1
v -1.9 1.5 1
v -1.8 1.2 1
v -1.8 1.3 1
v -1.8 1.4 1
v -1.8 1.5 1
v -1.7 1.3 1
v -1.7 1.4 1
v -1.9 1.3 0.9
v -1.9 1.4 0.9
v -1.8 1.3 0.9
v -1.8 1.4 0.9
v -1.8 1.5 0.9
v -1.6 1.4 0.9
v -1.6 1.5 0.9
v -2.8 0 1.6
v -2.6 0 1.6
v -2.8 0 1.4
v -2.6 0 1.4
v -2.8 0.1 1.7
v -2.6 0.1 1.7
v -2.8 0.1 1.6
v -2.6 0.1 1.6
v -2.5 0.1 1.6
v -2.6 0.1 1.5
v -2.5 0.1 1.5
v -2.5 0.2 1.6
v -2.4 0.2 1.6
v -2.6 0.2 1.5
v -2.5 0.2 1.5
v -2.4 0.2 1.5
v -2.7 0.2 1.4
v -2.6 0.2 1.4
v -2.7 0.2 1.3
v -2.5 0.2 1.3
v -2.5 0.3 1.5
v -2.4 0.3 1.5
v -2.5 0.3 1.3
v -2.4 0.3 1.3
v -2.4 0.4 1.5
v -2.3 0.4 1.5
v -2.4 0.4 1.3
v -2.3 0.4 1.3
v -2.3 0.5 1.5
v -2.2 0.5 1.5
v -2.5 0.5 1.3
v -2.3 0.5 1.3
v -2.2 0.5 1.3
v -2.5 0.5 1.2
v -2.3 0.5 1.2
v -2.3 0.6 1.3
v -2.2 0.6 1.3
v -2.3 0.6 1.2
v -2.2 0.6 1.2
v -2.2 0.7 1.4
v -2.1 0.7 1.4
v -2.2 0.7 1.2
v -2.1 0.7 1.2
v -2.1 0.8 1.4
v -2 0.8 1.4
v -2.3 0.8 1.2
v -2.2 0.8 1.2
v -2.1 0.8 1.2
v -2 0.8 1.2
v -2.3 0.8 1.1
v -2.1 0.8 1.1
v -2.1 0.9 1.2
v -2 0.9 1.2
v -2.1 0.9 1.1
v -2 0.9 1.1
v -2 1 1.3
v -1.9 1 1.3
v -2 1 1.1
v -1.9 1 1.1
v -1.9 1.1 1.3
v -1.8 1.1 1.3
v -2.1 1.1 1.1
v -1.9 1.1 1.1
v -1.8 1.1 1.1
v -2.1 1.1 1
v -1.9 1.1 1
v -1.9 1.2 1.1
v -1.8 1.2 1.1
v -1.9 1.2 1
v -1.8 1.2 1
v -1.8 1.3 1.2
v -1.6 1.3 1.2
v -1.7 1.3 1.1
v -1.6 1.3 1.1
v -1.9 1.3 1
v -1.8 1.3 1
v -1.7 1.3 1
v -1.9 1.3 0.9
v -1.8 1.3 0.9
v -1.7 1.4 1.1
v -1.6 1.4 1.1
v -1.8 1.4 1
v -1.7 1.4 1
v -1.8 1.4 0.9
v -1.6 1.4 0.9
v -2.8 0.2 1.7
v -2.7 0.2 1.7
v -2.8 0.2 1.6
v -2.7 0.2 1.6
v -2.7 0.3 1.7
v -2.6 0.3 1.7
v -2.8 0.3 1.6
v -2.7 0.3 1.6
v -2.6 0.3 1.6
v -2.8 0.3 1.4
v -2.7 0.3 1.4
v -2.7 0.4 1.6
v -2.5 0.4 1.6
v -2.6 0.4 1.5
v -2.5 0.4 1.5
v -2.7 0.4 1.3
v -2.6 0.4 1.3
v -2.5 0.5 1.6
v -2.4 0.5 1.6
v -2.6 0.5 1.5
v -2.5 0.5 1.5
v -2.4 0.5 1.5
v -2.6 0.5 1.3
v -2.5 0.5 1.3
v -2.5 0.7 1.5
v -2.3 0.7 1.5
v -2.4 0.7 1.4
v -2.3 0.7 1.4
v -2.5 0.7 1.2
v -2.4 0.7 1.2
v -2.3 0.8 1.5
v -2.2 0.8 1.5
v -2.4 0.8 1.4
v -2.3 0.8 1.4
v -2.2 0.8 1.4
v -2.4 0.8 1.2
v -2.3 0.8 1.2
v -2.3 1 1.4
v -2.1 1 1.4
v -2.2 1 1.3
v -2.1 1 1.3
v -2.3 1 1.1
v -2.2 1 1.1
v -2.1 1.1 1.4
v -2 1.1 1.4
v -2.2 1.1 1.3
v -2.1 1.1 1.3
v -2 1.1 1.3
v -2.2 1.1 1.1
v -2.1 1.1 1.1
v -2.1 1.3 1.3
v -1.9 1.3 1.3
v -2 1.3 1.2
v -1.9 1.3 1.2
v -2.1 1.3 1
v -2 1.3 1
v -1.9 1.4 1.3
v -1.8 1.4 1.3
v -2 1.4 1.2
v -1.9 1.4 1.2
v -1.8 1.4 1.2
v -1.7 1.4 1.2
v -1.6 1.4 1.2
v -1.7 1.4 1.1
v -1.6 1.4 1.1
v -2 1.4 1
v -1.9 1.4 1
v -1.8 1.4 1
v -1.9 1.4 0.9
v -1.8 1.4 0.9
v -1.9 1.5 1.2
v -1.7 1.5 1.2
v -1.7 1.5 1.1
v -1.6 1.5 1.1
v -1.9 1.5 1
v -1.8 1.5 1
v -1.8 1.5 0.9
v -1.6 1.5 0.9

# faces
f 4/2/1 2/2/1 1/2/1
f 5/2/1 4/2/1 3/2/1
f 6/2/1 2/2/1 4/2/1
f 6/2/1 4/2/1 5/2/1
f 7/2/1 2/2/1 6/2/1
f 8/2/1 2/2/1 7/2/1
f 13/2/1 10/2/1 9/2/1
f 14/2/1 10/2/1 13/2/1
f 15/2/1 12/2/1 11/2/1
f 16/2/1 15/2/1 14/2/1
f 17/2/1 12/2/1 15/2/1
f 17/2/1 15/2/1 16/2/1
f 20/2/1 19/2/1 18/2/1
f 21/2/1 19/2/1 20/2/1
f 24/2/1 23/2/1 22/2/1
f 25/2/1 23/2/1 24/2/1
f 28/2/1 27/2/1 26/2/1
f 28/2/1 26/2/1 25/2/1
f 29/2/1 27/2/1 28/2/1
f 32/2/1 31/2/1 30/2/1
f 33/2/1 31/2/1 32/2/1
f 36/2/1 35/2/1 34/2/1
f 37/2/1 35/2/1 36/2/1
f 40/2/1 38/2/1 37/2/1
f 41/1/1 39/1/1 38/1/1
f 41/2/1 38/2/1 40/2/1
f 42/1/1 41/1/1 40/1/1
f 43/1/1 39/1/1 41/1/1
f 43/1/1 41/1/1 42/1/1
f 46/1/1 45/1/1 44/1/1
f 47/1/1 45/1/1 46/1/1
f 50/1/1 49/1/1 48/1/1
f 51/1/1 49/1/1 50/1/1
f 54/1/1 53/1/1 52/1/1
f 54/1/1 52/1/1 51/1/1
f 55/1/1 53/1/1 54/1/1
f 58/1/1 57/1/1 56/1/1
f 59/1/1 57/1/1 58/1/1
f 64/1/1 61/1/1 60/1/1
f 65/1/1 61/1/1 64/1/1
f 66/1/1 63/1/1 62/1/1
f 67/1/1 63/1/1 66/1/1
f 68/1/1 66/1/1 65/1/1
f 69/1/1 66/1/1 68/1/1
f 72/1/1 71/1/1 70/1/1
f 73/1/1 71/1/1 72/1/1
f 74/2/2 75/2/2 77/2/2
f 77/2/2 75/2/2 78/2/2
f 78/2/2 75/2/2 79/2/2
f 79/2/2 75/2/2 80/2/2
f 76/2/2 77/2/2 81/2/2
f 81/2/2 77/2/2 82/2/2
f 83/2/2 84/2/2 85/2/2
f 85/2/2 84/2/2 86/2/2
f 86/2/2 87/2/2 88/2/2
f 88/2/2 87/2/2 89/2/2
f 90/2/2 91/2/2 92/2/2
f 90/2/2 92/2/2 94/2/2
f 92/2/2 93/2/2 94/2/2
f 94/2/2 93/2/2 95/2/2
f 90/2/2 94/2/2 96/2/2
f 96/2/2 94/2/2 97/2/2
f 98/2/2 99/2/2 100/2/2
f 100/2/2 99/2/2 101/2/2
f 101/2/2 102/2/2 103/2/2
f 103/2/2 102/2/2 104/2/2
f 105/2/2 106/2/2 107/2/2
f 105/2/2 107/2/2 109/2/2
f 107/2/2 108/2/2 109/2/2
f 109/2/2 108/2/2 110/2/2
f 105/2/2 109/2/2 111/2/2
f 111/2/2 109/2/2 112/2/2
f 113/1/2 114/1/2 115/1/2
f 115/1/2 114/1/2 116/1/2
f 116/1/2 117/1/2 118/1/2
f 118/1/2 117/1/2 119/1/2
f 120/1/2 121/1/2 122/1/2
f 120/1/2 122/1/2 124/1/2
f 122/1/2 123/1/2 124/1/2
f 124/1/2 123/1/2 125/1/2
f 120/1/2 124/1/2 126/1/2
f 126/1/2 124/1/2 127/1/2
f 128/1/2 129/1/2 130/1/2
f 130/1/2 129/1/2 131/1/2
f 131/1/2 132/1/2 133/1/2
f 133/1/2 132/1/2 134/1/2
f 135/1/2 136/1/2 137/1/2
f 135/1/2 137/1/2 139/1/2
f 137/1/2 138/1/2 139/1/2
f 139/1/2 138/1/2 140/1/2
f 135/1/2 139/1/2 142/1/2
f 142/1/2 139/1/2 143/1/2
f 140/1/2 141/1/2 144/1/2
f 144/1/2 141/1/2 145/1/2
f 146/1/2 147/1/2 149/1/2
f 149/1/2 147/1/2 150/1/2
f 148/1/2 149/1/2 151/1/2
f 151/1/2 149/1/2 152/1/2
f 153/1/2 154/1/2 155/1/2
f 155/1/2 154/1/2 156/1/2
f 156/1/2 157/1/2 158/1/2
f 158/1/2 157/1/2 159/1/2
f 162/2/3 161/2/3 160/2/3
f 164/2/3 162/2/3 160/2/3
f 164/2/3 163/2/3 162/2/3
f 165/2/3 163/2/3 164/2/3
f 170/2/3 169/2/3 168/2/3
f 171/2/3 169/2/3 170/2/3
f 173/2/3 167/2/3 166/2/3
f 174/2/3 167/2/3 173/2/3
f 175/2/3 172/2/3 171/2/3
f 176/2/3 175/2/3 174/2/3
f 177/2/3 175/2/3 176/2/3
f 178/2/3 172/2/3 175/2/3
f 178/2/3 175/2/3 177/2/3
f 180/2/3 179/2/3 178/2/3
f 180/2/3 178/2/3 177/2/3
f 181/2/3 179/2/3 180/2/3
f 184/2/3 183/2/3 182/2/3
f 185/2/3 183/2/3 184/2/3
f 188/2/3 186/2/3 185/2/3
f 189/2/3 188/2/3 187/2/3
f 190/2/3 186/2/3 188/2/3
f 190/2/3 188/2/3 189/2/3
f 191/2/3 186/2/3 190/2/3
f 193/2/3 192/2/3 191/2/3
f 193/2/3 191/2/3 190/2/3
f 194/2/3 192/2/3 193/2/3
f 197/2/3 196/2/3 195/2/3
f 198/2/3 196/2/3 197/2/3
f 202/2/3 199/2/3 198/2/3
f 203/1/3 200/1/3 199/1/3
f 203/2/3 199/2/3 202/2/3
f 204/1/3 202/1/3 201/1/3
f 204/1/3 203/1/3 202/1/3
f 205/1/3 203/1/3 204/1/3
f 206/1/3 200/1/3 203/1/3
f 206/1/3 203/1/3 205/1/3
f 208/1/3 207/1/3 206/1/3
f 208/1/3 206/1/3 205/1/3
f 209/1/3 207/1/3 208/1/3
f 212/1/3 211/1/3 210/1/3
f 213/1/3 211/1/3 212/1/3
f 216/1/3 214/1/3 213/1/3
f 217/1/3 216/1/3 215/1/3
f 218/1/3 214/1/3 216/1/3
f 218/1/3 216/1/3 217/1/3
f 219/1/3 214/1/3 218/1/3
f 221/1/3 220/1/3 219/1/3
f 221/1/3 219/1/3 218/1/3
f 222/1/3 220/1/3 221/1/3
f 225/1/3 224/1/3 223/1/3
f 226/1/3 224/1/3 225/1/3
f 229/1/3 227/1/3 226/1/3
f 230/1/3 227/1/3 229/1/3
f 230/1/3 229/1/3 228/1/3
f 231/1/3 227/1/3 230/1/3
f 232/1/3 230/1/3 228/1/3
f 233/1/3 230/1/3 232/1/3
f 236/1/3 235/1/3 234/1/3
f 237/1/3 235/1/3 236/1/3
f 238/2/4 239/2/4 240/2/4
f 240/2/4 239/2/4 241/2/4
f 241/2/4 242/2/4 243/2/4
f 243/2/4 242/2/4 244/2/4
f 245/2/4 246/2/4 247/2/4
f 247/2/4 246/2/4 248/2/4
f 245/2/4 247/2/4 249/2/4
f 249/2/4 247/2/4 250/2/4
f 251/2/4 252/2/4 253/2/4
f 251/2/4 253/2/4 255/2/4
f 253/2/4 254/2/4 255/2/4
f 255/2/4 254/2/4 256/2/4
f 256/2/4 254/2/4 257/2/4
f 256/2/4 257/2/4 258/2/4
f 258/2/4 257/2/4 259/2/4
f 259/2/4 257/2/4 260/2/4
f 260/2/4 257/2/4 261/2/4
f 261/2/4 262/2/4 263/2/4
f 263/2/4 262/2/4 264/2/4
f 265/2/4 266/2/4 267/2/4
f 265/2/4 267/2/4 269/2/4
f 267/2/4 268/2/4 269/2/4
f 269/2/4 268/2/4 270/2/4
f 270/2/4 268/2/4 271/2/4
f 270/2/4 271/2/4 272/2/4
f 272/2/4 271/2/4 273/2/4
f 273/2/4 271/2/4 274/2/4
f 273/1/4 274/1/4 275/1/4
f 275/1/4 274/1/4 276/1/4
f 276/1/4 277/1/4 278/1/4
f 278/1/4 277/1/4 279/1/4
f 280/1/4 281/1/4 282/1/4
f 280/1/4 282/1/4 284/1/4
f 282/1/4 283/1/4 284/1/4
f 284/1/4 283/1/4 285/1/4
f 285/1/4 283/1/4 286/1/4
f 285/1/4 286/1/4 287/1/4
f 287/1/4 286/1/4 288/1/4
f 288/1/4 286/1/4 289/1/4
f 289/1/4 286/1/4 290/1/4
f 290/1/4 291/1/4 292/1/4
f 292/1/4 291/1/4 293/1/4
f 294/1/4 295/1/4 296/1/4
f 296/1/4 295/1/4 297/1/4
f 298/1/4 299/1/4 300/1/4
f 298/1/4 300/1/4 302/1/4
f 300/1/4 301/1/4 302/1/4
f 302/1/4 301/1/4 303/1/4
f 303/1/4 301/1/4 304/1/4
f 304/1/4 301/1/4 305/1/4
f 303/1/4 304/1/4 307/1/4
f 307/1/4 304/1/4 308/1/4
f 305/1/4 306/1/4 309/1/4
f 309/1/4 306/1/4 310/1/4
f 308/1/4 309/1/4 311/1/4
f 311/1/4 309/1/4 312/1/4
f 313/1/4 314/1/4 315/1/4
f 315/1/4 314/1/4 316/1/4
f 316/1/4 317/1/4 318/1/4
f 318/1/4 317/1/4 319/1/4
f 322/2/5 321/2/5 320/2/5
f 323/2/5 321/2/5 322/2/5
f 326/2/5 325/2/5 324/2/5
f 327/2/5 325/2/5 326/2/5
f 329/2/5 328/2/5 327/2/5
f 330/2/5 328/2/5 329/2/5
f 334/2/5 332/2/5 331/2/5
f 335/2/5 332/2/5 334/2/5
f 337/2/5 334/2/5 333/2/5
f 338/2/5 337/2/5 336/2/5
f 339/2/5 334/2/5 337/2/5
f 339/2/5 337/2/5 338/2/5
f 342/2/5 341/2/5 340/2/5
f 343/2/5 341/2/5 342/2/5
f 346/2/5 345/2/5 344/2/5
f 347/2/5 345/2/5 346/2/5
f 351/2/5 349/2/5 348/2/5
f 352/2/5 349/2/5 351/2/5
f 353/2/5 351/2/5 350/2/5
f 354/2/5 351/2/5 353/2/5
f 357/2/5 356/2/5 355/2/5
f 358/2/5 356/2/5 357/2/5
f 361/1/5 360/1/5 359/1/5
f 362/1/5 360/1/5 361/1/5
f 367/1/5 364/1/5 363/1/5
f 368/1/5 364/1/5 367/1/5
f 369/1/5 366/1/5 365/1/5
f 369/1/5 367/1/5 366/1/5
f 370/1/5 367/1/5 369/1/5
f 373/1/5 372/1/5 371/1/5
f 374/1/5 372/1/5 373/1/5
f 377/1/5 376/1/5 375/1/5
f 378/1/5 376/1/5 377/1/5
f 382/1/5 380/1/5 379/1/5
f 383/1/5 380/1/5 382/1/5
f 384/1/5 382/1/5 381/1/5
f 385/1/5 382/1/5 384/1/5
f 388/1/5 387/1/5 386/1/5
f 389/1/5 387/1/5 388/1/5
f 392/1/5 391/1/5 390/1/5
f 393/1/5 391/1/5 392/1/5
f 395/1/5 392/1/5 390/1/5
f 396/1/5 392/1/5 395/1/5
f 397/1/5 395/1/5 394/1/5
f 398/1/5 395/1/5 397/1/5
f 402/1/5 400/1/5 399/1/5
f 403/1/5 402/1/5 401/1/5
f 404/1/5 400/1/5 402/1/5
f 404/1/5 402/1/5 403/1/5
f 405/2/6 406/2/6 407/2/6
f 407/2/6 406/2/6 408/2/6
f 409/2/6 410/2/6 412/2/6
f 412/2/6 410/2/6 413/2/6
f 411/2/6 412/2/6 414/2/6
f 414/2/6 412/2/6 415/2/6
f 416/2/6 417/2/6 418/2/6
f 418/2/6 417/2/6 419/2/6
f 416/2/6 418/2/6 420/2/6
f 420/2/6 418/2/6 421/2/6
f 422/2/6 423/2/6 425/2/6
f 425/2/6 423/2/6 426/2/6
f 424/2/6 425/2/6 427/2/6
f 427/2/6 425/2/6 428/2/6
f 429/2/6 430/2/6 431/2/6
f 431/2/6 430/2/6 432/2/6
f 429/2/6 431/2/6 433/2/6
f 433/2/6 431/2/6 434/2/6
f 435/2/6 436/2/6 438/2/6
f 438/2/6 436/2/6 439/2/6
f 437/2/6 438/2/6 440/2/6
f 440/2/6 438/2/6 441/2/6
f 442/1/6 443/1/6 444/1/6
f 444/1/6 443/1/6 445/1/6
f 442/1/6 444/1/6 446/1/6
f 446/1/6 444/1/6 447/1/6
f 448/1/6 449/1/6 451/1/6
f 451/1/6 449/1/6 452/1/6
f 450/1/6 451/1/6 453/1/6
f 453/1/6 451/1/6 454/1/6
f 455/1/6 456/1/6 457/1/6
f 457/1/6 456/1/6 458/1/6
f 455/1/6 457/1/6 459/1/6
f 459/1/6 457/1/6 460/1/6
f 461/1/6 462/1/6 464/1/6
f 464/1/6 462/1/6 465/1/6
f 466/1/6 467/1/6 468/1/6
f 468/1/6 467/1/6 469/1/6
f 463/1/6 464/1/6 470/1/6
f 470/1/6 464/1/6 471/1/6
f 471/1/6 472/1/6 473/1/6
f 473/1/6 472/1/6 474/1/6
f 475/1/6 476/1/6 477/1/6
f 475/1/6 477/1/6 479/1/6
f 477/1/6 478/1/6 479/1/6
f 479/1/6 478/1/6 480/1/6
f 480/1/6 478/1/6 481/1/6
f 481/1/6 478/1/6 482/1/6
