# MagicaVoxel @ Ephtracy

# group
o 

# material
mtllib Architeture1-0.mtl
usemtl palette

# normals
vn -1 0 0
vn 1 0 0
vn 0 0 1
vn 0 0 -1
vn 0 -1 0
vn 0 1 0

# texcoords
vt 0.0214844 0.5
vt 0.138672 0.5
vt 0.142578 0.5
vt 0.177734 0.5
vt 0.181641 0.5

# verts
v -0.3 1.5 0.1
v -0.3 1.5 -0.2
v -0.3 1.6 0.2
v -0.3 1.6 0.1
v -0.3 1.6 -0.2
v -0.3 1.6 -0.3
v -0.3 1.7 0.2
v -0.3 1.7 -0.3
v -0.3 1.9 -0.2
v -0.3 1.9 -0.3
v -0.3 2 0.2
v -0.3 2 -0.2
v -0.3 2.1 0.2
v -0.3 2.1 0.1
v -0.3 2.1 -0.2
v -0.3 2.1 -0.3
v -0.3 2.2 0.1
v -0.3 2.2 -0.2
v -0.2 1.5 0.2
v -0.2 1.5 0.1
v -0.2 1.5 -0.2
v -0.2 1.5 -0.3
v -0.2 1.6 0.2
v -0.2 1.6 0.1
v -0.2 1.6 -0.2
v -0.2 1.6 -0.3
v -0.2 2.1 0.2
v -0.2 2.1 0.1
v -0.2 2.1 -0.2
v -0.2 2.1 -0.3
v -0.2 2.2 0.2
v -0.2 2.2 0.1
v -0.2 2.2 -0.2
v -0.2 2.2 -0.3
v -0.1 1.4 0
v -0.1 1.4 -0.1
v -0.1 1.5 0
v -0.1 1.5 -0.1
v -0.1 2.2 0
v -0.1 2.2 -0.1
v -0.1 2.3 0
v -0.1 2.3 -0.1
v 0 1.4 0
v 0 1.4 -0.1
v 0 1.5 0
v 0 1.5 -0.1
v 0 2.2 0
v 0 2.2 -0.1
v 0 2.3 0
v 0 2.3 -0.1
v 0.1 1.5 0.2
v 0.1 1.5 0.1
v 0.1 1.5 -0.2
v 0.1 1.5 -0.3
v 0.1 1.6 0.2
v 0.1 1.6 0.1
v 0.1 1.6 -0.2
v 0.1 1.6 -0.3
v 0.1 2.1 0.2
v 0.1 2.1 0.1
v 0.1 2.1 -0.2
v 0.1 2.1 -0.3
v 0.1 2.2 0.2
v 0.1 2.2 0.1
v 0.1 2.2 -0.2
v 0.1 2.2 -0.3
v 0.2 1.5 0.1
v 0.2 1.5 0
v 0.2 1.5 -0.2
v 0.2 1.6 0.2
v 0.2 1.6 0.1
v 0.2 1.6 -0.2
v 0.2 1.6 -0.3
v 0.2 1.7 0
v 0.2 1.7 -0.1
v 0.2 1.8 0.2
v 0.2 1.8 0.1
v 0.2 1.9 0
v 0.2 1.9 -0.1
v 0.2 2 0.2
v 0.2 2 0.1
v 0.2 2.1 0.2
v 0.2 2.1 0.1
v 0.2 2.1 0
v 0.2 2.1 -0.2
v 0.2 2.1 -0.3
v 0.2 2.2 0.1
v 0.2 2.2 -0.2
v -0.3 1.6 0.2
v -0.3 1.7 0.2
v -0.3 2 0.2
v -0.3 2.1 0.2
v -0.2 1.5 0.2
v -0.2 1.6 0.2
v -0.2 2.1 0.2
v -0.2 2.2 0.2
v 0.1 1.5 0.2
v 0.1 1.6 0.2
v 0.1 1.7 0.2
v 0.1 1.8 0.2
v 0.1 2.1 0.2
v 0.1 2.2 0.2
v 0.2 1.6 0.2
v 0.2 1.8 0.2
v 0.2 2 0.2
v 0.2 2.1 0.2
v -0.3 1.5 0.1
v -0.3 1.6 0.1
v -0.3 2.1 0.1
v -0.3 2.2 0.1
v -0.2 1.5 0.1
v -0.2 1.6 0.1
v -0.2 2.1 0.1
v -0.2 2.2 0.1
v 0.1 1.5 0.1
v 0.1 1.6 0.1
v 0.1 2.1 0.1
v 0.1 2.2 0.1
v 0.2 1.5 0.1
v 0.2 1.6 0.1
v 0.2 2.1 0.1
v 0.2 2.2 0.1
v -0.1 1.4 0
v -0.1 1.5 0
v -0.1 2.2 0
v -0.1 2.3 0
v 0 1.4 0
v 0 1.5 0
v 0 2.2 0
v 0 2.3 0
v -0.1 1.4 -0.1
v -0.1 1.5 -0.1
v -0.1 2.2 -0.1
v -0.1 2.3 -0.1
v 0 1.4 -0.1
v 0 1.5 -0.1
v 0 2.2 -0.1
v 0 2.3 -0.1
v -0.3 1.5 -0.2
v -0.3 1.6 -0.2
v -0.3 2.1 -0.2
v -0.3 2.2 -0.2
v -0.2 1.5 -0.2
v -0.2 1.6 -0.2
v -0.2 2.1 -0.2
v -0.2 2.2 -0.2
v 0.1 1.5 -0.2
v 0.1 1.6 -0.2
v 0.1 2.1 -0.2
v 0.1 2.2 -0.2
v 0.2 1.5 -0.2
v 0.2 1.6 -0.2
v 0.2 2.1 -0.2
v 0.2 2.2 -0.2
v -0.3 1.6 -0.3
v -0.3 1.7 -0.3
v -0.3 1.9 -0.3
v -0.3 2.1 -0.3
v -0.2 1.5 -0.3
v -0.2 1.6 -0.3
v -0.2 1.7 -0.3
v -0.2 1.9 -0.3
v -0.2 2.1 -0.3
v -0.2 2.2 -0.3
v -0.1 1.6 -0.3
v -0.1 1.8 -0.3
v -0.1 2 -0.3
v -0.1 2.2 -0.3
v 0 1.8 -0.3
v 0 2 -0.3
v 0.1 1.5 -0.3
v 0.1 1.6 -0.3
v 0.1 2.1 -0.3
v 0.1 2.2 -0.3
v 0.2 1.6 -0.3
v 0.2 2.1 -0.3
v -0.1 1.4 0
v 0 1.4 0
v -0.1 1.4 -0.1
v 0 1.4 -0.1
v -0.2 1.5 0.2
v 0.1 1.5 0.2
v -0.3 1.5 0.1
v -0.2 1.5 0.1
v 0.1 1.5 0.1
v 0.2 1.5 0.1
v -0.1 1.5 0
v 0 1.5 0
v 0.1 1.5 0
v 0.2 1.5 0
v -0.1 1.5 -0.1
v 0 1.5 -0.1
v -0.3 1.5 -0.2
v -0.2 1.5 -0.2
v 0.1 1.5 -0.2
v 0.2 1.5 -0.2
v -0.2 1.5 -0.3
v 0.1 1.5 -0.3
v -0.3 1.6 0.2
v -0.2 1.6 0.2
v 0.1 1.6 0.2
v 0.2 1.6 0.2
v -0.3 1.6 0.1
v -0.2 1.6 0.1
v 0.1 1.6 0.1
v 0.2 1.6 0.1
v -0.3 1.6 -0.2
v -0.2 1.6 -0.2
v 0.1 1.6 -0.2
v 0.2 1.6 -0.2
v -0.3 1.6 -0.3
v -0.2 1.6 -0.3
v 0.1 1.6 -0.3
v 0.2 1.6 -0.3
v -0.3 2.1 0.2
v -0.2 2.1 0.2
v 0.1 2.1 0.2
v 0.2 2.1 0.2
v -0.3 2.1 0.1
v -0.2 2.1 0.1
v 0.1 2.1 0.1
v 0.2 2.1 0.1
v -0.3 2.1 -0.2
v -0.2 2.1 -0.2
v 0.1 2.1 -0.2
v 0.2 2.1 -0.2
v -0.3 2.1 -0.3
v -0.2 2.1 -0.3
v 0.1 2.1 -0.3
v 0.2 2.1 -0.3
v -0.2 2.2 0.2
v 0.1 2.2 0.2
v -0.3 2.2 0.1
v -0.2 2.2 0.1
v 0.1 2.2 0.1
v 0.2 2.2 0.1
v -0.1 2.2 0
v 0 2.2 0
v -0.1 2.2 -0.1
v 0 2.2 -0.1
v -0.3 2.2 -0.2
v -0.2 2.2 -0.2
v -0.1 2.2 -0.2
v 0.1 2.2 -0.2
v 0.2 2.2 -0.2
v -0.2 2.2 -0.3
v -0.1 2.2 -0.3
v 0.1 2.2 -0.3
v -0.1 2.3 0
v 0 2.3 0
v -0.1 2.3 -0.1
v 0 2.3 -0.1

# faces
f 4/5/1 2/5/1 1/5/1
f 5/5/1 2/5/1 4/5/1
f 7/5/1 4/5/1 3/5/1
f 7/5/1 6/5/1 5/5/1
f 7/5/1 5/5/1 4/5/1
f 8/5/1 6/5/1 7/5/1
f 9/1/1 8/1/1 7/1/1
f 10/1/1 8/1/1 9/1/1
f 11/1/1 9/1/1 7/1/1
f 12/5/1 10/5/1 9/5/1
f 12/1/1 9/1/1 11/1/1
f 13/5/1 12/5/1 11/5/1
f 14/5/1 12/5/1 13/5/1
f 15/5/1 10/5/1 12/5/1
f 15/5/1 12/5/1 14/5/1
f 16/5/1 10/5/1 15/5/1
f 17/5/1 15/5/1 14/5/1
f 18/5/1 15/5/1 17/5/1
f 23/5/1 20/5/1 19/5/1
f 24/5/1 20/5/1 23/5/1
f 25/4/1 22/4/1 21/4/1
f 26/4/1 22/4/1 25/4/1
f 31/5/1 28/5/1 27/5/1
f 32/5/1 28/5/1 31/5/1
f 33/5/1 30/5/1 29/5/1
f 34/5/1 30/5/1 33/5/1
f 37/3/1 36/3/1 35/3/1
f 38/3/1 36/3/1 37/3/1
f 41/3/1 40/3/1 39/3/1
f 42/3/1 40/3/1 41/3/1
f 43/3/2 44/3/2 45/3/2
f 45/3/2 44/3/2 46/3/2
f 47/3/2 48/3/2 49/3/2
f 49/3/2 48/3/2 50/3/2
f 51/5/2 52/5/2 55/5/2
f 55/5/2 52/5/2 56/5/2
f 53/4/2 54/4/2 57/4/2
f 57/4/2 54/4/2 58/4/2
f 59/5/2 60/5/2 63/5/2
f 63/5/2 60/5/2 64/5/2
f 61/4/2 62/4/2 65/4/2
f 65/4/2 62/4/2 66/4/2
f 67/5/2 68/5/2 71/5/2
f 68/4/2 69/4/2 72/4/2
f 70/5/2 71/5/2 74/5/2
f 72/4/2 73/4/2 74/4/2
f 68/4/2 72/4/2 74/4/2
f 71/5/2 68/5/2 74/5/2
f 74/4/2 73/4/2 75/4/2
f 70/5/2 74/5/2 76/5/2
f 74/5/2 75/5/2 76/5/2
f 76/5/2 75/5/2 77/5/2
f 77/5/2 75/5/2 78/5/2
f 75/4/2 73/4/2 79/4/2
f 78/5/2 75/5/2 79/5/2
f 76/1/2 77/1/2 80/1/2
f 77/5/2 78/5/2 81/5/2
f 80/1/2 77/1/2 81/1/2
f 80/5/2 81/5/2 82/5/2
f 81/5/2 78/5/2 83/5/2
f 82/5/2 81/5/2 83/5/2
f 78/4/2 79/4/2 84/4/2
f 83/5/2 78/5/2 84/5/2
f 79/4/2 73/4/2 85/4/2
f 84/4/2 79/4/2 85/4/2
f 85/4/2 73/4/2 86/4/2
f 83/4/2 84/4/2 87/4/2
f 84/4/2 85/4/2 87/4/2
f 87/4/2 85/4/2 88/4/2
f 94/5/3 90/5/3 89/5/3
f 95/5/3 92/5/3 91/5/3
f 97/5/3 94/5/3 93/5/3
f 98/5/3 90/5/3 94/5/3
f 98/5/3 94/5/3 97/5/3
f 99/1/3 91/1/3 90/1/3
f 99/5/3 90/5/3 98/5/3
f 100/1/3 91/1/3 99/1/3
f 101/5/3 96/5/3 95/5/3
f 101/5/3 95/5/3 91/5/3
f 102/5/3 96/5/3 101/5/3
f 103/5/3 100/5/3 99/5/3
f 103/5/3 99/5/3 98/5/3
f 104/1/3 91/1/3 100/1/3
f 104/5/3 100/5/3 103/5/3
f 105/5/3 101/5/3 91/5/3
f 105/1/3 91/1/3 104/1/3
f 106/5/3 101/5/3 105/5/3
f 111/5/3 108/5/3 107/5/3
f 112/5/3 108/5/3 111/5/3
f 113/5/3 110/5/3 109/5/3
f 114/5/3 110/5/3 113/5/3
f 119/5/3 116/5/3 115/5/3
f 120/5/3 116/5/3 119/5/3
f 121/4/3 118/4/3 117/4/3
f 122/4/3 118/4/3 121/4/3
f 127/3/3 124/3/3 123/3/3
f 128/3/3 124/3/3 127/3/3
f 129/3/3 126/3/3 125/3/3
f 130/3/3 126/3/3 129/3/3
f 131/3/4 132/3/4 135/3/4
f 135/3/4 132/3/4 136/3/4
f 133/3/4 134/3/4 137/3/4
f 137/3/4 134/3/4 138/3/4
f 139/5/4 140/5/4 143/5/4
f 143/5/4 140/5/4 144/5/4
f 141/5/4 142/5/4 145/5/4
f 145/5/4 142/5/4 146/5/4
f 147/4/4 148/4/4 151/4/4
f 151/4/4 148/4/4 152/4/4
f 149/4/4 150/4/4 153/4/4
f 153/4/4 150/4/4 154/4/4
f 155/5/4 156/5/4 160/5/4
f 156/1/4 157/1/4 161/1/4
f 160/5/4 156/5/4 161/5/4
f 157/5/4 158/5/4 162/5/4
f 161/1/4 157/1/4 162/1/4
f 162/5/4 158/5/4 163/5/4
f 160/5/4 161/5/4 165/5/4
f 163/5/4 164/5/4 165/5/4
f 162/5/4 163/5/4 165/5/4
f 161/5/4 162/5/4 165/5/4
f 159/4/4 160/4/4 165/4/4
f 165/5/4 164/5/4 166/5/4
f 166/5/4 164/5/4 167/5/4
f 167/5/4 164/5/4 168/5/4
f 165/4/4 166/4/4 169/4/4
f 166/5/4 167/5/4 169/5/4
f 167/4/4 168/4/4 170/4/4
f 169/5/4 167/5/4 170/5/4
f 159/4/4 165/4/4 171/4/4
f 165/4/4 169/4/4 171/4/4
f 169/4/4 170/4/4 171/4/4
f 171/4/4 170/4/4 172/4/4
f 170/4/4 168/4/4 173/4/4
f 172/4/4 170/4/4 173/4/4
f 173/4/4 168/4/4 174/4/4
f 172/4/4 173/4/4 175/4/4
f 175/4/4 173/4/4 176/4/4
f 179/3/5 178/3/5 177/3/5
f 180/3/5 178/3/5 179/3/5
f 184/5/5 182/5/5 181/5/5
f 185/5/5 182/5/5 184/5/5
f 187/2/5 185/2/5 184/2/5
f 188/2/5 185/2/5 187/2/5
f 189/5/5 186/5/5 185/5/5
f 189/2/5 185/2/5 188/2/5
f 190/5/5 186/5/5 189/5/5
f 191/2/5 187/2/5 184/2/5
f 192/2/5 189/2/5 188/2/5
f 193/5/5 184/5/5 183/5/5
f 194/2/5 192/2/5 191/2/5
f 194/5/5 184/5/5 193/5/5
f 194/2/5 191/2/5 184/2/5
f 195/4/5 190/4/5 189/4/5
f 195/2/5 192/2/5 194/2/5
f 195/2/5 189/2/5 192/2/5
f 196/4/5 190/4/5 195/4/5
f 197/4/5 195/4/5 194/4/5
f 198/4/5 195/4/5 197/4/5
f 203/5/5 200/5/5 199/5/5
f 204/5/5 200/5/5 203/5/5
f 205/5/5 202/5/5 201/5/5
f 206/5/5 202/5/5 205/5/5
f 211/5/5 208/5/5 207/5/5
f 212/5/5 208/5/5 211/5/5
f 213/4/5 210/4/5 209/4/5
f 214/4/5 210/4/5 213/4/5
f 215/5/6 216/5/6 219/5/6
f 219/5/6 216/5/6 220/5/6
f 217/5/6 218/5/6 221/5/6
f 221/5/6 218/5/6 222/5/6
f 223/5/6 224/5/6 227/5/6
f 227/5/6 224/5/6 228/5/6
f 225/4/6 226/4/6 229/4/6
f 229/4/6 226/4/6 230/4/6
f 231/5/6 232/5/6 234/5/6
f 234/5/6 232/5/6 235/5/6
f 234/2/6 235/2/6 237/2/6
f 237/2/6 235/2/6 238/2/6
f 234/2/6 237/2/6 239/2/6
f 238/2/6 235/2/6 240/2/6
f 233/5/6 234/5/6 241/5/6
f 239/2/6 240/2/6 242/2/6
f 241/5/6 234/5/6 242/5/6
f 234/2/6 239/2/6 242/2/6
f 242/2/6 240/2/6 243/2/6
f 235/4/6 236/4/6 244/4/6
f 243/2/6 240/2/6 244/2/6
f 240/2/6 235/2/6 244/2/6
f 244/4/6 236/4/6 245/4/6
f 242/5/6 243/5/6 246/5/6
f 243/4/6 244/4/6 247/4/6
f 246/5/6 243/5/6 247/5/6
f 247/4/6 244/4/6 248/4/6
f 249/3/6 250/3/6 251/3/6
f 251/3/6 250/3/6 252/3/6
