# MagicaVoxel @ Ephtracy

# group
o 

# material
mtllib Architeture1-7.mtl
usemtl palette

# normals
vn -1 0 0
vn 1 0 0
vn 0 0 1
vn 0 0 -1
vn 0 -1 0
vn 0 1 0

# texcoords
vt 0.0253906 0.5
vt 0.0332031 0.5
vt 0.130859 0.5
vt 0.134766 0.5
vt 0.138672 0.5

# verts
v -0.1 0 0.3
v -0.1 0 -0.1
v -0.1 0.1 0.4
v -0.1 0.1 0.3
v -0.1 0.1 0.2
v -0.1 0.1 0
v -0.1 0.1 -0.1
v -0.1 0.1 -0.2
v -0.1 0.2 0.3
v -0.1 0.2 0.2
v -0.1 0.2 0
v -0.1 0.2 -0.1
v -0.1 0.4 0.3
v -0.1 0.4 -0.1
v -0.1 0.5 0.3
v -0.1 0.5 -0.1
v -0.1 0.7 0.3
v -0.1 0.7 0.2
v -0.1 0.7 0
v -0.1 0.7 -0.1
v -0.1 0.8 0.4
v -0.1 0.8 0.3
v -0.1 0.8 0.2
v -0.1 0.8 0
v -0.1 0.8 -0.1
v -0.1 0.8 -0.2
v -0.1 0.9 0.3
v -0.1 0.9 -0.1
v 0 0.5 -0.2
v 0 0.5 -0.4
v 0 0.6 -0.2
v 0 0.6 -0.4
v 0.1 0.3 0.3
v 0.1 0.3 -0.1
v 0.1 0.4 0.3
v 0.1 0.4 -0.1
v 0 0 0.3
v 0 0 -0.1
v 0 0.1 0.4
v 0 0.1 0.3
v 0 0.1 0.2
v 0 0.1 0
v 0 0.1 -0.1
v 0 0.1 -0.2
v 0 0.2 0.3
v 0 0.2 0.2
v 0 0.2 0
v 0 0.2 -0.1
v 0 0.3 0.4
v 0 0.3 0.3
v 0 0.4 0.4
v 0 0.4 0.3
v 0 0.4 -0.1
v 0 0.4 -0.2
v 0 0.5 0.4
v 0 0.5 0.3
v 0 0.6 0.4
v 0 0.6 0.3
v 0 0.6 -0.1
v 0 0.6 -0.2
v 0 0.7 0.3
v 0 0.7 0.2
v 0 0.7 0
v 0 0.7 -0.1
v 0 0.8 0.4
v 0 0.8 0.3
v 0 0.8 0.2
v 0 0.8 0
v 0 0.8 -0.1
v 0 0.8 -0.2
v 0 0.9 0.3
v 0 0.9 -0.1
v 0.1 0.1 0.2
v 0.1 0.1 0
v 0.1 0.2 0.2
v 0.1 0.2 0
v 0.1 0.4 0.3
v 0.1 0.4 -0.1
v 0.1 0.4 -0.2
v 0.1 0.5 0.3
v 0.1 0.5 -0.1
v 0.1 0.5 -0.2
v 0.1 0.5 -0.4
v 0.1 0.6 -0.1
v 0.1 0.6 -0.4
v 0.1 0.7 0.2
v 0.1 0.7 0
v 0.1 0.8 0.2
v 0.1 0.8 0
v 0.2 0.3 0.4
v 0.2 0.3 -0.1
v 0.2 0.4 0.4
v 0.2 0.4 -0.1
v 0.2 0.5 0.4
v 0.2 0.5 -0.1
v 0.2 0.6 0.4
v 0.2 0.6 -0.1
v -0.1 0.1 0.4
v -0.1 0.8 0.4
v 0 0.1 0.4
v 0 0.3 0.4
v 0 0.4 0.4
v 0 0.5 0.4
v 0 0.6 0.4
v 0 0.8 0.4
v 0.2 0.3 0.4
v 0.2 0.4 0.4
v 0.2 0.5 0.4
v 0.2 0.6 0.4
v -0.1 0 0.3
v -0.1 0.1 0.3
v -0.1 0.8 0.3
v -0.1 0.9 0.3
v 0 0 0.3
v 0 0.1 0.3
v 0 0.4 0.3
v 0 0.5 0.3
v 0 0.8 0.3
v 0 0.9 0.3
v 0.1 0.4 0.3
v 0.1 0.5 0.3
v 0 0.1 0.2
v 0 0.2 0.2
v 0 0.7 0.2
v 0 0.8 0.2
v 0.1 0.1 0.2
v 0.1 0.2 0.2
v 0.1 0.7 0.2
v 0.1 0.8 0.2
v 0 0.3 0.3
v 0 0.4 0.3
v 0.1 0.3 0.3
v 0.1 0.4 0.3
v 0 0.1 0
v 0 0.2 0
v 0 0.7 0
v 0 0.8 0
v 0.1 0.1 0
v 0.1 0.2 0
v 0.1 0.7 0
v 0.1 0.8 0
v -0.1 0 -0.1
v -0.1 0.1 -0.1
v -0.1 0.8 -0.1
v -0.1 0.9 -0.1
v 0 0 -0.1
v 0 0.1 -0.1
v 0 0.8 -0.1
v 0 0.9 -0.1
v 0.1 0.3 -0.1
v 0.1 0.4 -0.1
v 0.1 0.5 -0.1
v 0.1 0.6 -0.1
v 0.2 0.3 -0.1
v 0.2 0.4 -0.1
v 0.2 0.5 -0.1
v 0.2 0.6 -0.1
v -0.1 0.1 -0.2
v -0.1 0.8 -0.2
v 0 0.1 -0.2
v 0 0.4 -0.2
v 0 0.5 -0.2
v 0 0.6 -0.2
v 0 0.8 -0.2
v 0.1 0.4 -0.2
v 0.1 0.5 -0.2
v 0 0.5 -0.4
v 0 0.6 -0.4
v 0.1 0.5 -0.4
v 0.1 0.6 -0.4
v -0.1 0 0.3
v 0 0 0.3
v -0.1 0 -0.1
v 0 0 -0.1
v -0.1 0.1 0.4
v 0 0.1 0.4
v -0.1 0.1 0.3
v 0 0.1 0.3
v 0 0.1 0.2
v 0.1 0.1 0.2
v 0 0.1 0
v 0.1 0.1 0
v -0.1 0.1 -0.1
v 0 0.1 -0.1
v -0.1 0.1 -0.2
v 0 0.1 -0.2
v 0 0.3 0.4
v 0.2 0.3 0.4
v 0 0.3 0.3
v 0.1 0.3 0.3
v 0.1 0.3 -0.1
v 0.2 0.3 -0.1
v 0 0.4 0.3
v 0.1 0.4 0.3
v 0 0.4 -0.1
v 0.1 0.4 -0.1
v 0 0.4 -0.2
v 0.1 0.4 -0.2
v 0 0.5 0.4
v 0.2 0.5 0.4
v 0 0.5 0.3
v 0.1 0.5 0.3
v 0.1 0.5 -0.1
v 0.2 0.5 -0.1
v 0 0.5 -0.2
v 0.1 0.5 -0.2
v 0 0.5 -0.4
v 0.1 0.5 -0.4
v 0 0.7 0.2
v 0.1 0.7 0.2
v 0 0.7 0
v 0.1 0.7 0
v 0 0.2 0.2
v 0.1 0.2 0.2
v 0 0.2 0
v 0.1 0.2 0
v 0 0.4 0.4
v 0.2 0.4 0.4
v 0 0.4 0.3
v 0.1 0.4 0.3
v 0.1 0.4 -0.1
v 0.2 0.4 -0.1
v 0 0.6 0.4
v 0.2 0.6 0.4
v 0 0.6 0.3
v 0.1 0.6 0.3
v 0 0.6 -0.1
v 0.1 0.6 -0.1
v 0.2 0.6 -0.1
v 0 0.6 -0.2
v 0 0.6 -0.4
v 0.1 0.6 -0.4
v -0.1 0.8 0.4
v 0 0.8 0.4
v -0.1 0.8 0.3
v 0 0.8 0.3
v 0 0.8 0.2
v 0.1 0.8 0.2
v 0 0.8 0
v 0.1 0.8 0
v -0.1 0.8 -0.1
v 0 0.8 -0.1
v -0.1 0.8 -0.2
v 0 0.8 -0.2
v -0.1 0.9 0.3
v 0 0.9 0.3
v -0.1 0.9 -0.1
v 0 0.9 -0.1

# faces
f 4/4/1 2/4/1 1/4/1
f 5/4/1 2/4/1 4/4/1
f 6/4/1 2/4/1 5/4/1
f 7/4/1 2/4/1 6/4/1
f 9/5/1 4/5/1 3/5/1
f 9/5/1 5/5/1 4/5/1
f 10/4/1 6/4/1 5/4/1
f 10/5/1 5/5/1 9/5/1
f 11/5/1 8/5/1 7/5/1
f 11/4/1 6/4/1 10/4/1
f 11/5/1 7/5/1 6/5/1
f 12/5/1 8/5/1 11/5/1
f 13/4/1 10/4/1 9/4/1
f 13/5/1 9/5/1 3/5/1
f 13/4/1 12/4/1 11/4/1
f 13/4/1 11/4/1 10/4/1
f 14/5/1 8/5/1 12/5/1
f 14/4/1 12/4/1 13/4/1
f 15/5/1 13/5/1 3/5/1
f 15/5/1 14/5/1 13/5/1
f 16/5/1 8/5/1 14/5/1
f 16/5/1 14/5/1 15/5/1
f 17/5/1 15/5/1 3/5/1
f 17/4/1 16/4/1 15/4/1
f 18/4/1 16/4/1 17/4/1
f 19/4/1 16/4/1 18/4/1
f 20/5/1 8/5/1 16/5/1
f 20/4/1 16/4/1 19/4/1
f 21/5/1 17/5/1 3/5/1
f 21/5/1 18/5/1 17/5/1
f 22/5/1 18/5/1 21/5/1
f 23/4/1 19/4/1 18/4/1
f 23/5/1 18/5/1 22/5/1
f 24/5/1 20/5/1 19/5/1
f 24/4/1 19/4/1 23/4/1
f 25/5/1 8/5/1 20/5/1
f 25/5/1 20/5/1 24/5/1
f 26/5/1 8/5/1 25/5/1
f 27/4/1 24/4/1 23/4/1
f 27/4/1 25/4/1 24/4/1
f 27/4/1 23/4/1 22/4/1
f 28/4/1 25/4/1 27/4/1
f 31/3/1 30/3/1 29/3/1
f 32/3/1 30/3/1 31/3/1
f 35/4/1 34/4/1 33/4/1
f 36/4/1 34/4/1 35/4/1
f 37/4/2 38/4/2 40/4/2
f 40/4/2 38/4/2 41/4/2
f 41/4/2 38/4/2 42/4/2
f 42/4/2 38/4/2 43/4/2
f 39/5/2 40/5/2 45/5/2
f 40/5/2 41/5/2 45/5/2
f 45/5/2 41/5/2 46/5/2
f 43/5/2 44/5/2 47/5/2
f 42/5/2 43/5/2 47/5/2
f 47/5/2 44/5/2 48/5/2
f 39/5/2 45/5/2 49/5/2
f 45/4/2 46/4/2 50/4/2
f 49/5/2 45/5/2 50/5/2
f 46/4/2 47/4/2 50/4/2
f 47/4/2 48/4/2 50/4/2
f 50/4/2 48/4/2 52/4/2
f 48/5/2 44/5/2 53/5/2
f 52/4/2 48/4/2 53/4/2
f 53/5/2 44/5/2 54/5/2
f 51/5/2 52/5/2 55/5/2
f 55/5/2 52/5/2 56/5/2
f 57/5/2 58/5/2 61/5/2
f 58/4/2 59/4/2 61/4/2
f 61/4/2 59/4/2 62/4/2
f 62/4/2 59/4/2 63/4/2
f 59/5/2 60/5/2 64/5/2
f 63/4/2 59/4/2 64/4/2
f 57/5/2 61/5/2 65/5/2
f 61/5/2 62/5/2 65/5/2
f 65/5/2 62/5/2 66/5/2
f 66/5/2 62/5/2 67/5/2
f 63/5/2 64/5/2 68/5/2
f 64/5/2 60/5/2 69/5/2
f 68/5/2 64/5/2 69/5/2
f 69/5/2 60/5/2 70/5/2
f 67/4/2 68/4/2 71/4/2
f 66/4/2 67/4/2 71/4/2
f 68/4/2 69/4/2 71/4/2
f 71/4/2 69/4/2 72/4/2
f 73/4/2 74/4/2 75/4/2
f 75/4/2 74/4/2 76/4/2
f 77/2/2 78/2/2 80/2/2
f 78/3/2 79/3/2 81/3/2
f 80/2/2 78/2/2 81/2/2
f 81/3/2 79/3/2 82/3/2
f 82/3/2 83/3/2 84/3/2
f 81/3/2 82/3/2 84/3/2
f 84/3/2 83/3/2 85/3/2
f 86/4/2 87/4/2 88/4/2
f 88/4/2 87/4/2 89/4/2
f 90/4/2 91/4/2 92/4/2
f 92/4/2 91/4/2 93/4/2
f 94/4/2 95/4/2 96/4/2
f 96/4/2 95/4/2 97/4/2
f 100/5/3 99/5/3 98/5/3
f 101/5/3 99/5/3 100/5/3
f 102/5/3 99/5/3 101/5/3
f 103/5/3 99/5/3 102/5/3
f 104/5/3 99/5/3 103/5/3
f 105/5/3 99/5/3 104/5/3
f 106/4/3 102/4/3 101/4/3
f 107/4/3 102/4/3 106/4/3
f 108/4/3 104/4/3 103/4/3
f 109/4/3 104/4/3 108/4/3
f 114/4/3 111/4/3 110/4/3
f 115/4/3 111/4/3 114/4/3
f 118/4/3 113/4/3 112/4/3
f 119/4/3 113/4/3 118/4/3
f 120/2/3 117/2/3 116/2/3
f 121/2/3 117/2/3 120/2/3
f 126/4/3 123/4/3 122/4/3
f 127/4/3 123/4/3 126/4/3
f 128/4/3 125/4/3 124/4/3
f 129/4/3 125/4/3 128/4/3
f 130/4/4 131/4/4 132/4/4
f 132/4/4 131/4/4 133/4/4
f 134/4/4 135/4/4 138/4/4
f 138/4/4 135/4/4 139/4/4
f 136/4/4 137/4/4 140/4/4
f 140/4/4 137/4/4 141/4/4
f 142/4/4 143/4/4 146/4/4
f 146/4/4 143/4/4 147/4/4
f 144/4/4 145/4/4 148/4/4
f 148/4/4 145/4/4 149/4/4
f 150/4/4 151/4/4 154/4/4
f 154/4/4 151/4/4 155/4/4
f 152/4/4 153/4/4 156/4/4
f 156/4/4 153/4/4 157/4/4
f 158/5/4 159/5/4 160/5/4
f 160/5/4 159/5/4 161/5/4
f 161/5/4 159/5/4 162/5/4
f 162/5/4 159/5/4 163/5/4
f 163/5/4 159/5/4 164/5/4
f 161/3/4 162/3/4 165/3/4
f 165/3/4 162/3/4 166/3/4
f 167/3/4 168/3/4 169/3/4
f 169/3/4 168/3/4 170/3/4
f 173/4/5 172/4/5 171/4/5
f 174/4/5 172/4/5 173/4/5
f 177/5/5 176/5/5 175/5/5
f 178/5/5 176/5/5 177/5/5
f 181/4/5 180/4/5 179/4/5
f 182/4/5 180/4/5 181/4/5
f 185/5/5 184/5/5 183/5/5
f 186/5/5 184/5/5 185/5/5
f 189/4/5 188/4/5 187/4/5
f 190/4/5 188/4/5 189/4/5
f 191/4/5 188/4/5 190/4/5
f 192/4/5 188/4/5 191/4/5
f 195/2/5 194/2/5 193/2/5
f 196/2/5 194/2/5 195/2/5
f 197/3/5 196/3/5 195/3/5
f 198/3/5 196/3/5 197/3/5
f 201/4/5 200/4/5 199/4/5
f 202/4/5 200/4/5 201/4/5
f 203/4/5 200/4/5 202/4/5
f 204/4/5 200/4/5 203/4/5
f 207/3/5 206/3/5 205/3/5
f 208/3/5 206/3/5 207/3/5
f 211/4/5 210/4/5 209/4/5
f 212/4/5 210/4/5 211/4/5
f 213/4/6 214/4/6 215/4/6
f 215/4/6 214/4/6 216/4/6
f 217/4/6 218/4/6 219/4/6
f 219/4/6 218/4/6 220/4/6
f 220/4/6 218/4/6 221/4/6
f 221/4/6 218/4/6 222/4/6
f 223/4/6 224/4/6 225/4/6
f 225/4/6 224/4/6 226/4/6
f 225/1/6 226/1/6 227/1/6
f 226/4/6 224/4/6 228/4/6
f 227/1/6 226/1/6 228/1/6
f 228/4/6 224/4/6 229/4/6
f 227/3/6 228/3/6 230/3/6
f 230/3/6 228/3/6 231/3/6
f 231/3/6 228/3/6 232/3/6
f 233/5/6 234/5/6 235/5/6
f 235/5/6 234/5/6 236/5/6
f 237/4/6 238/4/6 239/4/6
f 239/4/6 238/4/6 240/4/6
f 241/5/6 242/5/6 243/5/6
f 243/5/6 242/5/6 244/5/6
f 245/4/6 246/4/6 247/4/6
f 247/4/6 246/4/6 248/4/6
