# MagicaVoxel @ Ephtracy

# group
o 

# material
mtllib Architeture1-5.mtl
usemtl palette

# normals
vn -1 0 0
vn 1 0 0
vn 0 0 1
vn 0 0 -1
vn 0 -1 0
vn 0 1 0

# texcoords
vt 0.130859 0.5
vt 0.134766 0.5
vt 0.138672 0.5

# verts
v -0.2 0.1 0.1
v -0.2 0.1 -0.1
v -0.2 0.2 0.2
v -0.2 0.2 0.1
v -0.2 0.2 -0.1
v -0.2 0.2 -0.2
v -0.2 0.8 0.2
v -0.2 0.8 0.1
v -0.2 0.8 -0.1
v -0.2 0.8 -0.2
v -0.2 0.9 0.1
v -0.2 0.9 -0.1
v 0 0.8 0.1
v 0 0.8 -0.1
v 0 0.9 0.1
v 0 0.9 -0.1
v 0.1 0.9 0.1
v 0.1 0.9 -0.1
v 0.1 1 0.1
v 0.1 1 -0.1
v -0.1 0.1 0.1
v -0.1 0.1 -0.1
v -0.1 0.2 0.2
v -0.1 0.2 0.1
v -0.1 0.2 -0.1
v -0.1 0.2 -0.2
v -0.1 0.5 0.1
v -0.1 0.5 -0.1
v -0.1 0.8 0.2
v -0.1 0.8 0.1
v -0.1 0.8 -0.1
v -0.1 0.8 -0.2
v -0.1 0.9 0.1
v -0.1 0.9 -0.1
v 0 0.5 0.1
v 0 0.5 -0.1
v 0 0.6 0.1
v 0 0.6 -0.1
v 0.1 0.6 0.1
v 0.1 0.6 -0.1
v 0.1 0.7 0.1
v 0.1 0.7 -0.1
v 0.2 0.7 0.1
v 0.2 0.7 -0.1
v 0.2 0.8 0.1
v 0.2 0.8 -0.1
v 0.3 0.8 0.1
v 0.3 0.8 -0.1
v 0.3 1 0.1
v 0.3 1 -0.1
v -0.2 0.2 0.2
v -0.2 0.8 0.2
v -0.1 0.2 0.2
v -0.1 0.8 0.2
v -0.2 0.1 0.1
v -0.2 0.2 0.1
v -0.2 0.8 0.1
v -0.2 0.9 0.1
v -0.1 0.1 0.1
v -0.1 0.2 0.1
v -0.1 0.5 0.1
v -0.1 0.8 0.1
v -0.1 0.9 0.1
v 0 0.5 0.1
v 0 0.6 0.1
v 0 0.8 0.1
v 0 0.9 0.1
v 0.1 0.6 0.1
v 0.1 0.7 0.1
v 0.1 0.9 0.1
v 0.1 1 0.1
v 0.2 0.7 0.1
v 0.2 0.8 0.1
v 0.3 0.8 0.1
v 0.3 1 0.1
v -0.2 0.1 -0.1
v -0.2 0.2 -0.1
v -0.2 0.8 -0.1
v -0.2 0.9 -0.1
v -0.1 0.1 -0.1
v -0.1 0.2 -0.1
v -0.1 0.5 -0.1
v -0.1 0.8 -0.1
v -0.1 0.9 -0.1
v 0 0.5 -0.1
v 0 0.6 -0.1
v 0 0.8 -0.1
v 0 0.9 -0.1
v 0.1 0.6 -0.1
v 0.1 0.7 -0.1
v 0.1 0.9 -0.1
v 0.1 1 -0.1
v 0.2 0.7 -0.1
v 0.2 0.8 -0.1
v 0.3 0.8 -0.1
v 0.3 1 -0.1
v -0.2 0.2 -0.2
v -0.2 0.8 -0.2
v -0.1 0.2 -0.2
v -0.1 0.8 -0.2
v -0.2 0.1 0.1
v -0.1 0.1 0.1
v -0.2 0.1 -0.1
v -0.1 0.1 -0.1
v -0.2 0.2 0.2
v -0.1 0.2 0.2
v -0.2 0.2 0.1
v -0.1 0.2 0.1
v -0.2 0.2 -0.1
v -0.1 0.2 -0.1
v -0.2 0.2 -0.2
v -0.1 0.2 -0.2
v -0.1 0.5 0.1
v 0 0.5 0.1
v -0.1 0.5 -0.1
v 0 0.5 -0.1
v 0 0.6 0.1
v 0.1 0.6 0.1
v 0 0.6 -0.1
v 0.1 0.6 -0.1
v 0.1 0.7 0.1
v 0.2 0.7 0.1
v 0.1 0.7 -0.1
v 0.2 0.7 -0.1
v 0.2 0.8 0.1
v 0.3 0.8 0.1
v 0.2 0.8 -0.1
v 0.3 0.8 -0.1
v -0.2 0.8 0.2
v -0.1 0.8 0.2
v -0.2 0.8 0.1
v -0.1 0.8 0.1
v 0 0.8 0.1
v -0.2 0.8 -0.1
v -0.1 0.8 -0.1
v 0 0.8 -0.1
v -0.2 0.8 -0.2
v -0.1 0.8 -0.2
v -0.2 0.9 0.1
v -0.1 0.9 0.1
v 0 0.9 0.1
v 0.1 0.9 0.1
v -0.2 0.9 -0.1
v -0.1 0.9 -0.1
v 0 0.9 -0.1
v 0.1 0.9 -0.1
v 0.1 1 0.1
v 0.3 1 0.1
v 0.1 1 -0.1
v 0.3 1 -0.1

# faces
f 4/2/1 2/2/1 1/2/1
f 5/2/1 2/2/1 4/2/1
f 7/2/1 4/2/1 3/2/1
f 8/1/1 5/1/1 4/1/1
f 8/2/1 4/2/1 7/2/1
f 9/2/1 6/2/1 5/2/1
f 9/1/1 5/1/1 8/1/1
f 10/2/1 6/2/1 9/2/1
f 11/2/1 9/2/1 8/2/1
f 12/2/1 9/2/1 11/2/1
f 15/3/1 14/3/1 13/3/1
f 16/3/1 14/3/1 15/3/1
f 19/3/1 18/3/1 17/3/1
f 20/3/1 18/3/1 19/3/1
f 21/2/2 22/2/2 24/2/2
f 24/2/2 22/2/2 25/2/2
f 23/2/2 24/2/2 27/2/2
f 24/1/2 25/1/2 27/1/2
f 25/2/2 26/2/2 28/2/2
f 27/1/2 25/1/2 28/1/2
f 23/2/2 27/2/2 29/2/2
f 29/2/2 27/2/2 30/2/2
f 28/2/2 26/2/2 31/2/2
f 31/2/2 26/2/2 32/2/2
f 30/2/2 31/2/2 33/2/2
f 33/2/2 31/2/2 34/2/2
f 35/3/2 36/3/2 37/3/2
f 37/3/2 36/3/2 38/3/2
f 39/3/2 40/3/2 41/3/2
f 41/3/2 40/3/2 42/3/2
f 43/3/2 44/3/2 45/3/2
f 45/3/2 44/3/2 46/3/2
f 47/3/2 48/3/2 49/3/2
f 49/3/2 48/3/2 50/3/2
f 53/2/3 52/2/3 51/2/3
f 54/2/3 52/2/3 53/2/3
f 59/2/3 56/2/3 55/2/3
f 60/2/3 56/2/3 59/2/3
f 62/2/3 58/2/3 57/2/3
f 63/2/3 58/2/3 62/2/3
f 64/3/3 62/3/3 61/3/3
f 65/3/3 62/3/3 64/3/3
f 66/3/3 62/3/3 65/3/3
f 68/3/3 67/3/3 66/3/3
f 68/3/3 66/3/3 65/3/3
f 69/3/3 67/3/3 68/3/3
f 70/3/3 67/3/3 69/3/3
f 72/3/3 70/3/3 69/3/3
f 72/3/3 71/3/3 70/3/3
f 73/3/3 71/3/3 72/3/3
f 74/3/3 71/3/3 73/3/3
f 75/3/3 71/3/3 74/3/3
f 76/2/4 77/2/4 80/2/4
f 80/2/4 77/2/4 81/2/4
f 78/2/4 79/2/4 83/2/4
f 83/2/4 79/2/4 84/2/4
f 82/3/4 83/3/4 85/3/4
f 85/3/4 83/3/4 86/3/4
f 86/3/4 83/3/4 87/3/4
f 87/3/4 88/3/4 89/3/4
f 86/3/4 87/3/4 89/3/4
f 89/3/4 88/3/4 90/3/4
f 90/3/4 88/3/4 91/3/4
f 90/3/4 91/3/4 93/3/4
f 91/3/4 92/3/4 93/3/4
f 93/3/4 92/3/4 94/3/4
f 94/3/4 92/3/4 95/3/4
f 95/3/4 92/3/4 96/3/4
f 97/2/4 98/2/4 99/2/4
f 99/2/4 98/2/4 100/2/4
f 103/2/5 102/2/5 101/2/5
f 104/2/5 102/2/5 103/2/5
f 107/2/5 106/2/5 105/2/5
f 108/2/5 106/2/5 107/2/5
f 111/2/5 110/2/5 109/2/5
f 112/2/5 110/2/5 111/2/5
f 115/3/5 114/3/5 113/3/5
f 116/3/5 114/3/5 115/3/5
f 119/3/5 118/3/5 117/3/5
f 120/3/5 118/3/5 119/3/5
f 123/3/5 122/3/5 121/3/5
f 124/3/5 122/3/5 123/3/5
f 127/3/5 126/3/5 125/3/5
f 128/3/5 126/3/5 127/3/5
f 129/2/6 130/2/6 131/2/6
f 131/2/6 130/2/6 132/2/6
f 132/3/6 133/3/6 135/3/6
f 135/3/6 133/3/6 136/3/6
f 134/2/6 135/2/6 137/2/6
f 137/2/6 135/2/6 138/2/6
f 139/2/6 140/2/6 143/2/6
f 143/2/6 140/2/6 144/2/6
f 141/3/6 142/3/6 145/3/6
f 145/3/6 142/3/6 146/3/6
f 147/3/6 148/3/6 149/3/6
f 149/3/6 148/3/6 150/3/6
