# MagicaVoxel @ Ephtracy

# group
o 

# material
mtllib Architeture1-4.mtl
usemtl palette

# normals
vn -1 0 0
vn 1 0 0
vn 0 0 1
vn 0 0 -1
vn 0 -1 0
vn 0 1 0

# texcoords
vt 0.0722656 0.5
vt 0.0761719 0.5
vt 0.103516 0.5
vt 0.130859 0.5
vt 0.138672 0.5
vt 0.173828 0.5

# verts
v -2 0 0.1
v -2 0 -0.1
v -2 0.2 0.1
v -2 0.2 0
v -2 0.2 -0.1
v -2 0.3 0.1
v -2 0.3 0
v -2 0.3 -0.1
v -2 0.4 0.1
v -2 0.4 0
v -2 0.5 0
v -2 0.5 -0.1
v -2 0.7 0
v -2 0.7 -0.1
v -2 0.8 0.1
v -2 0.8 0
v -2 1 0.1
v -2 1 0
v -2 1.1 0
v -2 1.1 -0.1
v -2 1.2 0
v -2 1.2 -0.1
v -2 1.3 0.1
v -2 1.3 0
v -2 1.8 0.1
v -2 1.8 0
v -2 1.9 0
v -2 1.9 -0.1
v -2 2 0
v -2 2 -0.1
v -2 2.1 0.1
v -2 2.1 0
v -2 3.2 0.1
v -2 3.2 0
v -2 3.3 0
v -2 3.3 -0.1
v -2 3.4 0.1
v -2 3.4 0
v -2 3.4 -0.1
v -2 3.5 0.1
v -2 3.5 0
v -2 3.6 0
v -2 3.6 -0.1
v -2 3.8 0
v -2 3.8 -0.1
v -2 3.9 0.1
v -2 3.9 0
v -2 4 0.1
v -2 4 -0.1
v -1.7 0.4 0.1
v -1.7 0.4 0
v -1.7 0.5 0.1
v -1.7 0.5 0
v -1.7 3.5 0.1
v -1.7 3.5 0
v -1.7 3.6 0.1
v -1.7 3.6 0
v -1 3.9 0.1
v -1 3.9 0
v -1 4 0.1
v -1 4 0
v -0.6 0.8 0.1
v -0.6 0.8 0
v -0.6 1 0.1
v -0.6 1 0
v -0.6 1.2 0.1
v -0.6 1.2 0
v -0.6 1.4 0.1
v -0.6 1.4 0
v 0.2 1.5 0.1
v 0.2 1.5 0
v 0.2 1.7 0.1
v 0.2 1.7 0
v 0.3 0.4 0.1
v 0.3 0.4 0
v 0.3 0.5 0.1
v 0.3 0.5 0
v 0.3 3.5 0.1
v 0.3 3.5 0
v 0.3 3.6 0.1
v 0.3 3.6 0
v 0.4 1.7 0.1
v 0.4 1.7 0
v 0.4 1.8 0.1
v 0.4 1.8 0
v 0.9 0.8 0.1
v 0.9 0.8 0
v 0.9 1 0.1
v 0.9 1 0
v 0.9 1.3 0.1
v 0.9 1.3 0
v 0.9 1.5 0.1
v 0.9 1.5 0
v 1.3 3.9 0.1
v 1.3 3.9 0
v 1.3 4 0.1
v 1.3 4 0
v -1.3 3.9 0.1
v -1.3 3.9 0
v -1.3 4 0.1
v -1.3 4 0
v -0.9 0.8 0.1
v -0.9 0.8 0
v -0.9 1 0.1
v -0.9 1 0
v -0.9 1.3 0.1
v -0.9 1.3 0
v -0.9 1.5 0.1
v -0.9 1.5 0
v -0.4 1.7 0.1
v -0.4 1.7 0
v -0.4 1.8 0.1
v -0.4 1.8 0
v -0.3 0.4 0.1
v -0.3 0.4 0
v -0.3 0.5 0.1
v -0.3 0.5 0
v -0.3 3.5 0.1
v -0.3 3.5 0
v -0.3 3.6 0.1
v -0.3 3.6 0
v -0.2 1.5 0.1
v -0.2 1.5 0
v -0.2 1.7 0.1
v -0.2 1.7 0
v 0.6 0.8 0.1
v 0.6 0.8 0
v 0.6 1 0.1
v 0.6 1 0
v 0.6 1.2 0.1
v 0.6 1.2 0
v 0.6 1.4 0.1
v 0.6 1.4 0
v 1 3.9 0.1
v 1 3.9 0
v 1 4 0.1
v 1 4 0
v 1.7 0.4 0.1
v 1.7 0.4 0
v 1.7 0.5 0.1
v 1.7 0.5 0
v 1.7 3.5 0.1
v 1.7 3.5 0
v 1.7 3.6 0.1
v 1.7 3.6 0
v 2 0 0.1
v 2 0 -0.1
v 2 0.2 0.1
v 2 0.2 0
v 2 0.2 -0.1
v 2 0.3 0.1
v 2 0.3 0
v 2 0.3 -0.1
v 2 0.4 0.1
v 2 0.4 0
v 2 0.5 0
v 2 0.5 -0.1
v 2 0.7 0
v 2 0.7 -0.1
v 2 0.8 0.1
v 2 0.8 0
v 2 1 0.1
v 2 1 0
v 2 1.1 0
v 2 1.1 -0.1
v 2 1.2 0
v 2 1.2 -0.1
v 2 1.3 0.1
v 2 1.3 0
v 2 1.8 0.1
v 2 1.8 0
v 2 1.9 0
v 2 1.9 -0.1
v 2 2 0
v 2 2 -0.1
v 2 2.1 0.1
v 2 2.1 0
v 2 3.2 0.1
v 2 3.2 0
v 2 3.3 0
v 2 3.3 -0.1
v 2 3.4 0.1
v 2 3.4 0
v 2 3.4 -0.1
v 2 3.5 0.1
v 2 3.5 0
v 2 3.6 0
v 2 3.6 -0.1
v 2 3.8 0
v 2 3.8 -0.1
v 2 3.9 0.1
v 2 3.9 0
v 2 4 0.1
v 2 4 -0.1
v -2 0 0.1
v -2 0.2 0.1
v -2 0.3 0.1
v -2 0.4 0.1
v -2 0.8 0.1
v -2 1 0.1
v -2 1.3 0.1
v -2 1.8 0.1
v -2 2.1 0.1
v -2 3.2 0.1
v -2 3.4 0.1
v -2 3.5 0.1
v -2 3.9 0.1
v -2 4 0.1
v -1.7 0.4 0.1
v -1.7 0.5 0.1
v -1.7 3.5 0.1
v -1.7 3.6 0.1
v -1.3 3.9 0.1
v -1.3 4 0.1
v -1 3.9 0.1
v -1 4 0.1
v -0.9 0.8 0.1
v -0.9 1 0.1
v -0.9 1.3 0.1
v -0.9 1.5 0.1
v -0.6 0.8 0.1
v -0.6 1 0.1
v -0.6 1.2 0.1
v -0.6 1.4 0.1
v -0.4 1.7 0.1
v -0.4 1.8 0.1
v -0.3 0.4 0.1
v -0.3 0.5 0.1
v -0.3 3.5 0.1
v -0.3 3.6 0.1
v -0.2 1.5 0.1
v -0.2 1.7 0.1
v 0.2 1.5 0.1
v 0.2 1.7 0.1
v 0.3 0.4 0.1
v 0.3 0.5 0.1
v 0.3 3.5 0.1
v 0.3 3.6 0.1
v 0.4 1.7 0.1
v 0.4 1.8 0.1
v 0.6 0.8 0.1
v 0.6 1 0.1
v 0.6 1.2 0.1
v 0.6 1.4 0.1
v 0.9 0.8 0.1
v 0.9 1 0.1
v 0.9 1.3 0.1
v 0.9 1.5 0.1
v 1 3.9 0.1
v 1 4 0.1
v 1.3 3.9 0.1
v 1.3 4 0.1
v 1.7 0.4 0.1
v 1.7 0.5 0.1
v 1.7 3.5 0.1
v 1.7 3.6 0.1
v 2 0 0.1
v 2 0.2 0.1
v 2 0.3 0.1
v 2 0.4 0.1
v 2 0.8 0.1
v 2 1 0.1
v 2 1.3 0.1
v 2 1.8 0.1
v 2 2.1 0.1
v 2 3.2 0.1
v 2 3.4 0.1
v 2 3.5 0.1
v 2 3.9 0.1
v 2 4 0.1
v -2 0.2 0
v -2 0.3 0
v -2 0.4 0
v -2 0.5 0
v -2 0.7 0
v -2 0.8 0
v -2 1 0
v -2 1.1 0
v -2 1.2 0
v -2 1.3 0
v -2 1.8 0
v -2 1.9 0
v -2 2 0
v -2 2.1 0
v -2 3.2 0
v -2 3.3 0
v -2 3.4 0
v -2 3.5 0
v -2 3.6 0
v -2 3.8 0
v -2 3.9 0
v -1.7 0.4 0
v -1.7 0.5 0
v -1.7 3.5 0
v -1.7 3.6 0
v -1.5 0.5 0
v -1.5 0.6 0
v -1.5 3.6 0
v -1.5 3.7 0
v -1.3 3.9 0
v -1.3 4 0
v -1.2 3.8 0
v -1.2 4 0
v -1.1 3.8 0
v -1.1 4 0
v -1 3.9 0
v -1 4 0
v -0.9 0.8 0
v -0.9 1 0
v -0.9 1.3 0
v -0.9 1.5 0
v -0.8 0.7 0
v -0.8 1.1 0
v -0.8 1.2 0
v -0.8 1.5 0
v -0.7 0.7 0
v -0.7 1.1 0
v -0.7 1.2 0
v -0.7 1.4 0
v -0.6 0.8 0
v -0.6 1 0
v -0.6 1.2 0
v -0.6 1.4 0
v -0.5 0.5 0
v -0.5 0.6 0
v -0.5 3.6 0
v -0.5 3.7 0
v -0.4 1.7 0
v -0.4 1.8 0
v -0.4 1.9 0
v -0.3 0.4 0
v -0.3 0.5 0
v -0.3 1.8 0
v -0.3 1.9 0
v -0.3 3.5 0
v -0.3 3.6 0
v -0.2 1.5 0
v -0.2 1.7 0
v -0.2 1.8 0
v -0.2 1.9 0
v -0.0999999 1.5 0
v -0.0999999 1.7 0
v -0.0999999 1.8 0
v -0.0999999 1.9 0
v 0.1 1.5 0
v 0.1 1.7 0
v 0.1 1.8 0
v 0.1 1.9 0
v 0.2 1.5 0
v 0.2 1.7 0
v 0.2 1.8 0
v 0.2 1.9 0
v 0.3 0.4 0
v 0.3 0.5 0
v 0.3 1.8 0
v 0.3 1.9 0
v 0.3 3.5 0
v 0.3 3.6 0
v 0.4 1.7 0
v 0.4 1.8 0
v 0.4 1.9 0
v 0.5 0.5 0
v 0.5 0.6 0
v 0.5 3.6 0
v 0.5 3.7 0
v 0.6 0.8 0
v 0.6 1 0
v 0.6 1.2 0
v 0.6 1.4 0
v 0.7 0.7 0
v 0.7 1.1 0
v 0.7 1.2 0
v 0.7 1.4 0
v 0.8 0.7 0
v 0.8 1.1 0
v 0.8 1.2 0
v 0.8 1.5 0
v 0.9 0.8 0
v 0.9 1 0
v 0.9 1.3 0
v 0.9 1.5 0
v 1 3.9 0
v 1 4 0
v 1.1 3.8 0
v 1.1 4 0
v 1.2 3.8 0
v 1.2 4 0
v 1.3 3.9 0
v 1.3 4 0
v 1.5 0.5 0
v 1.5 0.6 0
v 1.5 3.6 0
v 1.5 3.7 0
v 1.7 0.4 0
v 1.7 0.5 0
v 1.7 3.5 0
v 1.7 3.6 0
v 2 0.2 0
v 2 0.3 0
v 2 0.4 0
v 2 0.5 0
v 2 0.7 0
v 2 0.8 0
v 2 1 0
v 2 1.1 0
v 2 1.2 0
v 2 1.3 0
v 2 1.8 0
v 2 1.9 0
v 2 2 0
v 2 2.1 0
v 2 3.2 0
v 2 3.3 0
v 2 3.4 0
v 2 3.5 0
v 2 3.6 0
v 2 3.8 0
v 2 3.9 0
v -2 0 -0.1
v -2 0.2 -0.1
v -2 0.3 -0.1
v -2 0.5 -0.1
v -2 0.7 -0.1
v -2 1.1 -0.1
v -2 1.2 -0.1
v -2 1.9 -0.1
v -2 2 -0.1
v -2 3.3 -0.1
v -2 3.4 -0.1
v -2 3.6 -0.1
v -2 3.8 -0.1
v -2 4 -0.1
v -1.5 0.5 -0.1
v -1.5 0.6 -0.1
v -1.5 3.6 -0.1
v -1.5 3.7 -0.1
v -1.2 3.8 -0.1
v -1.2 4 -0.1
v -1.1 3.8 -0.1
v -1.1 4 -0.1
v -0.8 0.7 -0.1
v -0.8 1.1 -0.1
v -0.8 1.2 -0.1
v -0.8 1.5 -0.1
v -0.7 0.7 -0.1
v -0.7 1.1 -0.1
v -0.7 1.2 -0.1
v -0.7 1.4 -0.1
v -0.5 0.5 -0.1
v -0.5 0.6 -0.1
v -0.5 3.6 -0.1
v -0.5 3.7 -0.1
v -0.4 1.7 -0.1
v -0.4 1.9 -0.1
v -0.3 1.8 -0.1
v -0.3 1.9 -0.1
v -0.2 1.8 -0.1
v -0.2 1.9 -0.1
v -0.0999999 1.5 -0.1
v -0.0999999 1.7 -0.1
v -0.0999999 1.8 -0.1
v -0.0999999 1.9 -0.1
v 0.1 1.5 -0.1
v 0.1 1.7 -0.1
v 0.1 1.8 -0.1
v 0.1 1.9 -0.1
v 0.2 1.8 -0.1
v 0.2 1.9 -0.1
v 0.3 1.8 -0.1
v 0.3 1.9 -0.1
v 0.4 1.7 -0.1
v 0.4 1.9 -0.1
v 0.5 0.5 -0.1
v 0.5 0.6 -0.1
v 0.5 3.6 -0.1
v 0.5 3.7 -0.1
v 0.7 0.7 -0.1
v 0.7 1.1 -0.1
v 0.7 1.2 -0.1
v 0.7 1.4 -0.1
v 0.8 0.7 -0.1
v 0.8 1.1 -0.1
v 0.8 1.2 -0.1
v 0.8 1.5 -0.1
v 1.1 3.8 -0.1
v 1.1 4 -0.1
v 1.2 3.8 -0.1
v 1.2 4 -0.1
v 1.5 0.5 -0.1
v 1.5 0.6 -0.1
v 1.5 3.6 -0.1
v 1.5 3.7 -0.1
v 2 0 -0.1
v 2 0.2 -0.1
v 2 0.3 -0.1
v 2 0.5 -0.1
v 2 0.7 -0.1
v 2 1.1 -0.1
v 2 1.2 -0.1
v 2 1.9 -0.1
v 2 2 -0.1
v 2 3.3 -0.1
v 2 3.4 -0.1
v 2 3.6 -0.1
v 2 3.8 -0.1
v 2 4 -0.1
v -2 0 0.1
v 2 0 0.1
v -2 0 -0.1
v 2 0 -0.1
v -2 0.3 0.1
v 2 0.3 0.1
v -2 0.3 0
v 2 0.3 0
v -2 0.8 0.1
v -0.9 0.8 0.1
v -0.6 0.8 0.1
v 0.6 0.8 0.1
v 0.9 0.8 0.1
v 2 0.8 0.1
v -2 0.8 0
v -0.9 0.8 0
v -0.6 0.8 0
v 0.6 0.8 0
v 0.9 0.8 0
v 2 0.8 0
v -0.6 1.2 0.1
v 0.6 1.2 0.1
v -0.6 1.2 0
v 0.6 1.2 0
v -2 1.3 0.1
v -0.9 1.3 0.1
v 0.9 1.3 0.1
v 2 1.3 0.1
v -2 1.3 0
v -0.9 1.3 0
v 0.9 1.3 0
v 2 1.3 0
v -0.9 1.5 0.1
v -0.2 1.5 0.1
v 0.2 1.5 0.1
v 0.9 1.5 0.1
v -0.9 1.5 0
v -0.8 1.5 0
v -0.2 1.5 0
v 0.2 1.5 0
v 0.8 1.5 0
v 0.9 1.5 0
v -2 2.1 0.1
v 2 2.1 0.1
v -2 2.1 0
v 2 2.1 0
v -2 3.4 0.1
v 2 3.4 0.1
v -2 3.4 0
v 2 3.4 0
v -2 3.9 0.1
v -1.3 3.9 0.1
v -1 3.9 0.1
v 1 3.9 0.1
v 1.3 3.9 0.1
v 2 3.9 0.1
v -2 3.9 0
v -1.3 3.9 0
v -1 3.9 0
v 1 3.9 0
v 1.3 3.9 0
v 2 3.9 0
v -2 0.2 0.1
v 2 0.2 0.1
v -2 0.2 0
v 2 0.2 0
v -2 0.4 0.1
v -1.7 0.4 0.1
v -0.3 0.4 0.1
v 0.3 0.4 0.1
v 1.7 0.4 0.1
v 2 0.4 0.1
v -2 0.4 0
v -1.7 0.4 0
v -0.3 0.4 0
v 0.3 0.4 0
v 1.7 0.4 0
v 2 0.4 0
v -1.7 0.5 0.1
v -0.3 0.5 0.1
v 0.3 0.5 0.1
v 1.7 0.5 0.1
v -1.7 0.5 0
v -1.5 0.5 0
v -0.5 0.5 0
v -0.3 0.5 0
v 0.3 0.5 0
v 0.5 0.5 0
v 1.5 0.5 0
v 1.7 0.5 0
v -2 1 0.1
v -0.9 1 0.1
v -0.6 1 0.1
v 0.6 1 0.1
v 0.9 1 0.1
v 2 1 0.1
v -2 1 0
v -0.9 1 0
v -0.6 1 0
v 0.6 1 0
v 0.9 1 0
v 2 1 0
v -0.6 1.4 0.1
v 0.6 1.4 0.1
v -0.6 1.4 0
v 0.6 1.4 0
v -0.4 1.7 0.1
v -0.2 1.7 0.1
v 0.2 1.7 0.1
v 0.4 1.7 0.1
v -0.4 1.7 0
v -0.2 1.7 0
v 0.2 1.7 0
v 0.4 1.7 0
v -2 1.8 0.1
v -0.4 1.8 0.1
v 0.4 1.8 0.1
v 2 1.8 0.1
v -2 1.8 0
v -0.4 1.8 0
v 0.4 1.8 0
v 2 1.8 0
v -2 3.2 0.1
v 2 3.2 0.1
v -2 3.2 0
v 2 3.2 0
v -2 3.5 0.1
v -1.7 3.5 0.1
v -0.3 3.5 0.1
v 0.3 3.5 0.1
v 1.7 3.5 0.1
v 2 3.5 0.1
v -2 3.5 0
v -1.7 3.5 0
v -0.3 3.5 0
v 0.3 3.5 0
v 1.7 3.5 0
v 2 3.5 0
v -1.7 3.6 0.1
v -0.3 3.6 0.1
v 0.3 3.6 0.1
v 1.7 3.6 0.1
v -1.7 3.6 0
v -1.5 3.6 0
v -0.5 3.6 0
v -0.3 3.6 0
v 0.3 3.6 0
v 0.5 3.6 0
v 1.5 3.6 0
v 1.7 3.6 0
v -2 4 0.1
v -1.3 4 0.1
v -1 4 0.1
v 1 4 0.1
v 1.3 4 0.1
v 2 4 0.1
v -1.3 4 0
v -1.2 4 0
v -1.1 4 0
v -1 4 0
v 1 4 0
v 1.1 4 0
v 1.2 4 0
v 1.3 4 0
v -2 4 -0.1
v -1.2 4 -0.1
v -1.1 4 -0.1
v 1.1 4 -0.1
v 1.2 4 -0.1
v 2 4 -0.1

# faces
f 3/5/1 2/5/1 1/5/1
f 4/5/1 2/5/1 3/5/1
f 5/5/1 2/5/1 4/5/1
f 7/4/1 5/4/1 4/4/1
f 8/4/1 5/4/1 7/4/1
f 9/5/1 7/5/1 6/5/1
f 9/5/1 8/5/1 7/5/1
f 10/5/1 8/5/1 9/5/1
f 11/5/1 8/5/1 10/5/1
f 12/5/1 8/5/1 11/5/1
f 13/3/1 12/3/1 11/3/1
f 14/3/1 12/3/1 13/3/1
f 16/5/1 14/5/1 13/5/1
f 17/5/1 16/5/1 15/5/1
f 18/5/1 14/5/1 16/5/1
f 18/5/1 16/5/1 17/5/1
f 19/5/1 14/5/1 18/5/1
f 20/5/1 14/5/1 19/5/1
f 21/4/1 20/4/1 19/4/1
f 22/4/1 20/4/1 21/4/1
f 24/5/1 22/5/1 21/5/1
f 25/5/1 24/5/1 23/5/1
f 26/5/1 22/5/1 24/5/1
f 26/5/1 24/5/1 25/5/1
f 27/5/1 22/5/1 26/5/1
f 28/5/1 22/5/1 27/5/1
f 29/4/1 28/4/1 27/4/1
f 30/4/1 28/4/1 29/4/1
f 32/5/1 30/5/1 29/5/1
f 33/5/1 32/5/1 31/5/1
f 34/5/1 30/5/1 32/5/1
f 34/5/1 32/5/1 33/5/1
f 35/5/1 30/5/1 34/5/1
f 36/5/1 30/5/1 35/5/1
f 38/4/1 36/4/1 35/4/1
f 39/4/1 36/4/1 38/4/1
f 40/5/1 38/5/1 37/5/1
f 40/5/1 39/5/1 38/5/1
f 41/5/1 39/5/1 40/5/1
f 42/5/1 39/5/1 41/5/1
f 43/5/1 39/5/1 42/5/1
f 44/3/1 43/3/1 42/3/1
f 45/3/1 43/3/1 44/3/1
f 47/5/1 45/5/1 44/5/1
f 48/5/1 47/5/1 46/5/1
f 49/5/1 45/5/1 47/5/1
f 49/5/1 47/5/1 48/5/1
f 52/5/1 51/5/1 50/5/1
f 53/5/1 51/5/1 52/5/1
f 56/5/1 55/5/1 54/5/1
f 57/5/1 55/5/1 56/5/1
f 60/5/1 59/5/1 58/5/1
f 61/5/1 59/5/1 60/5/1
f 64/5/1 63/5/1 62/5/1
f 65/5/1 63/5/1 64/5/1
f 68/5/1 67/5/1 66/5/1
f 69/5/1 67/5/1 68/5/1
f 72/5/1 71/5/1 70/5/1
f 73/5/1 71/5/1 72/5/1
f 76/5/1 75/5/1 74/5/1
f 77/5/1 75/5/1 76/5/1
f 80/5/1 79/5/1 78/5/1
f 81/5/1 79/5/1 80/5/1
f 84/5/1 83/5/1 82/5/1
f 85/5/1 83/5/1 84/5/1
f 88/5/1 87/5/1 86/5/1
f 89/5/1 87/5/1 88/5/1
f 92/5/1 91/5/1 90/5/1
f 93/5/1 91/5/1 92/5/1
f 96/5/1 95/5/1 94/5/1
f 97/5/1 95/5/1 96/5/1
f 98/5/2 99/5/2 100/5/2
f 100/5/2 99/5/2 101/5/2
f 102/5/2 103/5/2 104/5/2
f 104/5/2 103/5/2 105/5/2
f 106/5/2 107/5/2 108/5/2
f 108/5/2 107/5/2 109/5/2
f 110/5/2 111/5/2 112/5/2
f 112/5/2 111/5/2 113/5/2
f 114/5/2 115/5/2 116/5/2
f 116/5/2 115/5/2 117/5/2
f 118/5/2 119/5/2 120/5/2
f 120/5/2 119/5/2 121/5/2
f 122/5/2 123/5/2 124/5/2
f 124/5/2 123/5/2 125/5/2
f 126/5/2 127/5/2 128/5/2
f 128/5/2 127/5/2 129/5/2
f 130/5/2 131/5/2 132/5/2
f 132/5/2 131/5/2 133/5/2
f 134/5/2 135/5/2 136/5/2
f 136/5/2 135/5/2 137/5/2
f 138/5/2 139/5/2 140/5/2
f 140/5/2 139/5/2 141/5/2
f 142/5/2 143/5/2 144/5/2
f 144/5/2 143/5/2 145/5/2
f 146/5/2 147/5/2 148/5/2
f 148/5/2 147/5/2 149/5/2
f 149/5/2 147/5/2 150/5/2
f 149/4/2 150/4/2 152/4/2
f 152/4/2 150/4/2 153/4/2
f 151/5/2 152/5/2 154/5/2
f 152/5/2 153/5/2 154/5/2
f 154/5/2 153/5/2 155/5/2
f 155/5/2 153/5/2 156/5/2
f 156/5/2 153/5/2 157/5/2
f 156/3/2 157/3/2 158/3/2
f 158/3/2 157/3/2 159/3/2
f 158/5/2 159/5/2 161/5/2
f 160/5/2 161/5/2 162/5/2
f 161/5/2 159/5/2 163/5/2
f 162/5/2 161/5/2 163/5/2
f 163/5/2 159/5/2 164/5/2
f 164/5/2 159/5/2 165/5/2
f 164/4/2 165/4/2 166/4/2
f 166/4/2 165/4/2 167/4/2
f 166/5/2 167/5/2 169/5/2
f 168/5/2 169/5/2 170/5/2
f 169/5/2 167/5/2 171/5/2
f 170/5/2 169/5/2 171/5/2
f 171/5/2 167/5/2 172/5/2
f 172/5/2 167/5/2 173/5/2
f 172/4/2 173/4/2 174/4/2
f 174/4/2 173/4/2 175/4/2
f 174/5/2 175/5/2 177/5/2
f 176/5/2 177/5/2 178/5/2
f 177/5/2 175/5/2 179/5/2
f 178/5/2 177/5/2 179/5/2
f 179/5/2 175/5/2 180/5/2
f 180/5/2 175/5/2 181/5/2
f 180/4/2 181/4/2 183/4/2
f 183/4/2 181/4/2 184/4/2
f 182/5/2 183/5/2 185/5/2
f 183/5/2 184/5/2 185/5/2
f 185/5/2 184/5/2 186/5/2
f 186/5/2 184/5/2 187/5/2
f 187/5/2 184/5/2 188/5/2
f 187/3/2 188/3/2 189/3/2
f 189/3/2 188/3/2 190/3/2
f 189/5/2 190/5/2 192/5/2
f 191/5/2 192/5/2 193/5/2
f 192/5/2 190/5/2 194/5/2
f 193/5/2 192/5/2 194/5/2
f 209/5/3 198/5/3 197/5/3
f 211/5/3 206/5/3 205/5/3
f 213/5/3 208/5/3 207/5/3
f 214/5/3 208/5/3 213/5/3
f 217/5/3 200/5/3 199/5/3
f 218/5/3 200/5/3 217/5/3
f 219/5/3 202/5/3 201/5/3
f 220/5/3 202/5/3 219/5/3
f 225/5/3 202/5/3 220/5/3
f 226/5/3 202/5/3 225/5/3
f 227/5/3 210/5/3 209/5/3
f 227/5/3 209/5/3 197/5/3
f 228/5/3 210/5/3 227/5/3
f 229/5/3 212/5/3 211/5/3
f 229/5/3 211/5/3 205/5/3
f 230/5/3 212/5/3 229/5/3
f 231/5/3 225/5/3 220/5/3
f 232/5/3 225/5/3 231/5/3
f 235/5/3 227/5/3 197/5/3
f 237/5/3 229/5/3 205/5/3
f 239/5/3 234/5/3 233/5/3
f 241/5/3 222/5/3 221/5/3
f 242/5/3 222/5/3 241/5/3
f 243/5/3 224/5/3 223/5/3
f 244/5/3 224/5/3 243/5/3
f 248/5/3 240/5/3 239/5/3
f 248/5/3 239/5/3 233/5/3
f 249/5/3 216/5/3 215/5/3
f 250/5/3 216/5/3 249/5/3
f 253/5/3 236/5/3 235/5/3
f 253/5/3 235/5/3 197/5/3
f 254/5/3 236/5/3 253/5/3
f 255/5/3 238/5/3 237/5/3
f 255/5/3 237/5/3 205/5/3
f 256/5/3 238/5/3 255/5/3
f 257/5/3 196/5/3 195/5/3
f 258/5/3 196/5/3 257/5/3
f 259/5/3 253/5/3 197/5/3
f 260/5/3 253/5/3 259/5/3
f 261/5/3 246/5/3 245/5/3
f 262/5/3 246/5/3 261/5/3
f 263/5/3 248/5/3 247/5/3
f 264/5/3 240/5/3 248/5/3
f 264/5/3 248/5/3 263/5/3
f 265/5/3 204/5/3 203/5/3
f 266/5/3 204/5/3 265/5/3
f 267/5/3 255/5/3 205/5/3
f 268/5/3 255/5/3 267/5/3
f 269/5/3 252/5/3 251/5/3
f 270/5/3 252/5/3 269/5/3
f 292/5/3 274/5/3 273/5/3
f 293/3/3 275/3/3 274/3/3
f 293/5/3 274/5/3 292/5/3
f 294/5/3 289/5/3 288/5/3
f 295/3/3 290/3/3 289/3/3
f 295/5/3 289/5/3 294/5/3
f 296/3/3 275/3/3 293/3/3
f 297/3/3 275/3/3 296/3/3
f 298/3/3 290/3/3 295/3/3
f 299/3/3 290/3/3 298/3/3
f 300/5/3 291/5/3 290/5/3
f 302/3/3 290/3/3 299/3/3
f 302/5/3 301/5/3 300/5/3
f 302/5/3 300/5/3 290/5/3
f 303/5/3 301/5/3 302/5/3
f 304/3/3 302/3/3 299/3/3
f 304/4/3 303/4/3 302/4/3
f 305/4/3 303/4/3 304/4/3
f 306/5/3 305/5/3 304/5/3
f 307/5/3 305/5/3 306/5/3
f 308/5/3 276/5/3 275/5/3
f 309/5/3 278/5/3 277/5/3
f 310/5/3 280/5/3 279/5/3
f 312/5/3 308/5/3 275/5/3
f 312/5/3 309/5/3 308/5/3
f 312/3/3 275/3/3 297/3/3
f 313/4/3 279/4/3 278/4/3
f 313/5/3 309/5/3 312/5/3
f 313/5/3 278/5/3 309/5/3
f 314/5/3 311/5/3 310/5/3
f 314/4/3 279/4/3 313/4/3
f 314/5/3 310/5/3 279/5/3
f 315/5/3 311/5/3 314/5/3
f 316/4/3 313/4/3 312/4/3
f 316/3/3 312/3/3 297/3/3
f 316/4/3 315/4/3 314/4/3
f 316/4/3 314/4/3 313/4/3
f 317/4/3 315/4/3 316/4/3
f 318/4/3 315/4/3 317/4/3
f 319/4/3 315/4/3 318/4/3
f 320/5/3 317/5/3 316/5/3
f 321/5/3 317/5/3 320/5/3
f 322/4/3 318/4/3 317/4/3
f 322/5/3 319/5/3 318/5/3
f 323/4/3 315/4/3 319/4/3
f 323/5/3 319/5/3 322/5/3
f 324/5/3 297/5/3 296/5/3
f 325/3/3 316/3/3 297/3/3
f 325/5/3 297/5/3 324/5/3
f 326/5/3 299/5/3 298/5/3
f 327/3/3 304/3/3 299/3/3
f 327/5/3 299/5/3 326/5/3
f 329/5/3 282/5/3 281/5/3
f 330/4/3 283/4/3 282/4/3
f 330/5/3 282/5/3 329/5/3
f 332/3/3 325/3/3 324/3/3
f 333/4/3 329/4/3 328/4/3
f 333/4/3 330/4/3 329/4/3
f 334/4/3 283/4/3 330/4/3
f 334/4/3 330/4/3 333/4/3
f 336/3/3 327/3/3 326/3/3
f 337/4/3 315/4/3 323/4/3
f 338/4/3 333/4/3 328/4/3
f 339/6/3 334/6/3 333/6/3
f 339/4/3 333/4/3 338/4/3
f 340/4/3 283/4/3 334/4/3
f 340/6/3 334/6/3 339/6/3
f 341/4/3 337/4/3 323/4/3
f 341/5/3 338/5/3 337/5/3
f 342/4/3 339/4/3 338/4/3
f 342/5/3 338/5/3 341/5/3
f 343/2/3 340/2/3 339/2/3
f 343/4/3 339/4/3 342/4/3
f 344/4/3 283/4/3 340/4/3
f 344/2/3 340/2/3 343/2/3
f 345/4/3 343/4/3 342/4/3
f 345/4/3 341/4/3 323/4/3
f 345/4/3 342/4/3 341/4/3
f 346/4/3 343/4/3 345/4/3
f 347/1/3 344/1/3 343/1/3
f 347/4/3 343/4/3 346/4/3
f 348/4/3 283/4/3 344/4/3
f 348/1/3 344/1/3 347/1/3
f 349/5/3 346/5/3 345/5/3
f 349/4/3 345/4/3 323/4/3
f 350/4/3 347/4/3 346/4/3
f 350/5/3 346/5/3 349/5/3
f 351/2/3 348/2/3 347/2/3
f 351/4/3 347/4/3 350/4/3
f 352/4/3 283/4/3 348/4/3
f 352/2/3 348/2/3 351/2/3
f 353/5/3 332/5/3 331/5/3
f 354/3/3 325/3/3 332/3/3
f 354/5/3 332/5/3 353/5/3
f 355/4/3 351/4/3 350/4/3
f 355/6/3 352/6/3 351/6/3
f 356/4/3 283/4/3 352/4/3
f 356/6/3 352/6/3 355/6/3
f 357/5/3 336/5/3 335/5/3
f 358/3/3 327/3/3 336/3/3
f 358/5/3 336/5/3 357/5/3
f 359/4/3 355/4/3 350/4/3
f 359/4/3 356/4/3 355/4/3
f 360/4/3 356/4/3 359/4/3
f 361/4/3 283/4/3 356/4/3
f 361/4/3 356/4/3 360/4/3
f 362/3/3 325/3/3 354/3/3
f 363/3/3 316/3/3 325/3/3
f 363/3/3 325/3/3 362/3/3
f 364/3/3 327/3/3 358/3/3
f 365/3/3 304/3/3 327/3/3
f 365/3/3 327/3/3 364/3/3
f 366/5/3 320/5/3 316/5/3
f 367/5/3 317/5/3 321/5/3
f 368/4/3 322/4/3 317/4/3
f 369/4/3 349/4/3 323/4/3
f 370/3/3 316/3/3 363/3/3
f 370/5/3 367/5/3 366/5/3
f 370/5/3 366/5/3 316/5/3
f 371/4/3 368/4/3 317/4/3
f 371/5/3 367/5/3 370/5/3
f 371/5/3 317/5/3 367/5/3
f 372/5/3 369/5/3 368/5/3
f 372/4/3 368/4/3 371/4/3
f 373/4/3 349/4/3 369/4/3
f 373/5/3 369/5/3 372/5/3
f 374/3/3 370/3/3 363/3/3
f 374/4/3 371/4/3 370/4/3
f 374/4/3 373/4/3 372/4/3
f 374/4/3 372/4/3 371/4/3
f 375/4/3 373/4/3 374/4/3
f 376/4/3 373/4/3 375/4/3
f 377/4/3 349/4/3 373/4/3
f 377/4/3 373/4/3 376/4/3
f 378/5/3 375/5/3 374/5/3
f 379/5/3 375/5/3 378/5/3
f 380/5/3 377/5/3 376/5/3
f 381/5/3 377/5/3 380/5/3
f 382/5/3 306/5/3 304/5/3
f 384/3/3 304/3/3 365/3/3
f 384/5/3 383/5/3 382/5/3
f 384/5/3 382/5/3 304/5/3
f 385/5/3 383/5/3 384/5/3
f 386/3/3 384/3/3 365/3/3
f 386/4/3 385/4/3 384/4/3
f 387/4/3 385/4/3 386/4/3
f 388/5/3 387/5/3 386/5/3
f 389/5/3 387/5/3 388/5/3
f 390/5/3 363/5/3 362/5/3
f 391/3/3 374/3/3 363/3/3
f 391/5/3 363/5/3 390/5/3
f 392/5/3 365/5/3 364/5/3
f 393/3/3 386/3/3 365/3/3
f 393/5/3 365/5/3 392/5/3
f 395/3/3 391/3/3 390/3/3
f 397/3/3 393/3/3 392/3/3
f 398/4/3 272/4/3 271/4/3
f 399/4/3 272/4/3 398/4/3
f 400/5/3 395/5/3 394/5/3
f 401/3/3 391/3/3 395/3/3
f 401/5/3 395/5/3 400/5/3
f 402/3/3 374/3/3 391/3/3
f 402/3/3 391/3/3 401/3/3
f 402/5/3 378/5/3 374/5/3
f 403/5/3 378/5/3 402/5/3
f 404/5/3 375/5/3 379/5/3
f 405/4/3 376/4/3 375/4/3
f 405/5/3 375/5/3 404/5/3
f 406/5/3 380/5/3 376/5/3
f 406/4/3 376/4/3 405/4/3
f 407/5/3 380/5/3 406/5/3
f 408/5/3 361/5/3 360/5/3
f 409/4/3 283/4/3 361/4/3
f 409/5/3 361/5/3 408/5/3
f 410/5/3 284/5/3 283/5/3
f 410/4/3 283/4/3 409/4/3
f 411/5/3 284/5/3 410/5/3
f 412/5/3 286/5/3 285/5/3
f 413/4/3 287/4/3 286/4/3
f 413/5/3 286/5/3 412/5/3
f 414/4/3 287/4/3 413/4/3
f 415/5/3 397/5/3 396/5/3
f 416/3/3 393/3/3 397/3/3
f 416/5/3 397/5/3 415/5/3
f 417/5/3 388/5/3 386/5/3
f 417/3/3 393/3/3 416/3/3
f 417/3/3 386/3/3 393/3/3
f 418/5/3 388/5/3 417/5/3
f 421/5/4 422/5/4 433/5/4
f 422/3/4 423/3/4 433/3/4
f 433/3/4 423/3/4 434/3/4
f 430/3/4 431/3/4 435/3/4
f 429/5/4 430/5/4 435/5/4
f 435/3/4 431/3/4 436/3/4
f 431/5/4 432/5/4 437/5/4
f 436/3/4 431/3/4 437/3/4
f 437/5/4 432/5/4 438/5/4
f 436/3/4 437/3/4 439/3/4
f 437/4/4 438/4/4 439/4/4
f 439/4/4 438/4/4 440/4/4
f 434/3/4 423/3/4 441/3/4
f 423/5/4 424/5/4 441/5/4
f 424/4/4 425/4/4 442/4/4
f 441/5/4 424/5/4 442/5/4
f 425/5/4 426/5/4 443/5/4
f 442/4/4 425/4/4 443/4/4
f 443/5/4 426/5/4 444/5/4
f 434/3/4 441/3/4 445/3/4
f 441/4/4 442/4/4 445/4/4
f 443/4/4 444/4/4 445/4/4
f 442/4/4 443/4/4 445/4/4
f 445/4/4 444/4/4 446/4/4
f 446/4/4 444/4/4 447/4/4
f 447/4/4 444/4/4 448/4/4
f 433/5/4 434/5/4 449/5/4
f 421/5/4 433/5/4 449/5/4
f 434/3/4 445/3/4 450/3/4
f 449/5/4 434/5/4 450/5/4
f 435/5/4 436/5/4 451/5/4
f 429/5/4 435/5/4 451/5/4
f 436/3/4 439/3/4 452/3/4
f 451/5/4 436/5/4 452/5/4
f 444/5/4 426/5/4 453/5/4
f 426/4/4 427/4/4 454/4/4
f 453/5/4 426/5/4 454/5/4
f 453/4/4 454/4/4 455/4/4
f 454/4/4 427/4/4 456/4/4
f 455/4/4 454/4/4 456/4/4
f 453/4/4 455/4/4 457/4/4
f 455/6/4 456/6/4 457/6/4
f 456/4/4 427/4/4 458/4/4
f 457/6/4 456/6/4 458/6/4
f 444/5/4 453/5/4 459/5/4
f 448/4/4 444/4/4 459/4/4
f 453/4/4 457/4/4 460/4/4
f 459/5/4 453/5/4 460/5/4
f 457/2/4 458/2/4 461/2/4
f 460/4/4 457/4/4 461/4/4
f 458/4/4 427/4/4 462/4/4
f 461/2/4 458/2/4 462/2/4
f 460/4/4 461/4/4 463/4/4
f 459/4/4 460/4/4 463/4/4
f 448/4/4 459/4/4 463/4/4
f 463/4/4 461/4/4 464/4/4
f 461/1/4 462/1/4 465/1/4
f 464/4/4 461/4/4 465/4/4
f 462/4/4 427/4/4 466/4/4
f 465/1/4 462/1/4 466/1/4
f 464/4/4 465/4/4 467/4/4
f 465/2/4 466/2/4 467/2/4
f 466/4/4 427/4/4 468/4/4
f 467/2/4 466/2/4 468/2/4
f 464/4/4 467/4/4 469/4/4
f 467/6/4 468/6/4 469/6/4
f 468/4/4 427/4/4 470/4/4
f 469/6/4 468/6/4 470/6/4
f 464/4/4 469/4/4 471/4/4
f 463/5/4 464/5/4 471/5/4
f 469/4/4 470/4/4 471/4/4
f 470/4/4 427/4/4 472/4/4
f 471/4/4 470/4/4 472/4/4
f 449/3/4 450/3/4 473/3/4
f 421/5/4 449/5/4 473/5/4
f 450/3/4 445/3/4 474/3/4
f 473/3/4 450/3/4 474/3/4
f 429/5/4 451/5/4 475/5/4
f 451/3/4 452/3/4 475/3/4
f 452/3/4 439/3/4 476/3/4
f 475/3/4 452/3/4 476/3/4
f 474/3/4 445/3/4 477/3/4
f 445/5/4 446/5/4 477/5/4
f 446/4/4 447/4/4 478/4/4
f 477/5/4 446/5/4 478/5/4
f 447/5/4 448/5/4 479/5/4
f 478/4/4 447/4/4 479/4/4
f 448/4/4 463/4/4 480/4/4
f 479/5/4 448/5/4 480/5/4
f 478/4/4 479/4/4 481/4/4
f 477/4/4 478/4/4 481/4/4
f 479/4/4 480/4/4 481/4/4
f 474/3/4 477/3/4 481/3/4
f 481/4/4 480/4/4 482/4/4
f 482/4/4 480/4/4 483/4/4
f 463/5/4 471/5/4 484/5/4
f 483/4/4 480/4/4 484/4/4
f 480/4/4 463/4/4 484/4/4
f 471/5/4 472/5/4 484/5/4
f 439/5/4 440/5/4 485/5/4
f 476/3/4 439/3/4 485/3/4
f 485/5/4 440/5/4 486/5/4
f 476/3/4 485/3/4 487/3/4
f 485/4/4 486/4/4 487/4/4
f 487/4/4 486/4/4 488/4/4
f 421/5/4 473/5/4 489/5/4
f 473/5/4 474/5/4 489/5/4
f 474/3/4 481/3/4 490/3/4
f 489/5/4 474/5/4 490/5/4
f 429/5/4 475/5/4 491/5/4
f 475/5/4 476/5/4 491/5/4
f 476/3/4 487/3/4 492/3/4
f 491/5/4 476/5/4 492/5/4
f 419/5/4 420/5/4 493/5/4
f 420/4/4 421/4/4 494/4/4
f 493/5/4 420/5/4 494/5/4
f 421/5/4 489/5/4 495/5/4
f 494/4/4 421/4/4 495/4/4
f 489/3/4 490/3/4 496/3/4
f 495/5/4 489/5/4 496/5/4
f 490/3/4 481/3/4 497/3/4
f 496/3/4 490/3/4 497/3/4
f 481/5/4 482/5/4 497/5/4
f 482/4/4 483/4/4 498/4/4
f 497/5/4 482/5/4 498/5/4
f 483/5/4 484/5/4 499/5/4
f 498/4/4 483/4/4 499/4/4
f 484/5/4 472/5/4 500/5/4
f 499/5/4 484/5/4 500/5/4
f 472/4/4 427/4/4 500/4/4
f 427/5/4 428/5/4 501/5/4
f 500/4/4 427/4/4 501/4/4
f 428/4/4 429/4/4 502/4/4
f 501/5/4 428/5/4 502/5/4
f 429/5/4 491/5/4 503/5/4
f 502/4/4 429/4/4 503/4/4
f 491/3/4 492/3/4 504/3/4
f 503/5/4 491/5/4 504/5/4
f 492/3/4 487/3/4 505/3/4
f 504/3/4 492/3/4 505/3/4
f 487/5/4 488/5/4 505/5/4
f 505/5/4 488/5/4 506/5/4
f 509/5/5 508/5/5 507/5/5
f 510/5/5 508/5/5 509/5/5
f 513/5/5 512/5/5 511/5/5
f 514/5/5 512/5/5 513/5/5
f 521/5/5 516/5/5 515/5/5
f 522/5/5 516/5/5 521/5/5
f 523/5/5 518/5/5 517/5/5
f 524/5/5 518/5/5 523/5/5
f 525/5/5 520/5/5 519/5/5
f 526/5/5 520/5/5 525/5/5
f 529/5/5 528/5/5 527/5/5
f 530/5/5 528/5/5 529/5/5
f 535/5/5 532/5/5 531/5/5
f 536/5/5 532/5/5 535/5/5
f 537/5/5 534/5/5 533/5/5
f 538/5/5 534/5/5 537/5/5
f 543/5/5 540/5/5 539/5/5
f 544/5/5 540/5/5 543/5/5
f 545/5/5 540/5/5 544/5/5
f 546/5/5 542/5/5 541/5/5
f 547/5/5 542/5/5 546/5/5
f 548/5/5 542/5/5 547/5/5
f 551/5/5 550/5/5 549/5/5
f 552/5/5 550/5/5 551/5/5
f 555/5/5 554/5/5 553/5/5
f 556/5/5 554/5/5 555/5/5
f 563/5/5 558/5/5 557/5/5
f 564/5/5 558/5/5 563/5/5
f 565/5/5 560/5/5 559/5/5
f 566/5/5 560/5/5 565/5/5
f 567/5/5 562/5/5 561/5/5
f 568/5/5 562/5/5 567/5/5
f 569/5/6 570/5/6 571/5/6
f 571/5/6 570/5/6 572/5/6
f 573/5/6 574/5/6 579/5/6
f 579/5/6 574/5/6 580/5/6
f 575/5/6 576/5/6 581/5/6
f 581/5/6 576/5/6 582/5/6
f 577/5/6 578/5/6 583/5/6
f 583/5/6 578/5/6 584/5/6
f 585/5/6 586/5/6 589/5/6
f 589/5/6 586/5/6 590/5/6
f 590/5/6 586/5/6 591/5/6
f 591/5/6 586/5/6 592/5/6
f 587/5/6 588/5/6 593/5/6
f 593/5/6 588/5/6 594/5/6
f 594/5/6 588/5/6 595/5/6
f 595/5/6 588/5/6 596/5/6
f 597/5/6 598/5/6 603/5/6
f 603/5/6 598/5/6 604/5/6
f 599/5/6 600/5/6 605/5/6
f 605/5/6 600/5/6 606/5/6
f 601/5/6 602/5/6 607/5/6
f 607/5/6 602/5/6 608/5/6
f 609/5/6 610/5/6 611/5/6
f 611/5/6 610/5/6 612/5/6
f 613/5/6 614/5/6 617/5/6
f 617/5/6 614/5/6 618/5/6
f 615/5/6 616/5/6 619/5/6
f 619/5/6 616/5/6 620/5/6
f 621/5/6 622/5/6 625/5/6
f 625/5/6 622/5/6 626/5/6
f 623/5/6 624/5/6 627/5/6
f 627/5/6 624/5/6 628/5/6
f 629/5/6 630/5/6 631/5/6
f 631/5/6 630/5/6 632/5/6
f 633/5/6 634/5/6 639/5/6
f 639/5/6 634/5/6 640/5/6
f 635/5/6 636/5/6 641/5/6
f 641/5/6 636/5/6 642/5/6
f 637/5/6 638/5/6 643/5/6
f 643/5/6 638/5/6 644/5/6
f 645/5/6 646/5/6 649/5/6
f 649/5/6 646/5/6 650/5/6
f 650/5/6 646/5/6 651/5/6
f 651/5/6 646/5/6 652/5/6
f 647/5/6 648/5/6 653/5/6
f 653/5/6 648/5/6 654/5/6
f 654/5/6 648/5/6 655/5/6
f 655/5/6 648/5/6 656/5/6
f 657/5/6 658/5/6 663/5/6
f 659/5/6 660/5/6 666/5/6
f 666/5/6 660/5/6 667/5/6
f 661/5/6 662/5/6 670/5/6
f 657/5/6 663/5/6 671/5/6
f 663/5/6 664/5/6 671/5/6
f 664/4/6 665/4/6 672/4/6
f 671/5/6 664/5/6 672/5/6
f 665/5/6 666/5/6 673/5/6
f 672/4/6 665/4/6 673/4/6
f 666/5/6 667/5/6 673/5/6
f 667/5/6 668/5/6 673/5/6
f 668/4/6 669/4/6 674/4/6
f 673/5/6 668/5/6 674/5/6
f 669/5/6 670/5/6 675/5/6
f 674/4/6 669/4/6 675/4/6
f 670/5/6 662/5/6 676/5/6
f 675/5/6 670/5/6 676/5/6
